<?xml version="1.0" encoding="UTF-8" standalone="no"?>
<svg
   xmlns:dc="http://purl.org/dc/elements/1.1/"
   xmlns:cc="http://creativecommons.org/ns#"
   xmlns:rdf="http://www.w3.org/1999/02/22-rdf-syntax-ns#"
   xmlns:svg="http://www.w3.org/2000/svg"
   xmlns="http://www.w3.org/2000/svg"
   xmlns:sodipodi="http://sodipodi.sourceforge.net/DTD/sodipodi-0.dtd"
   xmlns:inkscape="http://www.inkscape.org/namespaces/inkscape"
   sodipodi:docname="drawing-4.svg"
   inkscape:version="1.0 (4035a4fb49, 2020-05-01)"
   id="svg4486"
   version="1.1"
   viewBox="0 0 9.2661982 9.3320093"
   height="9.3320093mm"
   width="9.2661982mm">
  <defs
     id="defs4480" />
  <sodipodi:namedview
     inkscape:window-maximized="0"
     inkscape:window-y="32"
     inkscape:window-x="698"
     inkscape:window-height="681"
     inkscape:window-width="630"
     fit-margin-bottom="0"
     fit-margin-right="0"
     fit-margin-left="0"
     fit-margin-top="0"
     showgrid="false"
     inkscape:document-rotation="0"
     inkscape:current-layer="layer1"
     inkscape:document-units="mm"
     inkscape:cy="-268.079"
     inkscape:cx="-113.91763"
     inkscape:zoom="0.35"
     inkscape:pageshadow="2"
     inkscape:pageopacity="0.0"
     borderopacity="1.0"
     bordercolor="#666666"
     pagecolor="#ffffff"
     id="base" />
  <metadata
     id="metadata4483">
    <rdf:RDF>
      <cc:Work
         rdf:about="">
        <dc:format>image/svg+xml</dc:format>
        <dc:type
           rdf:resource="http://purl.org/dc/dcmitype/StillImage" />
        <dc:title></dc:title>
      </cc:Work>
    </rdf:RDF>
  </metadata>
  <g
     transform="translate(-135.97404,-219.0959)"
     id="layer1"
     inkscape:groupmode="layer"
     inkscape:label="Layer 1">
    <g
       id="g4436"
       transform="matrix(0.26458333,0,0,0.26458333,135.97404,219.15691)">
      <path
         style="fill:#e6e6e6;fill-opacity:1;stroke-width:0.96"
         d="M 0.96000003,34.560001 H 0 v -4.731428 -4.73143 l 1.5085715,-1.50857 1.5085714,-1.508572 h 1.8514287 1.8514286 v -1.44 -1.44 H 4.8744502 3.0289001 L 1.8993494,15.777429 0.7697987,12.354856 1.3830984,9.0856874 1.9963982,5.8165187 4.4435371,2.9082593 6.890676,0 h 3.541056 3.541057 l 2.147547,1.5042009 2.147548,1.504201 1.426059,3.4130382 1.426058,3.4130383 V 12.597239 15.36 h 0.96 0.96 V 14.4 13.44 h 2.4 2.4 v 1.06271 1.062709 l 1.349802,-0.517968 1.349802,-0.517968 1.624241,1.794766 1.624241,1.794766 -0.6307,1.020493 -0.630699,1.020493 h 1.016657 1.016656 v 2.88 2.88 h -1.016656 -1.016657 l 0.630699,1.020492 0.6307,1.020494 -1.624241,1.794765 -1.624241,1.794766 -1.349802,-0.517968 -1.349802,-0.517968 v 1.062709 1.06271 h -2.4 -2.4 v -0.96 -0.96 H 22.169876 21.29975 l 0.502092,1.92 0.502091,1.92 H 21.231966 20.160001 V 32.757548 30.955094 L 18.676312,29.723743 17.192623,28.49239 17.655696,27.285644 18.118767,26.078898 16.739384,25.549579 15.36,25.02026 v 1.041836 1.041837 L 13.44,26.601842 11.52,26.09975 v 4.230126 4.230125 H 10.56 9.6000003 v -4.437547 -4.437547 l -1.4400001,1.195094 -1.44,1.195093 v -1.50089 -1.500891 L 5.8466326,24.533543 4.9732649,23.993771 3.4466325,24.579595 1.9200001,25.16542 v 4.69729 4.697291 z m 24.59754797,-3.84 h 0.362453 V 29.86271 29.00542 l -1.575787,-0.604686 -1.575785,-0.604686 1.213333,1.461977 1.213332,1.461976 z m -4.974204,-1.92 h 0.423344 l 0.552316,-0.893666 0.552316,-0.893665 -0.97566,-0.602991 -0.975659,-0.602991 v 1.496656 1.496657 z m 6.776657,0 h 0.48 v -0.48 -0.48 h -0.48 -0.48 v 0.48 0.48 z m 2.936656,0 h 0.423344 v -1.496657 -1.496656 l -0.97566,0.602991 -0.975659,0.602991 0.552316,0.893665 0.552316,0.893666 z M 25.360001,26.804212 27.2,26.880001 26.620001,26.3 l -0.58,-0.579999 -1.26,0.50421 -1.26,0.504211 z M 14.481312,24.429748 15.36,23.886688 v -1.413473 -1.413474 l 1.434486,-0.550464 1.434487,-0.550464 -0.568529,-0.919899 -0.56853,-0.919899 1.682832,-1.859507 L 20.457577,14.4 h -1.37832 -1.37832 l -1.328401,3.120001 -1.3284,3.12 -0.720756,2.166403 -0.720757,2.166402 z M 20,23.969237 20.320001,23.040001 20,22.110765 l -0.319999,-0.929236 -1.44,0.929236 -1.440001,0.929236 1.440001,0.929236 1.44,0.929235 z m 8.320001,0.990764 h 0.48 v -0.48 -0.48 h -0.48 -0.48 v 0.48 0.48 z m -2.88,-0.96 h 1.44 v -0.96 -0.96 h -1.44 -1.44 v 0.96 0.96 z m 6.24,0 h 0.96 v -0.96 -0.96 h -0.96 -0.96 v 0.96 0.96 z M 10.56,21.928421 h 2.4 l -1.2,-0.48421 -1.2,-0.484211 -1.1999997,0.484211 -1.2000001,0.48421 z m 17.760001,0.15158 h 0.48 v -0.48 -0.48 h -0.48 -0.48 v 0.48 0.48 z m -7.736657,-1.92 h 0.423344 l 0.552316,-0.893666 0.552316,-0.893665 -0.97566,-0.602992 -0.975659,-0.60299 v 1.496656 1.496657 z M 25.360001,20.084211 27.2,20.160001 26.620001,19.58 l -0.58,-0.579999 -1.26,0.50421 -1.26,0.50421 z m 4.936656,0.07579 h 0.423344 v -1.496657 -1.496656 l -0.97566,0.60299 -0.975659,0.602992 0.552316,0.893665 0.552316,0.893666 z m -19.865706,-0.96 h 1.682081 l 1.50093,-1.2 1.50093,-1.200001 0.493897,-2.088174 0.493896,-2.088175 -1.234237,0.473622 -1.234239,0.473621 L 12.91044,12.399812 12.186672,11.228729 13.95682,9.9343644 15.726969,8.6400003 14.823485,8.5427359 13.92,8.4454717 10.56,8.62148 7.2000002,8.7974884 l -0.96,0.9498277 -0.96,0.9498269 1.44,-0.308571 1.44,-0.308572 v 1.44 1.44 l -1.2,-0.24 -1.2,-0.24 v 1.226395 1.226394 l 1.4944358,2.133606 1.4944358,2.133606 z M 10.983344,17.28 H 9.6000003 v -0.85729 -0.857291 l 1.5774027,-0.605307 1.577403,-0.605306 0.438728,0.438727 0.438727,0.438728 -0.632786,1.02387 L 12.366688,17.28 Z M 10.000001,14.4 H 8.4800002 l 0.3800001,-1.14 0.38,-1.14 L 10.38,11.740001 11.52,11.36 V 12.880001 14.4 Z m 14.48,3.227161 1.44,-0.552579 v -0.974838 -0.974837 l -1.44,1.195093 -1.44,1.195094 v 0.332324 0.332323 z m 2.88,0.61284 h 0.48 v -0.48 V 17.28 h -0.48 -0.48 v 0.480001 0.48 z M 4.3200001,16.32 h 0.48 v -0.48 -0.48 h -0.48 -0.48 v 0.48 0.48 z m -0.8,-4.159999 0.64,-0.640001 -0.64,-0.64 -0.64,-0.639999 V 11.52 12.8 Z m 15.3600009,0 L 19.52,11.52 l -0.639999,-0.64 -0.64,-0.639999 V 11.52 12.8 Z m -7.719496,-5.6249835 2.339187,-0.2950173 0.02086,-0.96 0.02086,-0.9600001 L 11.994632,3.9988096 10.447846,3.6776189 9.0030768,4.2320293 7.5583067,4.7864396 8.1898124,5.8082371 8.821318,6.8300347 Z M 8.1600002,2.8800001 h 0.4800001 v -0.48 -0.48 h -0.4800001 -0.48 v 0.48 0.48 z m 5.7599998,0 h 0.48 v -0.48 -0.48 h -0.48 -0.48 v 0.48 0.48 z M 4.8000001,34.560001 h -0.96 v -2.88 -2.88 h 0.96 0.9600001 v 2.88 2.88 z m 12.4799999,0 h -0.96 v -2.4 -2.4 h 0.96 0.960001 v 2.4 2.4 z"
         id="path4458" />
      <path
         style="fill:#d4d4d4;fill-opacity:1;stroke-width:0.96"
         d="M 0.96000003,34.560001 H 0 v -4.651212 -4.651212 l 1.7555911,-1.588788 1.755591,-1.588788 h 1.6748003 1.6748002 l -0.3235385,-1.68 -0.3235384,-1.68 H 4.8152045 3.4167034 L 2.2025039,16.32 0.98830428,13.92 0.97415216,11.729166 0.96000003,9.5383325 2.2985919,6.3346311 3.6371839,3.1309298 5.8721981,1.5654648 8.1072122,0 H 11.04 13.972789 l 2.147547,1.5042009 2.147548,1.504201 1.426059,3.4130382 1.426058,3.4130383 V 12.597239 15.36 h 0.96 0.96 V 14.4 13.44 h 2.4 2.4 v 1.06271 1.062709 l 1.349802,-0.517968 1.349802,-0.517968 1.624241,1.794766 1.624241,1.794766 -0.6307,1.020493 -0.630699,1.020493 h 1.016657 1.016656 v 2.88 2.88 h -1.016656 -1.016657 l 0.630699,1.020492 0.6307,1.020494 -1.624241,1.794765 -1.624241,1.794766 -1.349802,-0.517968 -1.349802,-0.517968 v 1.062709 1.06271 h -2.4 -2.4 v -0.96 -0.96 H 22.169876 21.29975 l 0.502092,1.92 0.502091,1.92 h -1.071967 -1.071965 v -1.802453 -1.802454 l -1.483689,-1.231351 -1.483689,-1.231353 0.463073,-1.206746 0.463071,-1.206746 -1.31736,-0.505519 -1.31736,-0.505518 -0.385907,1.14607 -0.385906,1.14607 L 13.116117,26.042454 11.52,24.724907 v 4.917547 4.917547 H 10.56 9.6000003 V 30.183345 25.806688 L 8.5761267,26.439477 7.5522533,27.072266 6.31495,25.380152 5.0776467,23.688039 3.4988234,24.29389 1.9200001,24.899742 v 4.830129 4.83013 z M 25.680001,30.68947 25.920001,30.72 25.913901,30 25.907801,29.28 23.03387,27.644649 20.15994,26.0093 v 1.452006 1.452006 l 0.81857,-0.505904 0.818571,-0.505905 1.82143,1.378718 1.821429,1.378716 0.24,0.03053 z m 1.68,-1.889469 h 0.48 v -0.48 -0.48 h -0.48 -0.48 v 0.48 0.48 z m 2.936656,0 h 0.423344 v -1.496657 -1.496656 l -0.97566,0.602991 -0.975659,0.602991 0.552316,0.893665 0.552316,0.893666 z M 25.360001,26.804212 27.2,26.880001 26.620001,26.3 l -0.58,-0.579999 -1.26,0.50421 -1.26,0.504211 z m -2.8,-0.884211 h 0.48 v -0.48 -0.48 h -0.48 -0.48 v 0.48 0.48 z M 14.481312,24.429748 15.36,23.886688 v -1.413473 -1.413474 l 1.434486,-0.550464 1.434487,-0.550464 -0.568529,-0.919899 -0.56853,-0.919899 1.682832,-1.859507 L 20.457577,14.4 h -1.37832 -1.37832 l -1.328401,3.120001 -1.3284,3.12 -0.720756,2.166403 -0.720757,2.166402 z M 20,23.969237 20.320001,23.040001 20,22.110765 l -0.319999,-0.929236 -1.44,0.929236 -1.440001,0.929236 1.440001,0.929236 1.44,0.929235 z m 8.320001,0.990764 h 0.48 v -0.48 -0.48 h -0.48 -0.48 v 0.48 0.48 z m -2.88,-0.96 h 1.44 v -0.96 -0.96 h -1.44 -1.44 v 0.96 0.96 z m 6.24,0 h 0.96 v -0.96 -0.96 h -0.96 -0.96 v 0.96 0.96 z M 10.56,21.928421 h 2.4 l -1.2,-0.48421 -1.2,-0.484211 -1.1999997,0.484211 -1.2000001,0.48421 z m 17.760001,0.15158 h 0.48 v -0.48 -0.48 h -0.48 -0.48 v 0.48 0.48 z m -5.76,-0.96 h 0.48 v -0.48 -0.48 h -0.48 -0.48 v 0.48 0.48 z m 0.47393,-2.68465 2.873931,-1.635351 0.0061,-0.74213 0.0061,-0.742131 -2.236633,1.465498 -2.236633,1.465498 -0.643367,-0.643367 -0.643367,-0.643367 v 1.55535 1.555349 z m 2.32607,1.64886 L 27.2,20.160001 26.620001,19.58 l -0.58,-0.579999 -1.26,0.50421 -1.26,0.50421 z m 4.936656,0.07579 h 0.423344 v -1.496657 -1.496656 l -0.97566,0.60299 -0.975659,0.602992 0.552316,0.893665 0.552316,0.893666 z m -19.319768,-0.96 h 2.228018 l 1.124002,-1.35434 1.124001,-1.354339 0.539348,-3.323615 0.53935,-3.3236142 L 15.360579,9.1203581 14.189551,8.3966231 10.488858,8.2171513 6.7881642,8.0376796 6.3042116,9.2988399 5.820259,10.56 h 1.4098706 1.4098707 v 0.96 0.96 h -1.4400001 -1.44 v 1.226395 1.226394 l 1.4944358,2.133606 1.4944358,2.133606 z M 10.32,17.2653 9.6000003,17.28 v -0.85729 -0.857291 l 1.5774027,-0.605307 1.577403,-0.605306 0.554796,0.554795 0.554794,0.554796 -1.412197,0.893101 L 11.04,17.2506 Z M 10.11013,14.4 H 8.7002591 L 9.2528389,12.96 9.8054192,11.52 H 10.66271 11.52 v 1.44 1.44 z M 14.4,12.48 h -0.96 v -0.96 -0.96 h 0.96 0.96 v 0.96 0.96 z m 12.960001,5.760001 h 0.48 v -0.48 V 17.28 h -0.48 -0.48 v 0.480001 0.48 z M 4.3200001,16.32 h 0.48 v -0.48 -0.48 h -0.48 -0.48 v 0.48 0.48 z m -0.8,-4.159999 0.64,-0.640001 -0.64,-0.64 -0.64,-0.639999 V 11.52 12.8 Z m 15.3600009,0 L 19.52,11.52 l -0.639999,-0.64 -0.64,-0.639999 V 11.52 12.8 Z M 10.697169,6.5484938 13.92,6.2400002 l -0.24,-0.96 -0.24,-0.9600001 H 10.88 8.3200003 L 7.897169,5.5884938 7.4743378,6.8569874 Z M 6.2400002,3.8400001 h 0.48 v -0.48 -0.48 h -0.48 -0.48 v 0.48 0.48 z m 1.92,-0.96 h 0.4800001 v -0.48 -0.48 h -0.4800001 -0.48 v 0.48 0.48 z m 5.7599998,0 h 0.48 v -0.48 -0.48 h -0.48 -0.48 v 0.48 0.48 z M 4.8000001,34.560001 h -0.96 v -2.88 -2.88 h 0.96 0.9600001 v 2.88 2.88 z m 12.4799999,0 h -0.96 v -2.4 -2.4 h 0.96 0.960001 v 2.4 2.4 z"
         id="path4456" />
      <path
         style="fill:#c2c2c2;fill-opacity:1;stroke-width:0.96"
         d="M 0.90983083,34.560001 H 0 v -4.651212 -4.651212 l 1.7555911,-1.588788 1.755591,-1.588788 h 1.6748003 1.6748002 l -0.3235385,-1.68 -0.3235384,-1.68 H 4.8152045 3.4167034 L 2.2025039,16.32 0.98830428,13.92 0.97415216,11.729166 0.96000003,9.5383325 2.2985919,6.3346311 3.6371839,3.1309298 5.8721981,1.5654648 8.1072122,0 h 2.7295058 2.729506 l 1.853752,0.9920983 1.853754,0.9920983 1.923135,3.7696574 1.923136,3.7696572 V 11.961756 14.4 h -1.92 H 17.28 v 1.371429 1.371429 l -1.285429,1.285429 -1.28543,1.28543 -0.495891,2.59409 -0.495892,2.59409 0.821321,-0.507604 L 15.36,23.886688 v -1.413473 -1.413474 l 1.434486,-0.550464 1.434487,-0.550464 -0.557132,-0.901459 -0.557133,-0.901459 1.160193,-1.397947 L 19.435094,15.36 h 1.802454 1.802453 V 14.4 13.44 h 2.4 2.4 v 1.409871 1.40987 l 1.452225,-0.55727 1.452226,-0.557272 1.471463,1.221206 1.471463,1.221206 -0.493559,1.286195 -0.493559,1.286195 h 0.929871 0.92987 v 2.88 2.88 h -0.92987 -0.929871 l 0.493559,1.286194 0.493559,1.286195 -1.471463,1.221206 -1.471463,1.221206 -1.452226,-0.557272 -1.452225,-0.55727 v 1.409871 1.40987 h -2.4 -2.4 v -0.96 -0.96 h -1.802453 -1.802454 l -1.160193,-1.397947 -1.160193,-1.397948 0.557133,-0.901459 0.557132,-0.901459 -1.372463,-0.526664 -1.372463,-0.526663 -0.385907,1.14607 -0.385906,1.14607 L 13.116117,26.042454 11.52,24.724907 v 4.917547 4.917547 H 10.56 9.6000003 V 30.27013 25.98026 l -1.4400001,0.55258 -1.44,0.55258 v -1.609479 -1.609478 l -2.1600001,0.306769 -2.16,0.306769 -0.2901693,5.04 -0.2901692,5.04 z m 25.44217017,-4.864628 0.912,-0.895372 h 1.728 1.728 v -1.728 -1.728 l 1.152,-1.152 1.152,-1.152 -1.152,-1.152 -1.152,-1.152 v -1.728 V 17.28 h -1.863344 -1.863344 l -0.599675,-0.970295 -0.599676,-0.970296 -1.967191,1.377875 -1.967191,1.377875 -1.340677,-0.514466 -1.340676,-0.514466 0.579746,1.510794 0.579747,1.510795 2.350466,-1.540084 2.350466,-1.540084 2.33419,1.063528 2.334191,1.063528 0.588114,2.343234 0.588113,2.343232 -1.040611,1.9444 -1.04061,1.9444 -1.968024,0.624626 -1.968023,0.624627 -2.264136,-1.483519 -2.264136,-1.483519 -0.579747,1.510795 -0.579746,1.510795 1.357575,-0.520951 1.357577,-0.520951 1.773311,1.309436 1.773311,1.309437 z m -1.269547,-2.891161 1.562453,0.07579 1.317547,-1.68 1.317547,-1.68 -1.44,1.071098 -1.44,1.071099 -1.44,0.533112 -1.44,0.533112 1.562453,0.07579 z M 22.720001,25.600001 23.36,24.960001 22.720001,24.32 l -0.64,-0.639999 v 1.28 V 26.24 Z m -14.5600008,-0.64 h 0.4800001 v -0.48 -0.48 h -0.4800001 -0.48 v 0.48 0.48 z M 20,23.969237 20.320001,23.040001 20,22.110765 l -0.319999,-0.929236 -1.44,0.929236 -1.440001,0.929236 1.440001,0.929236 1.44,0.929235 z m 5.440001,0.03076 h 1.44 v -0.96 -0.96 h -1.44 -1.44 v 0.96 0.96 z M 10.56,21.928421 h 2.4 l -1.2,-0.48421 -1.2,-0.484211 -1.1999997,0.484211 -1.2000001,0.48421 z m 12.160001,-0.16842 0.639999,-0.64 -0.639999,-0.640001 -0.64,-0.639999 v 1.28 V 22.4 Z m 5.957547,0.225874 0.357546,0.09413 -1.195093,-1.44 -1.195094,-1.44 -1.562453,0.01415 -1.562453,0.01415 2.4,1.331722 2.4,1.331721 z M 10.976889,19.200001 h 2.228018 l 1.124002,-1.35434 1.124001,-1.354339 0.539348,-3.323615 0.53935,-3.3236142 L 15.231065,9.0403135 13.930522,8.2365341 10.355607,8.1468438 6.7806914,8.0571535 6.3004752,9.3085769 5.820259,10.56 h 1.4098706 1.4098707 v 0.96 0.96 h -1.4400001 -1.44 v 1.226395 1.226394 l 1.4944358,2.133606 1.4944358,2.133606 z M 10.32,17.2653 9.6000003,17.28 v -0.85729 -0.857291 l 1.5774027,-0.605307 1.577403,-0.605306 0.554796,0.554795 0.554794,0.554796 -1.412197,0.893101 L 11.04,17.2506 Z M 10.11013,14.4 H 8.7002591 L 9.2528389,12.96 9.8054192,11.52 H 10.66271 11.52 v 1.44 1.44 z M 14.4,12.48 h -0.96 v -0.96 -0.96 h 0.96 0.96 v 0.96 0.96 z M 4.4800002,16.960001 5.1200001,16.32 4.4800002,15.68 3.8400001,15.040001 V 16.32 17.6 Z m -0.9600001,-4.8 0.64,-0.640001 -0.64,-0.64 -0.64,-0.639999 V 11.52 12.8 Z m 15.3600009,0 L 19.52,11.52 l -0.639999,-0.64 -0.64,-0.639999 V 11.52 12.8 Z M 16.045445,7.6800002 h 0.572131 l -1.737576,-1.92 -1.737576,-1.9200001 -2.011212,0.0147 -2.0112117,0.0147 -1.413096,0.8936566 -1.4130959,0.8936567 1.6691071,0.6404964 1.6691075,0.6404966 2.406902,-0.4601083 2.4069,-0.4601084 0.513744,0.831255 0.513744,0.831255 z m -11.7254449,-0.96 h 0.48 v -0.48 -0.48 h -0.48 -0.48 v 0.48 0.48 z M 5.1666875,4.8000001 h 0.48 l 0.5933127,-0.96 0.5933126,-0.96 h -0.48 -0.48 l -0.5933126,0.96 -0.5933127,0.96 z M 15.84,3.8400001 h 0.48 v -0.48 -0.48 h -0.48 -0.48 v 0.48 0.48 z m -7.6799998,-0.96 h 0.4800001 v -0.48 -0.48 h -0.4800001 -0.48 v 0.48 0.48 z m 5.7599998,0 h 0.48 v -0.48 -0.48 h -0.48 -0.48 v 0.48 0.48 z M 4.8000001,34.560001 h -0.96 v -2.936656 -2.936657 l 0.96,0.593313 0.9600001,0.593313 v 2.343343 2.343344 z m 12.4799999,0 h -0.96 v -2.4 -2.4 h 0.96 0.960001 v 2.4 2.4 z m 3.840001,0 h -0.96 v -0.903344 -0.903343 l 0.96,-0.593313 0.96,-0.593313 v 1.496657 1.496656 z"
         id="path4454" />
      <path
         style="fill:#b0b0b0;fill-opacity:1;stroke-width:0.96"
         d="m 0.87317214,30.720001 -0.61663542,4.32 L 0.12826836,30.054437 0,25.068872 2.133606,23.574437 4.2672121,22.080001 h 1.706394 1.7063941 V 21.802985 21.525969 L 5.6622455,17.722985 3.6444907,13.92 4.2826121,16.727647 4.9207334,19.535294 3.4457705,18.311184 1.9708078,17.087073 1.3738337,13.904927 0.77685958,10.722783 2.0627316,7.1667664 3.3486037,3.6107504 5.6437663,1.8053752 7.9389289,0 h 2.8136471 2.813648 l 1.848679,0.98938304 1.84868,0.98938316 1.928209,3.9909332 1.928209,3.9909335 V 12.180316 14.4 h -1.92 H 17.28 v 1.322453 1.322454 l -1.335573,1.108427 -1.335572,1.108427 -0.414723,2.825688 -0.414724,2.825687 1.030296,0.372004 1.030296,0.372003 -0.6968,0.74823 -0.696801,0.748229 -1.463199,-1.214347 -1.4632,-1.214348 -0.156477,5.157547 -0.156476,5.157547 -0.563524,-5.28 -0.563523,-5.28 -0.7766561,1.2 -0.7766563,1.2 H 7.6233439 6.7200002 v -1.44 -1.44 H 4.8566565 2.9933127 l -0.7517526,1.2 -0.7517526,1.2 z m 7.28682806,-5.76 h 0.4800001 v -0.48 -0.48 h -0.4800001 -0.48 v 0.48 0.48 z M 11.04,21.89285 l 2.88,0.03557 -1.181729,-0.478121 -1.181729,-0.47812 -1.698271,0.442548 -1.6982708,0.442553 z m 0.09435,-2.692849 h 2.196776 L 14.825565,17.066395 16.32,14.932789 V 12.323051 9.7133129 L 15.12,8.9592929 13.92,8.205273 10.56,8.1773324 7.2000002,8.1493918 6.4947005,9.114696 5.7894006,10.08 l -0.0147,2.804409 -0.0147,2.80441 1.5887881,1.75559 1.5887881,1.755592 z M 10.001485,17.28 H 9.6000003 V 16.431966 15.583933 L 11.52,15.081841 13.44,14.57975 v 0.767416 0.767416 L 11.921485,16.697291 10.402968,17.28 Z M 10.11013,14.4 H 8.7002591 L 9.2528389,12.96 9.8054192,11.52 H 10.66271 11.52 v 1.44 1.44 z M 7.6800002,12.48 h -0.96 v -0.96 -0.96 h 0.96 0.9600001 v 0.96 0.96 z M 14.4,12.48 h -0.96 v -0.96 -0.96 h 0.96 0.96 v 0.96 0.96 z M 3.5157896,12.72 4.0000001,11.52 3.5157896,10.32 3.031579,9.1200003 V 11.52 v 2.4 z m 15.3600004,0 0.484211,-1.2 -0.484211,-1.2 -0.48421,-1.1999997 V 11.52 13.92 Z M 16.045445,7.6800002 h 0.572131 l -1.737576,-1.92 -1.737576,-1.9200001 -2.011212,0.0147 -2.0112117,0.0147 -1.413096,0.8936566 -1.4130959,0.8936567 1.6691071,0.6404964 1.6691075,0.6404966 2.406902,-0.4601083 2.4069,-0.4601084 0.513744,0.831255 0.513744,0.831255 z m -11.7254449,-0.96 h 0.48 v -0.48 -0.48 h -0.48 -0.48 v 0.48 0.48 z M 5.1666875,4.8000001 h 0.48 l 0.5933127,-0.96 0.5933126,-0.96 h -0.48 -0.48 l -0.5933126,0.96 -0.5933127,0.96 z M 15.84,3.8400001 h 0.48 v -0.48 -0.48 h -0.48 -0.48 v 0.48 0.48 z m -7.6799998,-0.96 h 0.4800001 v -0.48 -0.48 h -0.4800001 -0.48 v 0.48 0.48 z m 5.2799998,0 h 1.28 L 14.080001,2.24 13.44,1.6000001 12.8,2.24 12.160001,2.8800001 Z m -2.4,-0.96 h 0.48 V 1.44 0.96000003 H 11.04 10.56 V 1.44 1.9200001 Z M 4.8000001,34.560001 h -0.96 v -2.936656 -2.936657 l 0.96,0.593313 0.9600001,0.593313 v 2.343343 2.343344 z m 12.4799999,0 h -0.96 v -2.4 -2.4 h 0.96 0.960001 v 2.4 2.4 z m 3.840001,0 h -0.96 v -0.903344 -0.903343 l 0.96,-0.593313 0.96,-0.593313 v 1.496657 1.496656 z m 4.32,-1.92 h -2.4 v -1.40987 -1.409871 l -1.452226,0.55727 -1.452226,0.557272 -1.471463,-1.221206 -1.471463,-1.221206 0.493559,-1.286195 0.493559,-1.286194 H 17.249871 16.32 v -2.88 -2.88 h 0.929871 0.92987 l -0.493559,-1.286195 -0.493559,-1.286195 1.471463,-1.221206 1.471463,-1.221206 1.452226,0.557272 1.452226,0.55727 V 14.849871 13.44 h 2.4 2.4 v 1.409871 1.40987 l 1.452225,-0.55727 1.452226,-0.557272 1.471463,1.221206 1.471463,1.221206 -0.493559,1.286195 -0.493559,1.286195 h 0.929871 0.92987 v 2.88 2.88 h -0.92987 -0.929871 l 0.493559,1.286194 0.493559,1.286195 -1.471463,1.221206 -1.471463,1.221206 -1.452226,-0.557272 -1.452225,-0.55727 v 1.409871 1.40987 z m -0.536657,-1.92 h 0.903344 l 0.593313,-0.96 0.593312,-0.96 h 2.313215 2.313214 L 31.01389,27.221177 30.408039,25.642354 32.187505,24.341177 33.96697,23.040001 32.187505,21.738824 30.408039,20.437647 31.01389,18.858824 31.619742,17.28 h -2.177871 -2.17787 l -1.272,-1.2 -1.272,-1.2 -0.44,1.2 -0.440001,1.2 h -2.319999 -2.32 v 0.8 0.800001 l 0.590034,0.590033 0.590033,0.590034 2.160386,-1.415539 2.160387,-1.415539 2.447434,0.930513 2.447433,0.930512 0.626839,1.974993 0.626838,1.974993 -0.626838,1.974992 -0.626839,1.974993 -2.447433,0.930513 -2.447434,0.930512 -2.160387,-1.415539 -2.160386,-1.415539 -0.590033,0.590034 L 19.200001,27.2 v 0.800001 0.8 h 2.4 2.4 v 0.96 0.96 z m 0.17911,-3.915789 1.562453,0.07579 1.317547,-1.68 1.317547,-1.68 -1.44,1.071098 -1.44,1.071099 -1.44,0.533112 -1.44,0.533112 1.562453,0.07579 z M 22.50271,25.920001 h 0.217291 v -2.95476 -2.954761 l -0.801531,1.432255 -0.801531,1.432256 0.58424,1.522505 0.584241,1.522505 z M 20,23.969237 20.320001,23.040001 20,22.110765 l -0.319999,-0.929236 -1.44,0.929236 -1.440001,0.929236 1.440001,0.929236 1.44,0.929235 z m 6.136706,0.198058 0.96,-0.96 -0.696705,-1.127294 -0.696706,-1.127295 -0.96,0.96 -0.96,0.96 0.696706,1.127295 0.696705,1.127294 z m 2.540842,-2.18142 0.357546,0.09413 -1.195093,-1.44 -1.195094,-1.44 -1.562453,0.01415 -1.562453,0.01415 2.4,1.331722 2.4,1.331721 z"
         id="path4452" />
      <path
         style="fill:#9e9e9e;fill-opacity:1;stroke-width:0.96"
         d="m 0.87317214,30.720001 -0.61663542,4.32 L 0.12826836,30.054437 0,25.068872 2.133606,23.574437 4.2672121,22.080001 h 1.706394 1.7063941 V 21.802985 21.525969 L 5.6622455,17.722985 3.6444907,13.92 4.2369704,16.8 4.8294501,19.680001 3.333033,17.760001 1.8366159,15.84 1.2728165,13.594657 0.70901717,11.349314 1.9709834,7.5255191 3.2329497,3.7017238 5.5859393,1.8508619 7.9389289,0 h 2.8136471 2.813648 l 1.848679,0.98938304 1.84868,0.98938316 1.928209,3.9909332 1.928209,3.9909335 V 12.180316 14.4 h -1.92 H 17.28 v 1.322453 1.322454 l -1.335573,1.108427 -1.335572,1.108427 -0.414723,2.825688 -0.414724,2.825687 1.030296,0.372004 1.030296,0.372003 -0.6968,0.74823 -0.696801,0.748229 -1.463199,-1.214347 -1.4632,-1.214348 -0.156477,5.157547 -0.156476,5.157547 -0.563524,-5.28 -0.563523,-5.28 -0.7766561,1.2 -0.7766563,1.2 H 7.6233439 6.7200002 v -1.44 -1.44 H 4.8566565 2.9933127 l -0.7517526,1.2 -0.7517526,1.2 z m 7.28682806,-5.76 h 0.4800001 v -0.48 -0.48 h -0.4800001 -0.48 v 0.48 0.48 z m 2.8799998,-2.88 h 2.4 V 21.711915 21.343828 L 11.04,20.88504 8.6400003,20.426251 v 0.826875 0.826875 z m 0.09435,-2.88 h 2.196776 L 14.825561,17.066395 16.32,14.932789 V 12.383941 9.8350937 L 15.12,8.8884021 13.92,7.9417101 10.56,7.9560592 7.2000002,7.9704084 6.4947005,9.0252043 5.7894006,10.08 l -0.0147,2.804409 -0.0147,2.80441 1.5887881,1.75559 1.5887881,1.755592 H 11.134353 Z M 11.52,16.32 H 9.6000003 V 15.951966 15.583933 L 11.52,15.081841 13.44,14.57975 V 15.449876 16.32 Z M 10.56,14.4 H 9.6000003 V 12.96 11.52 H 10.56 11.52 v 1.44 1.44 z M 7.6800002,12.48 h -0.96 v -0.96 -0.96 h 0.96 0.9600001 v 0.96 0.96 z M 14.4,12.48 h -0.96 v -0.96 -0.96 h 0.96 0.96 v 0.96 0.96 z M 3.5157896,12.72 4.0000001,11.52 3.5157896,10.32 3.031579,9.1200003 V 11.52 v 2.4 z m 15.2608674,0.72 h 0.423344 L 19.1853,11.28 19.1706,9.1200003 18.288644,10.514164 17.406688,11.908328 17.880001,12.674164 18.353313,13.44 Z M 16.049871,7.5069619 16.259741,7.6800002 15.703982,6.2317137 15.148223,4.7834271 12.923397,4.2250313 10.69857,3.6666354 8.7092851,4.29801 6.7200002,4.9293844 V 5.7720928 6.6148011 L 11.28,6.9743624 15.84,7.3339236 Z M 17.870252,7.4097493 18.285194,6.9948061 17.666263,5.3818973 17.047332,3.7689886 14.29195,2.3441252 11.536568,0.91926181 9.1676616,1.5138195 6.7987548,2.1083773 5.7029885,3.4286949 4.6072222,4.7490125 7.6341604,3.2389769 10.661099,1.7289412 13.458626,2.887715 16.256153,4.0464887 16.85573,5.9355906 17.455308,7.8246924 Z M 4.3200001,6.7200002 h 0.48 v -0.48 -0.48 h -0.48 -0.48 v 0.48 0.48 z m 0.48,27.8400008 h -0.96 v -2.4 -2.4 h 0.96 0.9600001 v 2.4 2.4 z m 12.4799999,0 h -0.96 v -2.4 -2.4 h 0.96 0.960001 v 2.4 2.4 z m 3.840001,0 h -0.96 v -0.96 -0.96 h 0.96 0.96 v 0.96 0.96 z m 4.32,-1.92 h -2.4 v -1.504693 -1.504691 l -1.784465,0.566366 -1.784464,0.566368 -1.178182,-1.419622 -1.178182,-1.419623 0.619302,-1.002052 0.619303,-1.002053 H 17.336657 16.32 v -2.88 -2.88 h 1.016657 1.016656 l -0.619303,-1.002053 -0.619302,-1.002053 1.178182,-1.419622 1.178182,-1.419622 1.784464,0.566367 1.784465,0.566366 V 14.944693 13.44 h 2.4 2.4 v 1.409871 1.40987 l 1.452225,-0.55727 1.452226,-0.557272 1.417204,1.176175 1.417205,1.176176 -0.501953,0.812175 -0.501951,0.812176 1.223447,1.95905 1.223447,1.95905 -1.223447,1.95905 -1.223447,1.95905 0.501951,0.812175 0.501953,0.812175 -1.417205,1.176176 -1.417204,1.176175 -1.452226,-0.557272 -1.452225,-0.55727 v 1.409871 1.40987 z m -0.536657,-1.92 h 0.903344 l 0.593313,-0.96 0.593312,-0.96 h 2.313215 2.313214 L 31.01389,27.221177 30.408039,25.642354 32.187505,24.341177 33.96697,23.040001 32.187505,21.738824 30.408039,20.437647 31.01389,18.858824 31.619742,17.28 h -2.177871 -2.17787 l -1.272,-1.2 -1.272,-1.2 -0.44,1.2 -0.440001,1.2 h -2.422709 -2.422709 l 0.54192,1.412219 0.541919,1.412219 -1.467782,1.467781 -1.467781,1.467782 1.467781,1.467781 1.467782,1.467782 -0.541919,1.412218 -0.54192,1.412219 h 2.502709 2.50271 v 0.96 0.96 z m 2.138984,-2.64429 -1.920235,0.502152 -2.241046,-1.117283 -2.241046,-1.117283 v -3.303296 -3.303297 l 2.241046,-1.117283 2.241046,-1.117282 1.920235,0.502152 1.920235,0.502153 1.032814,2.266778 1.032813,2.266779 -1.032813,2.266779 -1.032814,2.266778 z m -2.607067,-1.19571 h 1.327708 l 1.518516,-0.58271 1.518516,-0.582709 V 23.040001 20.365419 L 27.281485,19.78271 25.762969,19.200001 h -1.327708 -1.327707 l -1.027553,1.92 -1.027554,1.92 1.027554,1.92 1.027553,1.92 z m 1.396457,-1.168634 -1.528282,0.29098 -1.269251,-1.529354 -1.269252,-1.529354 1.523094,-1.523094 1.523094,-1.523094 1.581771,0.606983 1.581772,0.606982 -0.307332,2.154486 -0.307331,2.154485 z m 0.304988,-1.544072 0.96,-0.96 -0.696705,-1.127294 -0.696706,-1.127295 -0.96,0.96 -0.96,0.96 0.696706,1.127295 0.696705,1.127294 z"
         id="path4450" />
      <path
         style="fill:#8c8c8c;fill-opacity:1;stroke-width:0.96"
         d="m 0.87317214,30.720001 -0.61663542,4.32 L 0.12826836,30.054437 0,25.068872 2.133606,23.574437 4.2672121,22.080001 h 1.706394 1.7063941 V 21.802985 21.525969 L 5.6622455,17.722985 3.6444907,13.92 4.2405354,16.56 4.8365801,19.200001 H 4.362943 3.889306 L 2.424653,16.367674 0.96000003,13.535348 V 11.529429 9.5235112 L 2.8831356,5.753854 4.8062713,1.9841966 6.660024,0.9920983 8.5137767,0 h 2.9867483 2.986748 l 2.356364,2.3563637 2.356364,2.3563637 v 1.9636365 1.9636364 h 0.96 0.96 V 11.52 14.4 h -1.92 H 17.28 v 1.322453 1.322454 l -1.335573,1.108427 -1.335572,1.108427 -0.414723,2.825688 -0.414724,2.825687 1.030296,0.372004 1.030296,0.372003 -0.6968,0.74823 -0.696801,0.748229 -1.463199,-1.214347 -1.4632,-1.214348 -0.156477,5.157547 -0.156476,5.157547 -0.563524,-5.28 -0.563523,-5.28 -0.7766561,1.2 -0.7766563,1.2 H 7.6233439 6.7200002 v -1.44 -1.44 H 4.8566565 2.9933127 l -0.7517526,1.2 -0.7517526,1.2 z m 7.28682806,-5.76 h 0.4800001 v -0.48 -0.48 h -0.4800001 -0.48 v 0.48 0.48 z m 2.8799998,-2.88 h 2.4 V 21.711915 21.343828 L 11.04,20.88504 8.6400003,20.426251 v 0.826875 0.826875 z m 0.01414,-2.88 h 2.276993 L 14.825569,17.066395 16.32,14.932789 V 12.383941 9.8350937 L 14.946997,8.6956024 13.573993,7.5561107 9.9069968,7.8580555 6.2400002,8.1600002 5.9505682,12.121997 5.6611363,16.083994 7.2191396,17.641997 8.7771431,19.200001 H 11.054136 Z M 11.52,16.32 H 9.6000003 V 15.951966 15.583933 L 11.52,15.081841 13.44,14.57975 V 15.449876 16.32 Z M 10.56,14.4 H 9.6000003 V 12.96 11.52 H 10.56 11.52 v 1.44 1.44 z M 7.6800002,12.48 h -0.96 v -0.96 -0.96 h 0.96 0.9600001 v 0.96 0.96 z M 14.4,12.48 h -0.96 v -0.96 -0.96 h 0.96 0.96 v 0.96 0.96 z M 3.4166564,13.44 H 3.8400001 V 11.328 9.2160003 L 2.7716471,10.284354 1.7032941,11.352706 2.3483034,12.396354 2.9933127,13.44 Z m 14.8233446,0 h 0.96 V 11.463344 9.4866876 L 18.240001,10.08 17.28,10.673313 V 12.056657 13.44 Z M 16.049871,7.5069619 16.259741,7.6800002 15.703982,6.2317137 15.148223,4.7834271 12.930043,4.2266994 10.711863,3.6699717 9.0354831,3.9949859 7.3591035,4.3200001 6.977924,5.4648837 6.5967445,6.6097672 11.218372,6.9718454 15.84,7.3339236 Z M 17.870252,7.4097493 18.285194,6.9948061 17.666263,5.3818973 17.047332,3.7689886 14.29195,2.3441252 11.536568,0.91926181 9.1676616,1.5138195 6.7987548,2.1083773 5.7029885,3.4286949 4.6072222,4.7490125 7.6341604,3.2389769 10.661099,1.7289412 13.458626,2.887715 16.256153,4.0464887 16.85573,5.9355906 17.455308,7.8246924 Z M 4.3200001,6.7200002 h 0.48 v -0.48 -0.48 h -0.48 -0.48 v 0.48 0.48 z m 0.1496993,27.1382718 -0.4781204,1.181729 0.035572,-2.88 0.035572,-2.88 0.4425485,1.698271 0.4425485,1.69827 z M 17.28,34.560001 h -0.96 v -2.4 -2.4 h 0.96 0.960001 v 2.4 2.4 z m 4.480001,-0.32 -0.64,0.64 v -1.28 -1.28 l 0.64,0.64 0.639999,0.64 z m 3.230129,-1.6 h -1.950129 v -1.504693 -1.504691 l -1.784465,0.566366 -1.784464,0.566368 -1.112099,-1.339997 -1.112098,-1.339997 0.599272,-1.561678 0.599272,-1.561678 H 17.38271 16.32 v -1.92 -1.92 h 1.06271 1.062709 l -0.599272,-1.561679 -0.599272,-1.561678 1.112098,-1.339996 1.112099,-1.339997 1.784464,0.566367 1.784465,0.566366 V 14.944693 13.44 h 1.950129 1.95013 l 0.529319,1.379384 0.529319,1.379383 1.372777,-0.526784 1.372777,-0.526784 1.328669,1.102698 1.32867,1.102697 -0.492861,1.884704 -0.492862,1.884703 h 1.071967 1.071966 v 1.92 1.92 h -1.071966 -1.071967 l 0.492862,1.884702 0.492861,1.884704 -1.32867,1.102698 -1.328669,1.102697 -1.372777,-0.526784 -1.372777,-0.526784 -0.529319,1.379383 -0.529319,1.379384 z m 0.449871,-1.92 h 1.44 v -0.96 -0.96 h 2.36987 2.369871 L 31.01389,27.221177 30.408039,25.642354 32.187505,24.341177 33.96697,23.040001 32.187505,21.738824 30.408039,20.437647 31.01389,18.858824 31.619742,17.28 h -2.369871 -2.36987 v -0.96 -0.96 h -1.44 -1.44 v 0.96 0.96 h -2.50271 -2.502709 l 0.54192,1.412219 0.541919,1.412219 -1.467782,1.467781 -1.467781,1.467782 1.467781,1.467781 1.467782,1.467782 -0.541919,1.412218 -0.54192,1.412219 h 2.502709 2.50271 v 0.96 0.96 z m -0.569153,-2.88 h -2.83201 l -1.093513,-2.4 -1.093513,-2.4 1.093513,-2.4 1.093513,-2.4 h 2.83201 2.83201 l 1.508571,1.508571 1.508572,1.508571 v 1.782858 1.782857 l -1.508572,1.508571 -1.508571,1.508572 z m 0.87372,-1.142466 2.575433,-0.297534 v -3.36 -3.36 l -2.575433,-0.297535 -2.575431,-0.297535 -1.058344,1.977535 -1.058346,1.977535 1.058346,1.977534 1.058344,1.977535 z m 0.08715,-0.986168 -1.528282,0.29098 -1.269251,-1.529354 -1.269252,-1.529354 1.523094,-1.523094 1.523094,-1.523094 1.581771,0.606983 1.581772,0.606982 -0.307332,2.154486 -0.30733,2.154485 z m 0.304988,-1.544072 0.96,-0.96 -0.696704,-1.127294 -0.696706,-1.127295 -0.96,0.96 -0.96,0.96 0.696706,1.127295 0.696705,1.127294 0.96,-0.96 z"
         id="path4448" />
      <path
         style="fill:#7a7a7a;fill-opacity:1;stroke-width:0.96"
         d="m 0.71372364,30.738835 -0.37828577,4.301166 -0.16771893,-4.56 L 0,25.920001 l 1.9200001,-1.92 1.92,-1.92 h 1.9200001 1.92 V 20.696657 19.313313 L 6.6527258,18.678423 5.6254513,18.043532 4.7106455,15.981767 3.7958398,13.92 4.3162099,16.56 4.8365801,19.200001 H 4.362943 3.889306 L 2.424653,16.367674 0.96000003,13.535348 V 11.74799 9.9606329 L 2.8882091,5.9696994 4.8164183,1.9787662 6.6650975,0.98938304 8.5137767,0 h 2.0307853 2.030786 l 2.864594,1.4813394 2.864595,1.4813392 0.567731,2.8386609 0.567733,2.8386608 h 0.84 0.84 V 11.52 14.4 h -1.701693 -1.701692 l -1.572665,3.120001 -1.572665,3.12 -0.463731,2.113971 -0.463731,2.11397 1.098088,0.394601 1.098088,0.3946 -0.6968,0.74823 -0.696801,0.748229 -1.463199,-1.214347 -1.4632,-1.214348 -0.156477,5.157547 -0.156476,5.157547 -0.563524,-5.28 -0.563523,-5.28 -0.7766561,1.2 -0.7766563,1.2 H 7.6233439 6.7200002 v -1.44 -1.44 H 4.9175471 3.1150939 L 2.1035517,25.218835 1.0920094,26.437668 Z M 8.1600002,24.960001 h 0.4800001 v -0.48 -0.48 h -0.4800001 -0.48 v 0.48 0.48 z m 2.8799998,-2.88 h 2.4 v -0.72 -0.72 h -2.4 -2.3999997 v 0.72 0.72 z m -0.247019,-2.88 h 2.015838 L 14.564409,17.611212 16.32,16.022424 V 12.928759 9.8350937 L 14.946997,8.6956024 13.573993,7.5561107 9.9069968,7.8580555 6.2400002,8.1600002 5.9505682,12.121997 5.6611363,16.083994 7.2191396,17.641997 8.7771431,19.200001 Z M 11.52,16.32 H 9.6000003 V 15.951966 15.583933 L 11.52,15.081841 13.44,14.57975 V 15.449876 16.32 Z M 10.56,14.4 H 9.6000003 V 12.96 11.52 H 10.56 11.52 v 1.44 1.44 z M 7.6800002,12.48 h -0.96 v -0.96 -0.96 h 0.96 0.9600001 v 0.96 0.96 z M 14.4,12.48 h -0.96 v -0.96 -0.96 h 0.96 0.96 v 0.96 0.96 z M 3.4166564,13.44 H 3.8400001 V 11.328 9.2160003 L 2.7716471,10.284354 1.7032941,11.352706 2.3483034,12.396354 2.9933127,13.44 Z m 14.8233446,0 h 0.96 V 11.463344 9.4866876 L 18.240001,10.08 17.28,10.673313 V 12.056657 13.44 Z M 18.018507,7.8644799 18.420508,6.6584772 16.922784,4.3726603 15.425059,2.0868434 12.397483,1.421876 9.3699056,0.75690866 6.8449529,2.6401939 4.3200001,4.5234791 4.0810502,6.3417396 3.8421003,8.1600002 4.7136367,6.1526756 5.585173,4.145351 8.5469221,2.9185544 11.508671,1.6917577 l 2.521107,1.6518931 2.521108,1.6518931 0.53281,2.0374693 0.53281,2.0374694 z M 16.08,7.5024172 16.32,7.6800002 V 7.2685717 6.857143 L 14.811429,5.3485716 13.302858,3.8400001 H 10.608976 7.9150941 L 6.7637606,5.227272 5.6124272,6.6145439 10.726214,6.969689 15.84,7.3248341 Z M 4.4696994,33.858272 3.991579,35.040001 l 0.035572,-2.88 0.035572,-2.88 0.4425485,1.698271 0.4425485,1.69827 z M 17.28,34.560001 h -0.96 v -1.92 -1.92 h 0.96 0.960001 v 1.92 1.92 z m 4.480001,-0.32 -0.64,0.64 v -1.28 -1.28 l 0.64,0.64 0.639999,0.64 z m 3.152297,-1.6 h -1.872297 v -1.54271 -1.542709 l -1.561678,0.599272 -1.561679,0.599273 -1.219217,-1.011861 -1.219216,-1.011859 0.492861,-1.884704 0.492861,-1.884702 H 17.391966 16.32 v -1.92 -1.92 h 1.071966 1.071967 l -0.492861,-1.884703 -0.492861,-1.884704 1.219216,-1.011859 1.219217,-1.01186 1.561679,0.599272 1.561678,0.599272 V 14.98271 13.44 h 1.872297 1.872298 l 0.767702,1.2 0.767703,1.2 h 1.92 1.92 l 0.303765,2.640001 0.303766,2.64 h 0.896234 0.896235 v 1.92 1.92 h -0.896235 -0.896234 l -0.303766,2.64 -0.303765,2.64 h -1.92 -1.92 l -0.767703,1.2 -0.767702,1.2 z m 0.527703,-1.92 h 1.44 v -0.96 -0.96 h 2.464692 2.464692 l -0.58677,-1.84875 -0.586771,-1.848749 1.722079,-1.031251 1.722078,-1.03125 -1.722078,-1.031251 -1.722079,-1.031251 0.586771,-1.848749 0.58677,-1.84875 h -2.464692 -2.464692 v -0.96 -0.96 h -1.44 -1.44 v 0.96 0.96 h -2.50271 -2.502709 l 0.54192,1.412219 0.541919,1.412219 -1.467782,1.467781 -1.467781,1.467782 1.467781,1.467781 1.467782,1.467782 -0.541919,1.412218 -0.54192,1.412219 h 2.502709 2.50271 v 0.96 0.96 z m -0.569153,-2.88 h -2.83201 l -1.093513,-2.4 -1.093513,-2.4 1.093513,-2.4 1.093513,-2.4 h 2.83201 2.83201 l 1.508571,1.508571 1.508572,1.508571 v 1.782858 1.782857 l -1.508572,1.508571 -1.508571,1.508572 z m 0.569153,-0.96 h 2.332447 l 1.027553,-1.92 1.027553,-1.92 -1.027553,-1.92 -1.027553,-1.92 h -2.332447 -2.332447 l -1.027553,1.92 -1.027554,1.92 1.027554,1.92 1.027553,1.92 z m 0.391717,-1.168634 -1.528282,0.29098 -1.269251,-1.529354 -1.269252,-1.529354 1.523094,-1.523094 1.523094,-1.523094 1.581771,0.606983 1.581772,0.606982 -0.307332,2.154486 -0.307331,2.154485 z m 0.304988,-1.544072 0.96,-0.96 -0.696705,-1.127294 -0.696706,-1.127295 -0.96,0.96 -0.96,0.96 0.696706,1.127295 0.696705,1.127294 z"
         id="path4446" />
      <path
         style="fill:#686868;fill-opacity:1;stroke-width:0.96"
         d="M 0.71372364,30.738835 0.33543787,35.040001 0.16771894,30.89689 0,26.753777 0.95201566,24.97492 1.9040313,23.196062 4.7920158,22.561755 7.6800002,21.927446 V 20.62038 19.313313 L 6.6527258,18.678423 5.6254513,18.043532 4.7106455,15.981767 3.7958398,13.92 4.3162099,16.56 4.8365801,19.200001 H 4.362943 3.889306 L 2.424653,16.367674 0.96000003,13.535348 V 11.74799 9.9606329 L 2.8376615,6.0743212 4.7153229,2.1880096 7.6190268,0.98525609 l 2.9037042,-1.20275358 2.392065,0.60037004 2.392065,0.60037004 1.94657,2.08939781 1.94657,2.0893977 v 1.6823248 1.6823247 l 0.96,0.5933127 0.96,0.5933126 v 1.9532191 1.953218 l -1.73609,0.453997 -1.73609,0.453999 -1.538268,3.056127 -1.538267,3.056128 -0.463731,2.113971 -0.463731,2.11397 1.098088,0.394601 1.098088,0.3946 -0.6968,0.74823 -0.696801,0.748229 -1.463199,-1.214347 -1.4632,-1.214348 -0.156477,5.157547 -0.156476,5.157547 -0.563524,-5.28 -0.563523,-5.28 -0.7766561,1.2 -0.7766563,1.2 H 7.6233439 6.7200002 v -1.44 -1.44 H 4.9175471 3.1150939 L 2.1035517,25.218835 1.0920094,26.437668 Z M 8.1600002,24.960001 h 0.4800001 v -0.48 -0.48 h -0.4800001 -0.48 v 0.48 0.48 z m 2.8799998,-2.88 h 2.4 v -0.84 -0.84 h -2.4 -2.3999997 v 0.84 0.84 z m -0.514795,-2.88 h 2.777653 L 14.811429,17.691429 16.32,16.182858 V 13.008976 9.8350937 L 14.946997,8.6956024 13.573993,7.5561107 9.9069968,7.8580555 6.2400002,8.1600002 5.9444725,11.719358 5.6489448,15.278715 6.6982489,17.239358 7.747553,19.200001 Z M 11.52,16.32 H 9.6000003 V 15.951966 15.583933 L 11.52,15.081841 13.44,14.57975 V 15.449876 16.32 Z M 10.4,14.4 H 9.6000003 V 13.496657 12.593313 L 10.4,12.098886 11.200001,11.604458 V 13.00223 14.4 Z M 7.6800002,12.48 h -0.96 v -0.96 -0.96 h 0.96 0.9600001 v 0.96 0.96 z M 14.4,12.48 h -0.96 v -0.96 -0.96 h 0.96 0.96 v 0.96 0.96 z M 3.3600001,13.44 h 1.44 V 13.038516 12.637032 L 4.2172909,11.118516 3.6345816,9.6000003 H 2.7772908 1.9200001 V 11.52 13.44 Z m 14.8800009,0 h 0.96 V 11.463344 9.4866876 L 18.240001,10.08 17.28,10.673313 V 12.056657 13.44 Z M 17.987643,8.6400003 h 0.252358 V 7.1563639 5.6727274 L 15.883637,3.3163638 13.527273,0.96000003 H 11.213101 8.898929 L 6.3694645,2.949677 3.8400001,4.939354 3.9157896,6.5496771 3.991579,8.1600002 4.4072105,7.1657377 4.8228418,6.1714751 10.571421,6.7210921 16.32,7.2707091 V 6.7073547 6.1440002 l -1.152,-1.1520001 -1.152,-1.152 H 11.04 8.0640002 l -1.152,1.152 -1.152,1.1520001 V 5.0859122 4.0278244 L 8.520145,3.0656327 11.28029,2.1034411 13.560145,3.2287631 15.84,4.3540851 16.787643,6.4970427 17.735287,8.6400003 Z M 4.4696994,33.858272 3.991579,35.040001 l 0.035572,-2.88 0.035572,-2.88 0.4425485,1.698271 0.4425485,1.69827 z M 17.28,34.560001 h -0.96 v -1.92 -1.92 h 0.96 0.960001 v 1.92 1.92 z m 4.480001,-0.32 -0.64,0.64 v -1.28 -1.28 l 0.64,0.64 0.639999,0.64 z m 3.68,-1.6 h -1.50026 l -0.57375,-1.495172 -0.573752,-1.495172 -1.437798,0.551735 -1.437797,0.551735 -1.219217,-1.011861 -1.219216,-1.011859 0.492861,-1.884704 0.492861,-1.884702 H 17.391966 16.32 v -1.92 -1.92 h 1.071966 1.071967 l -0.492861,-1.884703 -0.492861,-1.884704 1.219216,-1.011859 1.219217,-1.01186 1.437797,0.551735 1.437798,0.551734 0.573752,-1.495171 0.57375,-1.495173 h 1.50026 1.500259 l 0.573751,1.495173 0.573751,1.495171 1.245931,-0.478108 1.245931,-0.478109 1.112835,1.340884 1.112835,1.340884 -0.623493,1.008833 -0.623494,1.008834 1.500847,0.575929 1.500847,0.575928 v 1.714582 1.714581 l -1.500847,0.575929 -1.500847,0.575929 0.623494,1.008833 0.623493,1.008833 -1.112835,1.340884 -1.112835,1.340884 -1.245931,-0.478109 -1.245931,-0.478108 -0.573751,1.495172 -0.573751,1.495172 z m 0,-1.92 h 1.44 v -1.020344 -1.020344 l 2.154642,0.300344 2.154642,0.300344 0.119342,-2.265462 0.119342,-2.265462 1.326017,-0.854538 1.326015,-0.854538 L 32.753986,22.185462 31.427969,21.330924 31.308627,19.065462 31.189285,16.8 29.034643,17.100344 26.880001,17.400688 V 16.380344 15.36 h -1.44 -1.44 v 1.020344 1.020344 L 21.845358,17.100344 19.690716,16.8 19.571375,19.065462 19.452032,21.330924 18.126016,22.185462 16.8,23.040001 l 1.326016,0.854538 1.326016,0.854538 0.119343,2.265462 0.119341,2.265462 2.154642,-0.300344 2.154643,-0.300344 v 1.020344 1.020344 z m -0.24702,-2.88 h -2.015838 l -1.508571,-1.508572 -1.508571,-1.508571 v -1.782857 -1.782858 l 1.508571,-1.508571 1.508571,-1.508571 h 2.182641 2.182641 l 1.588787,1.755591 1.588789,1.75559 v 1.455622 1.455621 l -1.755592,1.588787 -1.75559,1.588789 z m 0.405243,-0.96 h 2.174224 l 1.027553,-1.92 1.027553,-1.92 -1.027553,-1.92 -1.027553,-1.92 h -2.174224 -2.174223 l -1.152,1.152 -1.152,1.152 v 1.536 1.536 l 1.152,1.152 1.152,1.152 z m 0.07887,-1.142197 -1.682903,0.324097 -0.579807,-1.51095 -0.579806,-1.51095 0.579806,-1.510951 0.579807,-1.51095 1.682903,0.324097 1.682903,0.324098 v 2.373706 2.373705 z m -0.477097,-1.017803 1.2,-0.400001 v -1.279999 -1.28 l -1.2,-0.4 -1.2,-0.400001 v 2.080001 2.08 z"
         id="path4444" />
      <path
         style="fill:#575757;fill-opacity:1;stroke-width:0.96"
         d="M 0.70489817,30.498112 0.34607663,35.040001 0.17303832,30.89689 0,26.753777 0.99377648,24.896889 1.9875529,23.040001 h 1.6198296 1.6198297 l -2.0817463,1.458111 -2.0817462,1.458112 z m 3.76480123,3.36016 -0.4781204,1.181729 0.035572,-2.88 0.035572,-2.88 0.4425485,1.698271 0.4425485,1.69827 z M 11.270311,29.926214 10.915167,35.040001 10.737583,29.882454 10.56,24.724907 l -1.4631991,1.214348 -1.4631993,1.214347 -0.3655341,-0.3768 -0.3655341,-0.376801 -0.2426771,-1.44 -0.2426772,-1.44 L 7.1650195,21.804245 7.91286,20.08849 6.35643,18.368654 4.8000001,16.648819 V 15.524409 14.4 h -1.92 -1.92000007 V 11.52 8.6400003 h 0.84000007 0.84 L 3.2077322,5.8013395 3.7754644,2.9626786 6.6400588,1.4813394 9.5046532,0 h 1.9525288 1.952528 l 2.8026,2.6400001 2.8026,2.6400001 0.584417,2.6144261 0.584416,2.6144257 L 18.731872,9.9517174 17.28,9.3945818 V 11.52 13.645419 l 1.440001,-0.55258 1.44,-0.552579 V 13.47013 14.4 h -1.221693 -1.221692 l -1.565519,3.120001 -1.565519,3.12 -0.605303,1.843248 -0.605304,1.843249 1.204713,0.744553 1.204712,0.744554 -0.668998,0.668999 -0.668999,0.668998 -1.410471,-1.170587 -1.410472,-1.170587 z m -2.9608697,-5.575159 0.810559,-1.088945 1.8404487,-0.351055 1.840448,-0.351054 0.399552,-1.2 0.399552,-1.2 H 11.12 8.6400003 v 0.881484 0.881484 l -0.570559,1.758516 -0.570559,1.758516 z m 2.2157637,-5.151054 h 2.777653 L 14.811429,17.691429 16.32,16.182858 V 13.083429 9.9840003 l -1.152,-1.152 -1.152,-1.1520001 H 10.337871 6.6597414 L 6.0961832,9.1486094 5.5326249,10.617218 3.7263125,10.043917 1.9200001,9.470616 V 11.455308 13.44 h 1.36 1.36 l 0.4842106,-1.2 0.4842106,-1.2 0.075789,2.223112 0.07579,2.223112 0.9937764,1.856888 0.9937764,1.856889 z M 10.960001,16.244211 9.1200003,16.168421 10.38,15.664211 11.64,15.160001 12.220001,15.74 12.8,16.32 Z M 10.4,14.4 H 9.6000003 V 13.496657 12.593313 L 10.4,12.098886 11.200001,11.604458 V 13.00223 14.4 Z M 7.6800002,12.48 h -0.96 v -0.96 -0.96 h 0.96 0.9600001 v 0.96 0.96 z M 14.4,12.48 h -0.96 v -0.96 -0.96 h 0.96 0.96 v 0.96 0.96 z m 3.360001,-3.8399997 h 0.48 V 7.1563639 5.6727274 L 15.883637,3.3163638 13.527273,0.96000003 H 11.213101 8.898929 L 6.3694645,2.949677 3.8400001,4.939354 3.9157896,6.5496771 3.991579,8.1600002 4.4072105,7.1657377 4.8228418,6.1714751 10.571421,6.7210921 16.32,7.2707091 V 6.7073547 6.1440002 l -1.152,-1.1520001 -1.152,-1.152 H 11.04 8.0640002 l -1.152,1.152 -1.152,1.1520001 V 5.0947094 4.0454186 l 1.518516,-0.5827093 1.518516,-0.5827092 h 2.4858928 2.485894 L 15.524409,4.4687882 17.28,6.0575763 v 1.291212 1.291212 z m 4,25.6000007 -0.64,0.64 v -1.28 -1.28 l 0.64,0.64 0.639999,0.64 z m 2.20987,-2.56 h -0.92987 v -0.948682 -0.948682 l -2.16,0.228682 -2.16,0.228682 -0.303766,-2.64 -0.303766,-2.64 H 17.216235 16.32 v -1.92 -1.92 h 0.896235 0.896234 l 0.303766,-2.64 0.303766,-2.640001 2.16,0.228682 2.16,0.228683 V 15.348682 14.4 h 0.92987 0.929871 L 24.331689,15.880322 23.763636,17.360645 21.727177,17.080322 19.690716,16.8 19.571375,19.065462 19.452032,21.330924 18.126016,22.185462 16.8,23.040001 l 1.326016,0.854538 1.326016,0.854538 0.119343,2.265462 0.119341,2.265462 2.036461,-0.280322 2.036459,-0.280323 0.568053,1.480323 0.568053,1.480322 z m 2.940259,0 h -0.92987 l 0.568052,-1.480322 0.568053,-1.480323 2.03646,0.280323 2.03646,0.280322 0.119342,-2.265462 0.119342,-2.265462 1.326017,-0.854538 1.326015,-0.854538 L 32.753986,22.185462 31.427969,21.330924 31.308627,19.065462 31.189285,16.8 29.152825,17.080322 27.116365,17.360645 26.548312,15.880322 25.98026,14.4 h 0.92987 0.929871 v 1.06271 1.062709 l 1.369811,-0.525646 1.369812,-0.525646 1.112835,1.340884 1.112835,1.340884 -0.623493,1.008833 -0.623494,1.008834 1.500847,0.575929 1.500847,0.575928 v 1.714582 1.714581 l -1.500847,0.575929 -1.500847,0.575929 0.623494,1.008833 0.623493,1.008833 -1.112835,1.340884 -1.112835,1.340884 -1.369812,-0.525646 -1.369811,-0.525646 v 1.062709 1.06271 z m -1.423688,-3.84 h -2.309299 l -1.508571,-1.508572 -1.508571,-1.508571 v -1.782857 -1.782858 l 1.508571,-1.508571 1.508571,-1.508571 h 2.309299 2.309297 l 1.572541,2.4 1.57254,2.4 -1.57254,2.4 -1.572541,2.4 z m 0.111782,-0.96 h 2.174224 l 1.027553,-1.92 1.027553,-1.92 -1.027553,-1.92 -1.027553,-1.92 h -2.174224 -2.174223 l -1.152,1.152 -1.152,1.152 v 1.536 1.536 l 1.152,1.152 1.152,1.152 z m 0.07887,-1.142197 -1.682903,0.324097 -0.579807,-1.51095 -0.579806,-1.51095 0.579806,-1.510951 0.579807,-1.51095 1.682903,0.324097 1.682903,0.324098 v 2.373706 2.373705 z m -0.477097,-1.017803 1.2,-0.400001 v -1.279999 -1.28 l -1.2,-0.4 -1.2,-0.400001 v 2.080001 2.08 z m -20.6320036,-5.927998 -0.4079973,0.407998 -0.64,-0.640001 -0.64,-0.639999 0.029192,-1.520001 0.029192,-1.52 1.0188049,1.752003 1.0188049,1.752003 z"
         id="path4442" />
      <path
         style="fill:#454545;fill-opacity:1;stroke-width:0.96"
         d="M 0.70489817,30.498112 0.34607663,35.040001 0.17303832,30.89689 0,26.753777 0.99377648,24.896889 1.9875529,23.040001 h 1.6198296 1.6198297 l -2.0817463,1.458111 -2.0817462,1.458112 z m 3.76480123,3.36016 -0.4781204,1.181729 0.035572,-2.88 0.035572,-2.88 0.4425485,1.698271 0.4425485,1.69827 z m 6.9667776,-4.098271 -0.563523,5.28 -0.156477,-5.232 -0.156477,-5.232 -1.1519997,1.152 -1.1520001,1.152 H 7.5999664 6.9439324 l -0.5020913,-1.92 -0.5020913,-1.92 H 6.809875 7.6800002 v -1.728 -1.728 L 6.527455,18.431455 5.3749098,17.27891 7.9360737,18.479455 10.497237,19.680001 9.5686189,20 8.6400003,20.320001 V 21.68 23.040001 l 1.6799997,0.03053 1.68,0.03053 1.737448,1.317308 1.737447,1.317308 -0.951113,0.58782 -0.951112,0.58782 L 12.786334,25.69566 12,24.480001 Z m -3.1164767,-5.12 0.6399999,-0.64 L 8.3200003,23.36 7.6800002,22.720001 v 1.28 V 25.28 Z m 13.4400007,9.6 -0.64,0.64 v -1.28 -1.28 l 0.64,0.64 0.639999,0.64 z m 1.76,-2.56 h -0.48 v -1.06271 -1.062709 l -1.32302,0.50769 -1.323019,0.50769 -1.076981,-1.07698 -1.07698,-1.076981 v -1.728 -1.728 H 17.28 16.32 v -1.92 -1.92 h 0.96 0.960001 v -1.802453 -1.802454 l 1.288328,-1.069217 1.28833,-1.069219 0.683868,0.68387 0.68387,0.683868 0.893101,-1.412197 L 23.9706,13.92 23.9853,15.660344 24,17.400688 21.845358,17.100344 19.690716,16.8 19.571375,19.065462 19.452032,21.330924 18.126016,22.185462 16.8,23.040001 l 1.326016,0.854538 1.326016,0.854538 0.119343,2.265462 0.119341,2.265462 2.154642,-0.300344 2.154643,-0.300344 v 1.500344 1.500344 z m 3.390129,0 h -0.92987 l 0.568052,-1.480322 0.568053,-1.480323 2.03646,0.280323 2.03646,0.280322 0.119342,-2.265462 0.119342,-2.265462 1.326017,-0.854538 1.326015,-0.854538 L 32.753986,22.185462 31.427969,21.330924 31.308627,19.065462 31.189285,16.8 29.152825,17.080322 27.116365,17.360645 26.548312,15.880322 25.98026,14.4 h 0.92987 0.929871 v 1.06271 1.062709 l 1.369811,-0.525646 1.369812,-0.525646 1.112835,1.340884 1.112835,1.340884 -0.623493,1.008833 -0.623494,1.008834 1.500847,0.575929 1.500847,0.575928 v 1.714582 1.714581 l -1.500847,0.575929 -1.500847,0.575929 0.623494,1.008833 0.623493,1.008833 -1.112835,1.340884 -1.112835,1.340884 -1.369812,-0.525646 -1.369811,-0.525646 v 1.062709 1.06271 z m -1.343472,-3.84 h -2.229081 l -1.588788,-1.755592 -1.588788,-1.75559 v -1.455621 -1.455621 l 1.755591,-1.588788 1.75559,-1.588788 h 2.062279 2.062278 l 1.572541,2.4 1.57254,2.4 -1.57254,2.4 -1.572541,2.4 z m 0.03157,-0.96 h 2.174224 l 1.027554,-1.92 1.027553,-1.92 -1.027553,-1.92 -1.027553,-1.92 h -2.174224 -2.174223 l -1.152,1.152 -1.152,1.152 v 1.536 1.536 l 1.152,1.152 1.152,1.152 z m 0.07887,-1.142197 -1.682903,0.324097 -0.579806,-1.51095 -0.579806,-1.51095 0.579806,-1.510951 0.579807,-1.51095 1.682903,0.324097 1.682903,0.324098 v 2.373706 2.373705 z m -0.237096,-0.777803 h 1.44 v -1.92 -1.92 h -1.44 -1.44 v 1.92 1.92 z m -11.151132,-3.36 -0.657483,1.92 L 13.535693,21.92 13.44,20.320001 12.24,19.83579 11.04,19.35158 12.686224,19.27579 14.332447,19.2 15.326224,17.343111 16.32,15.486224 V 12.735112 9.9840003 l -1.152,-1.152 -1.152,-1.1520001 H 10.337871 6.6597414 L 6.0961832,9.1486094 5.5326249,10.617218 3.7263125,10.043917 1.9200001,9.470616 V 11.455308 13.44 h 1.36 1.36 l 0.4842106,-1.2 0.4842106,-1.2 v 2.88 2.88 L 5.1242107,15.6 4.6400001,14.4 h -1.84 -1.84000007 V 11.52 8.6400003 h 1.92000007 1.92 V 7.3487883 6.0575763 L 6.6644508,4.3702717 8.5289014,2.6829671 9.7844508,3.1856941 11.04,3.6884212 9.4775472,3.7642106 7.9150941,3.8400001 6.7957485,5.188729 5.6764029,6.537458 l 5.3232521,0.3312711 5.323253,0.3312711 -0.317264,-0.96 -0.317264,-0.96 -2.32419,-1.185848 -2.32419,-1.1858479 1.531212,-0.014152 1.531212,-0.014152 1.588788,1.7555911 1.588788,1.755591 0.06747,1.3644091 0.06748,1.364409 0.731241,-1.8685907 0.731243,-1.8685906 0.551409,2.1085907 0.551409,2.1085906 H 18.630125 17.28 v 1.8496085 1.849609 l 1.680001,0.439029 1.68,0.439031 -1.525906,0.111361 L 17.588189,14.4 16.267271,17.04 14.946353,19.680001 Z M 4.6560001,18.704 l -0.496,0.496001 -0.64,-0.640001 -0.64,-0.639999 V 16.928 15.936 l 1.136,1.136 1.1360001,1.136001 z M 11.52,16.32 H 10.240001 L 10.88,15.68 11.52,15.040001 12.160001,15.68 12.8,16.32 Z M 10.4,14.4 H 9.6000003 V 13.496657 12.593313 L 10.4,12.098886 11.200001,11.604458 V 13.00223 14.4 Z M 7.6800002,12.48 h -0.96 v -0.96 -0.96 h 0.96 0.9600001 v 0.96 0.96 z M 14.4,12.48 h -0.96 v -0.96 -0.96 h 0.96 0.96 v 0.96 0.96 z M 3.8319177,6.1027187 3.0017018,8.1600002 2.9408509,7.0385162 2.8800001,5.9170321 3.4763341,4.3630103 4.0726683,2.8089886 6.7886607,1.4044942 9.5046532,0 h 1.9141398 1.914141 L 16.026467,2.4938307 18.720001,4.9876612 15.950536,2.9738307 13.181072,0.96000003 H 11.124142 9.0672123 L 6.8646729,2.5027186 4.6621335,4.0454372 Z"
         id="path4440" />
      <path
         style="fill:#333333;fill-opacity:1;stroke-width:0.96"
         d="M 0.71455921,30.721735 0.33543787,35.040001 0.16771894,30.548573 0,26.057143 1.5085715,24.548573 3.0171429,23.040001 h 0.5602167 0.5602166 l -1.5219478,1.681733 -1.5219479,1.681733 z m 3.75514019,3.136537 -0.4781204,1.181729 0.035572,-2.88 0.035572,-2.88 0.4425485,1.698271 0.4425485,1.69827 z m 7.0255816,-4.578271 -0.653,5.76 -0.141141,-5.04 -0.14114,-5.04 h -0.7679997 -0.768 l -1.2684395,1.2 -1.2684395,1.2 L 7.1407132,23.68723 7.7943051,20.014459 6.5371526,18.493001 5.2800002,16.971542 7.3498476,18.260395 9.419695,19.549248 8.5498476,21.83712 7.6800002,24.124992 v 0.42564 0.425639 l 1.8763408,-1.171794 1.876341,-1.171795 0.3578,0.443659 0.3578,0.44366 z m 10.26472,4.96 -0.64,0.64 v -1.28 -1.28 l 0.64,0.64 0.639999,0.64 z m 1.85613,-2.81613 -0.57613,0.57613 v -1.222709 -1.22271 l -1.32302,0.50769 -1.323019,0.50769 -1.076981,-1.07698 -1.07698,-1.076981 0.02919,-1.008 0.02919,-1.008 0.956197,1.640128 0.956197,1.640128 1.317506,-0.505575 1.317507,-0.505574 0.673234,1.089316 0.673235,1.089316 -0.57613,0.576131 z m 4.131238,-0.586861 -0.837967,1.322991 -0.0147,-1.740344 -0.0147,-1.740344 2.154642,0.300344 2.154642,0.300344 0.119342,-2.265462 0.119342,-2.265462 1.326017,-0.854538 1.326015,-0.854538 L 32.753986,22.185462 31.427969,21.330924 31.308627,19.065462 31.189285,16.8 l -2.154642,0.300344 -2.154642,0.300344 0.0147,-1.740344 0.0147,-1.740344 0.837967,1.322991 0.837969,1.322991 0.958557,-0.592421 0.958556,-0.59242 1.151422,1.387377 1.151421,1.387377 -0.623493,1.008833 -0.623494,1.008834 1.500847,0.575929 1.500847,0.575928 v 1.714582 1.714581 l -1.500847,0.575929 -1.500847,0.575929 0.623494,1.008833 0.623493,1.008833 -1.151421,1.387377 -1.151422,1.387378 -0.958556,-0.592421 -0.958557,-0.592421 z m -2.276127,-2.997009 h -2.133665 l -1.588788,-1.755592 -1.588788,-1.75559 v -1.455621 -1.455621 l 1.755591,-1.588788 1.75559,-1.588788 h 1.966863 1.966862 l 1.317547,1.68 1.317547,1.68 -1.62716,-1.273694 -1.62716,-1.273693 -2.114797,0.313693 -2.114799,0.313694 -1.053132,1.68 -1.053132,1.68 1.053132,1.68 1.053132,1.68 2.114799,0.313693 2.114797,0.313694 1.62716,-1.273694 1.62716,-1.273693 -1.317547,1.68 -1.317547,1.68 z M 13.92,26.880001 h -0.366687 l -0.593313,-0.96 -0.593312,-0.96 H 13.92 15.473313 l -0.593313,0.96 -0.593312,0.96 z m 5.157548,-1.035789 -0.357547,-0.07579 -1.2,-0.484211 L 16.32,24.8 v -1.737291 -1.73729 l 1.575787,-0.604685 1.575785,-0.604686 -1.213332,1.461976 -1.213333,1.461977 1.195094,1.44 1.195093,1.44 z m 6.69196,-0.120864 -1.590493,0.30296 -0.570832,-0.923625 -0.570832,-0.923625 1.921325,0.502437 1.921325,0.502438 v -2.143932 -2.143933 l -2.058288,0.538255 -2.058289,0.538255 1.033759,-1.03376 1.03376,-1.03376 1.57186,0.60318 1.571861,0.603178 -0.307332,2.154486 -0.307331,2.154485 z m -11.420024,-4.123347 -0.596867,1.92 -0.407333,-1.908976 -0.407332,-1.908976 1.691024,-1.691024 L 16.32,16.32 V 13.518516 10.717032 L 15.737291,9.1985163 15.154582,7.6800002 H 11.054838 6.955094 L 5.8073585,9.062937 4.659623,10.445874 3.2898115,9.9202275 1.9200001,9.3945818 v 2.1346762 2.134675 l 1.92,-0.502092 1.9200001,-0.502091 -0.0147,2.070126 L 5.7305997,16.8 5.0252999,15.769976 4.3200001,14.739953 2.6400001,14.120106 0.96000003,13.50026 V 11.460255 9.4202506 l 1.92000007,-0.5020913 1.92,-0.5020912 V 7.2368222 6.0575763 L 6.5555913,4.4687882 8.3111823,2.8800001 h 0.858015 0.8580147 L 7.8936062,4.374436 5.7600002,5.8688718 V 6.534436 7.2000002 H 11.04 16.32 V 6.534436 5.8688718 L 14.186395,4.374436 12.052789,2.8800001 h 1.024817 1.024818 l 1.588788,1.7555911 1.588788,1.755591 0.06747,1.3644091 0.06748,1.364409 0.731241,-1.8685907 0.731243,-1.8685906 0.551409,2.1085907 0.551409,2.1085906 H 18.630125 17.28 v 1.8496087 1.849609 l 1.680001,0.439029 1.68,0.439031 -1.525906,0.111361 -1.525906,0.111361 -1.320918,2.64 -1.320918,2.640001 z m -10.0294839,-2.4 h -0.48 v -0.48 -0.48 h 0.48 0.48 v 0.48 0.48 z m 14.8544979,-0.951607 -0.905097,1.431607 -0.0147,-1.082453 -0.0147,-1.082454 1.288328,-1.069217 1.28833,-1.069219 0.683868,0.68387 0.68387,0.683868 0.980888,-1.412197 0.980887,-1.412199 -0.39573,1.44 -0.395729,1.44 -1.63756,0.0084 -1.637558,0.0084 -0.905097,1.431607 z M 3.3600001,17.28 h -0.48 V 16.8 16.32 h 0.48 0.48 v 0.48 0.48 z M 11.52,16.32 H 10.240001 L 10.88,15.68 11.52,15.040001 12.160001,15.68 12.8,16.32 Z M 10.4,14.4 H 9.6000003 V 13.496657 12.593313 L 10.4,12.098886 11.200001,11.604458 V 13.00223 14.4 Z M 7.6800002,12.48 h -0.96 v -0.96 -0.96 h 0.96 0.9600001 v 0.96 0.96 z M 14.4,12.48 h -0.96 v -0.96 -0.96 h 0.96 0.96 v 0.96 0.96 z M 3.8319177,6.1027187 3.0017018,8.1600002 2.9408509,6.6610191 2.8800001,5.1620381 4.8265703,3.0726404 6.7731403,0.98324259 9.1912778,0.37632874 11.609415,-0.23058513 12.204708,0.36470745 12.8,0.96000003 H 10.933606 9.0672123 L 6.8646729,2.5027186 4.6621335,4.0454372 Z M 18.148789,4.7680616 17.760001,4.7361231 15.493648,2.8480616 13.227295,0.96000003 h 0.917564 0.917565 L 16.8,2.8800001 l 1.737577,1.92 z"
         id="path4438" />
    </g>
  </g>
</svg>
