<?xml version="1.0" encoding="UTF-8" standalone="no"?>
<svg
   xmlns:dc="http://purl.org/dc/elements/1.1/"
   xmlns:cc="http://creativecommons.org/ns#"
   xmlns:rdf="http://www.w3.org/1999/02/22-rdf-syntax-ns#"
   xmlns:svg="http://www.w3.org/2000/svg"
   xmlns="http://www.w3.org/2000/svg"
   xmlns:sodipodi="http://sodipodi.sourceforge.net/DTD/sodipodi-0.dtd"
   xmlns:inkscape="http://www.inkscape.org/namespaces/inkscape"
   sodipodi:docname="drawing-3.svg"
   inkscape:version="1.0 (4035a4fb49, 2020-05-01)"
   id="svg4326"
   version="1.1"
   viewBox="0 0 9.0704145 9.2012892"
   height="9.2012892mm"
   width="9.0704145mm">
  <defs
     id="defs4320" />
  <sodipodi:namedview
     inkscape:window-maximized="0"
     inkscape:window-y="32"
     inkscape:window-x="698"
     inkscape:window-height="681"
     inkscape:window-width="630"
     fit-margin-bottom="0"
     fit-margin-right="0"
     fit-margin-left="0"
     fit-margin-top="0"
     showgrid="false"
     inkscape:document-rotation="0"
     inkscape:current-layer="layer1"
     inkscape:document-units="mm"
     inkscape:cy="-8.3260224"
     inkscape:cx="142.85522"
     inkscape:zoom="0.35"
     inkscape:pageshadow="2"
     inkscape:pageopacity="0.0"
     borderopacity="1.0"
     bordercolor="#666666"
     pagecolor="#ffffff"
     id="base" />
  <metadata
     id="metadata4323">
    <rdf:RDF>
      <cc:Work
         rdf:about="">
        <dc:format>image/svg+xml</dc:format>
        <dc:type
           rdf:resource="http://purl.org/dc/dcmitype/StillImage" />
        <dc:title></dc:title>
      </cc:Work>
    </rdf:RDF>
  </metadata>
  <g
     transform="translate(-68.036222,-150.36959)"
     id="layer1"
     inkscape:groupmode="layer"
     inkscape:label="Layer 1">
    <g
       id="g4276"
       transform="matrix(0.26458333,0,0,0.26458333,68.107721,150.3969)">
      <path
         style="fill:#e6e6e6;fill-opacity:1;stroke-width:0.96"
         d="M 16.477431,34.560001 H 14.839855 L 7.4199274,30.216545 0,25.873089 V 24.917468 23.961846 L 2.3999999,20.160001 4.7999997,16.358155 V 8.1790773 0 H 16.799999 28.799998 v 5.3005814 5.3005816 l 2.4,1.093513 2.4,1.093513 -0.0049,1.045906 -0.0049,1.045905 -2.36512,3.840001 -2.36512,3.84 -0.02996,2.249875 -0.03001,2.249874 -1.802978,0.47149 -1.802976,0.471488 -1.065224,2.337912 -1.065224,2.337911 -2.474294,0.940725 -2.474294,0.940725 z m -0.157432,-3.515302 1.44,-1.47227 -1.44,-0.933772 -1.44,-0.93377 -5.1557977,-3.16422 -5.155798,-3.16422 0.8604217,-0.53177 0.8604219,-0.53177 7.1753761,4.364266 7.175376,4.364266 0.568565,0.89091 0.568564,0.89091 4.983903,-8.339161 4.983904,-8.339161 -0.272469,-0.162844 -0.272468,-0.162844 -8.370665,-4.9283414 -8.370664,-4.928342 -5.8225413,9.6383364 -5.8225408,9.638337 -0.2067936,0.837643 -0.2067934,0.837643 6.2399996,3.801221 6.2399995,3.801222 z M 14.936655,30.720001 H 13.553312 L 12.994911,29.816488 12.436508,28.912976 8.1382543,26.766323 3.8399998,24.619671 V 23.829836 23.040001 H 4.3879363 4.935873 l 5.680672,3.12 5.680673,3.12 0.0114,0.72 0.01139,0.72 z m 6.408109,-2.88 H 20.609528 L 13.909482,23.924718 7.209436,20.009437 6.8047178,19.604718 6.3999997,19.200001 6.9495849,18.650415 7.4991702,18.10083 l 7.2802188,4.149585 7.280219,4.149586 0.01019,0.72 0.0102,0.72 z m 1.832525,-1.984973 -0.61729,-0.06497 -2.16,-1.041728 -2.16,-1.041729 v -0.813298 -0.813298 h -1.029053 -1.029053 l -4.412774,-2.586058 -4.412773,-2.586058 1.153977,-0.384659 1.1539772,-0.384659 6.7189278,4.059638 6.71893,4.059637 0.436167,-0.436168 0.436168,-0.436167 -5.747247,-3.23268 -5.747247,-3.232679 V 16.140074 15.36 h 0.603142 0.603143 l 5.136571,2.938849 5.136572,2.938849 0.5034,0.814519 0.503401,0.814519 -0.585824,1.526632 -0.585824,1.526633 z m 2.559366,-4.806774 -1.256656,-0.07175 -7.140775,-4.427995 -7.140773,-4.427995 1.10074,-0.366914 1.100739,-0.366913 6.777355,4.026352 6.777355,4.026353 0.519335,0.840303 0.519336,0.840303 z m 1.863343,-1.862888 -0.24,-0.01463 -7.439999,-4.404213 -7.44,-4.404213 V 9.5011528 8.6400003 h 0.358427 0.358427 l 7.321572,4.4006297 7.321573,4.400629 v 0.879371 0.879371 z m 1.44,-2.915719 -0.72,-0.05035 -2.4,-1.613467 -2.399999,-1.613466 -0.48,-0.51572 -0.48,-0.51572 -2.64,-1.159879 -2.64,-1.1598778 V 8.5805815 7.5200002 l 0.72,0.3206459 0.72,0.320646 5.52,3.2109939 5.519999,3.210995 V 15.45164 16.32 Z M 18.719999,32.640001 h 0.48 v -0.48 -0.48 h -0.48 -0.48 v 0.48 0.48 z M 7.3784324,12.141568 8.0368651,11.483134 7.8030496,6.9661846 7.569234,2.4492345 7.1446168,2.0246173 6.7199996,1.6000001 V 7.2000002 12.8 Z M 25.817289,8.6400003 h 1.062709 V 5.3827094 2.1254186 l -1.2,-0.4115965 -1.199999,-0.4115964 -4.684258,0.4154357 -4.684256,0.4154357 1.324256,0.8387513 1.324258,0.8387512 4.32,0.1410759 4.319999,0.1410758 -3.359999,0.7072488 -3.36,0.7072489 3.08987,0.1263756 3.08987,0.1263756 -0.55258,1.44 -0.552579,1.4400001 z m -15.9456403,-1.04 0.2716483,-0.4000001 1.285898,-1.68 1.285898,-1.6800001 H 11.157547 9.5999994 v 2.0800001 2.08 z"
         id="path4298" />
      <path
         style="fill:#d4d4d4;fill-opacity:1;stroke-width:0.96"
         d="M 16.497503,34.549168 14.879999,34.538336 7.9391004,30.408269 0.9982017,26.278203 0.38246615,25.662467 -0.23326938,25.046731 2.2833651,20.752419 4.7999997,16.458106 V 8.2290531 0 l 9.8399993,0.19924054 9.84,0.19924053 -8.88,0.31678426 L 6.7199996,1.0320496 V 6.916025 12.8 L 7.3314902,12.18851 7.9429808,11.57702 8.0514901,6.9885096 8.1599995,2.4000001 11.999999,2.615484 l 3.84,0.2154839 5.28,0.6859607 5.279999,0.6859607 -3.359999,0.6521798 -3.36,0.6521799 3.08987,0.1263756 3.08987,0.1263756 -0.55258,1.44 -0.552579,1.4400001 h 1.062709 1.062709 v -3.7600002 -3.76 l -1.2,-0.48421061 L 24.479999,0.15157895 26.639998,0.07578948 28.799998,0 v 5.0039381 5.0039379 l 2.540359,2.025611 2.540358,2.025612 -2.540358,4.334794 -2.540359,4.334794 v 2.165532 2.165531 l -1.801055,0.470987 -1.801055,0.470986 -1.29857,2.426401 -1.29857,2.426401 -2.24287,0.852739 -2.24287,0.852737 z m 0.01735,-3.525504 1.709363,-1.546951 -5.91999,-3.458356 -5.9199872,-3.458356 -0.4049675,-1.238549 -0.4049676,-1.238548 7.5328493,4.45264 7.532849,4.452641 0.563581,0.909473 0.563581,0.909473 5.063352,-8.256631 5.063353,-8.256631 -0.346934,-0.266615 -0.346934,-0.266614 -6.239999,-3.696395 -6.24,-3.6963956 -2.049818,-1.3021404 -2.049819,-1.3021403 -5.736806,9.3982163 -5.7368067,9.398216 -0.6307305,1.13641 -0.6307304,1.136411 6.4600991,3.868897 6.4600995,3.868897 1.709362,-1.546952 z m -0.85382,-0.303663 h -0.894062 l -1.863484,-1.409469 -1.863485,-1.409468 1.562453,-0.03053 1.562454,-0.03053 1.195093,1.44 1.195093,1.44 z m -5.341031,-2.883589 -0.24,-0.0036 -3.2282679,-1.968143 -3.2282683,-1.968143 0.4990554,-0.499055 0.4990553,-0.499056 2.9692129,1.53544 2.9692126,1.535439 v 0.935348 0.935347 z m 11.245714,-0.0055 -0.925714,-0.0091 -4.08,-2.445331 -4.08,-2.44533 v -0.983885 -0.983885 l 3.6,2.146327 3.6,2.146328 1.405714,1.29197 1.405714,1.29197 z m 1.585182,-1.910918 H 22.50721 L 20.245653,24.335937 17.984095,22.75188 13.552048,20.41589 9.1199995,18.0799 8.2079995,17.199947 7.2959996,16.32 l 1.3919999,5.39e-4 1.3919995,5.39e-4 6.24,3.838923 6.24,3.838923 0.96,-0.02516 0.96,-0.02516 -5.52,-3.411485 -5.52,-3.411486 V 16.18841 15.251187 l 3.681905,2.214412 3.681905,2.214413 2.140499,1.44 2.140498,1.44 -0.645113,1.68 -0.645113,1.68 H 23.150895 Z M 11.51849,21.402197 11.039999,21.841375 8.8799995,20.853987 6.7199996,19.866597 v -0.813298 -0.813298 h 0.7765155 0.7765155 l 1.8619744,1.361509 1.861975,1.361509 z m 14.698165,-0.299537 -0.776657,-0.01734 -7.667083,-4.466965 -7.667084,-4.466966 1.14705,-0.382349 1.147049,-0.38235 6.777355,4.026352 6.777355,4.026353 0.519335,0.840303 0.519336,0.840303 z m 1.383343,-1.911741 -0.24,-0.0091 -4.319999,-2.559596 -4.32,-2.559596 -0.48,-0.570862 -0.48,-0.570862 -2.64,-1.159879 -2.64,-1.159878 V 9.5639252 8.5266876 l 0.72,0.3975964 0.72,0.3975965 6.96,4.0884675 6.959999,4.088467 v 0.850593 0.850593 z m 1.44,-2.921272 -0.72,-0.05035 -2.4,-1.613467 -2.399999,-1.613466 -0.48,-0.51572 -0.48,-0.51572 -2.88,-1.306327 -2.88,-1.3063269 1.171893,-0.4247639 1.171892,-0.4247638 5.308108,3.1749166 5.308106,3.174918 V 15.584286 16.32 Z M 18.719999,32.640001 h 0.48 v -0.48 -0.48 h -0.48 -0.48 v 0.48 0.48 z M 9.8716487,7.6000003 10.143297,7.2000002 l 1.285898,-1.68 1.285898,-1.6800001 H 11.157547 9.5999994 v 2.0800001 2.08 z"
         id="path4296" />
      <path
         style="fill:#c2c2c2;fill-opacity:1;stroke-width:0.96"
         d="m 18.239999,34.0381 -3.36,0.569813 L 7.9391004,30.443057 0.9982017,26.278203 0.38246615,25.662467 -0.23326938,25.046731 2.2833651,20.752419 4.7999997,16.458106 V 8.2290531 0 l 9.8399993,0.19924054 9.84,0.19924053 -8.88,0.31678426 L 6.7199996,1.0320496 V 6.8126813 12.593313 L 7.5637855,12.071825 8.4075713,11.550336 7.9322413,7.3332201 7.4569112,3.1161039 11.168455,2.6435334 l 3.711544,-0.4725706 0.912,0.8345187 0.912,0.8345186 4.848,0.1263756 4.847999,0.1263756 -3.359999,0.7072488 -3.36,0.7072489 3.08987,0.1263756 3.08987,0.1263756 -0.55258,1.44 -0.552579,1.4400001 h 1.062709 1.062709 v -3.7600002 -3.76 l -1.2,-0.54307133 -1.199999,-0.54307127 1.919999,0.23170593 1.92,0.23170593 0.297589,4.79136554 0.297588,4.7913651 2.548237,2.04175 2.548236,2.041751 -2.605825,3.937667 -2.605825,3.937667 v 2.510458 2.510457 l -1.92,0.502092 -1.919999,0.502091 -0.02135,0.608034 -0.02134,0.608034 -1.658653,2.094143 -1.658653,2.094143 z m -2.64,-1.427164 0.72,0.02906 V 31.834095 31.02819 l -2.64,-1.239962 -2.64,-1.239961 1.25555,-0.45265 1.255549,-0.452649 1.702356,1.54061 1.702356,1.540612 0.639664,-0.639664 0.639664,-0.639664 -6.304368,-3.775631 -6.3043686,-3.775632 0.5150613,-0.515062 0.5150614,-0.515061 6.9917379,4.128191 6.991737,4.12819 0.596791,0.897373 0.596791,0.897372 5.062482,-8.381197 5.062482,-8.381198 -1.339273,-0.78545 -1.339274,-0.78545 -7.199999,-4.2837534 -7.2,-4.2837536 -0.737525,0.698625 -0.737524,0.6986251 -5.7682262,9.4607239 -5.7682255,9.460726 0.9209147,0.920914 0.9209146,0.920915 5.5848358,3.203771 5.5848356,3.203771 0.72,0.02907 z m -5.28,-4.774524 -0.24,-0.0036 -3.2282679,-1.968143 -3.2282683,-1.968143 0.5218044,-0.521805 0.5218044,-0.521805 2.9464639,1.74052 2.9464635,1.740519 v 0.753017 0.753017 z m 11.245714,-0.0055 -0.925714,-0.0091 -4.08,-2.445331 -4.08,-2.44533 v -0.983885 -0.983885 l 3.6,2.146327 3.6,2.146328 1.405714,1.29197 1.405714,1.29197 z m 1.660407,-1.910918 h -0.887193 l -2.440884,-1.92 -2.440885,-1.92 h -0.587656 -0.587657 l -3.911624,-2.4693 -3.9116225,-2.4693 0.4972236,-0.497223 0.4972236,-0.497224 6.8107973,4.04622 6.810797,4.046221 0.519335,0.840303 0.519336,0.840303 z m 1.253879,-2.939363 -0.96,0.04135 -5.04,-2.89041 -5.04,-2.89041 v -0.994994 -0.994993 l 3.681905,2.214412 3.681905,2.214412 2.318095,1.629647 2.318094,1.629646 -0.959999,0.04135 z M 11.51849,21.402197 11.039999,21.841375 8.8799995,20.853987 6.7199996,19.866597 v -0.813298 -0.813298 h 0.7765155 0.7765155 l 1.8619744,1.361509 1.861975,1.361509 z m 14.833508,-0.296831 -0.912,-0.01463 -7.592986,-4.494371 -7.592986,-4.494369 0.958025,-0.319343 0.958024,-0.319341 6.540895,3.822281 6.540896,3.822279 1.006067,1.006067 1.006065,1.006062 z m 1.226109,-1.905365 H 27.316215 L 22.538107,16.08 l -4.778108,-3.12 -2.64,-1.179418 -2.64,-1.179419 V 9.5639252 8.5266876 l 0.72,0.3975964 0.72,0.3975965 6.96,4.0884675 6.959999,4.088467 v 0.850593 0.850593 z M 29.413963,16.32 h -0.346034 l -3.253965,-2.168981 -3.253965,-2.168981 -2.88,-1.316886 -2.88,-1.3168859 1.171893,-0.4247639 1.171892,-0.4247638 5.308108,3.1749166 5.308106,3.174918 V 15.584286 16.32 Z M 18.239999,32.640001 h 1.28 l -0.64,-0.64 -0.64,-0.64 -0.64,0.64 -0.64,0.64 z M 9.566223,7.6800002 h 0.926223 l 1.027553,-1.92 1.027554,-1.9200001 H 10.593776 8.6399995 v 1.9200001 1.92 z"
         id="path4294" />
      <path
         style="fill:#b0b0b0;fill-opacity:1;stroke-width:0.96"
         d="m 18.239999,34.013808 -3.36,0.517646 L 7.8398356,30.305564 0.7996721,26.079673 0.31520136,25.595202 -0.16926938,25.110731 2.3153652,20.871023 4.7999997,16.631314 V 8.315657 0 l 9.8399993,0.19924054 9.84,0.19924053 -8.88,0.31678426 L 6.7199996,1.0320496 V 6.8126813 12.593313 L 7.5637855,12.071825 8.4075713,11.550336 7.9322413,7.3332201 7.4569112,3.1161039 11.168455,2.6435334 l 3.711544,-0.4725706 0.912,0.8345187 0.912,0.8345186 4.848,0.1263756 4.847999,0.1263756 -3.359999,0.7072488 -3.36,0.7072489 2.528034,0.1263756 2.528033,0.1263756 0.752113,2.16 0.752112,2.1599998 0.38213,-4.2248549 0.382129,-4.2248552 -1.262275,-0.86675114 -1.262276,-0.86675119 1.919999,0.3002409 1.92,0.30024089 0.297589,4.79136554 0.297588,4.7913651 2.468991,1.978562 2.468991,1.978562 -2.526579,4.002361 -2.52658,4.002361 v 1.765956 1.765955 l -2.16,1.888552 -2.159999,1.888553 -1.44,2.07265 -1.44,2.07265 z m -3.12,-1.450097 1.2,0.07629 V 31.834095 31.02819 l -2.524057,-1.150038 -2.524057,-1.150037 0.574098,-0.574097 0.574096,-0.574098 2.319926,1.520075 2.319926,1.520074 0.587604,-0.587604 0.587603,-0.587603 -6.304368,-3.775631 -6.3043686,-3.775632 0.5150613,-0.515062 0.5150614,-0.515061 6.6400079,3.944756 6.640009,3.944758 0.624864,1.62837 0.624863,1.62837 5.241012,-8.564865 5.24101,-8.564865 0.0059,-0.536342 0.0059,-0.536341 -8.068286,-4.6623698 -8.068286,-4.6623693 -0.712885,-0.081289 -0.712885,-0.081289 -6.1626637,9.9681641 -6.1626639,9.968165 0.9274377,0.927438 0.9274378,0.927438 5.1363977,3.188107 5.1363974,3.188108 z m -4.8,-4.727299 -0.24,-0.0036 L 6.8517311,25.864633 3.6234628,23.89649 4.1452672,23.374685 4.6670716,22.85288 7.6135355,24.5934 10.559999,26.333919 v 0.753017 0.753017 z m 11.096656,-0.03387 -0.776656,-0.03746 -4.08,-2.46002 -4.08,-2.460019 v -0.79494 -0.794939 l 4.310939,2.40943 4.310938,2.409429 0.545718,0.88299 0.545717,0.88299 z m 1.272808,-1.882539 h -0.350536 l -2.440884,-1.92 -2.440885,-1.92 h -0.587656 -0.587657 l -3.911624,-2.4693 -3.9116225,-2.4693 0.4972236,-0.497223 0.4972236,-0.497224 6.7934773,4.035931 6.793476,4.03593 v 0.850593 0.850593 z m 1.742536,-2.901179 -0.912,-0.02118 -5.04,-2.938063 -5.04,-2.938063 v -0.85585 -0.855849 l 5.04,2.944075 5.04,2.944074 0.912,0.871017 0.911999,0.871016 z M 10.38103,21.120001 H 8.8750933 l -1.1950938,-1.44 -1.1950937,-1.44 0.8375469,0.03053 0.8375468,0.03053 1.8634845,1.409468 1.863484,1.40947 z m 15.778968,-0.03836 -0.72,-0.03836 -6.719999,-3.9456 -6.72,-3.945599 -0.4,-0.336039 L 11.2,12.48 l 0.527579,-0.527579 0.52758,-0.52758 7.312419,4.439477 7.31242,4.439477 v 0.408103 0.408103 z m 0.672,-2.921172 -1.392,-0.07953 -3.119999,-1.928838 -3.12,-1.928838 v -0.949927 -0.949928 l 3.6,2.151931 3.599999,2.151931 0.912,0.806366 0.912,0.806362 z m 1.834353,-2.806793 -1.573647,0.0063 -2.266353,-1.888061 -2.266352,-1.888061 0.96,-0.02561 0.96,-0.02561 2.879999,1.907349 2.88,1.90735 -1.573647,0.0063 z m -11.386352,-2.910532 -1.44,-0.0242 -1.849919,-1.39955 -1.849919,-1.3995493 0.448945,-0.4489453 0.448945,-0.4489451 2.840974,1.8727007 2.840974,1.8727 z M 21.477546,11.48947 20.639999,11.45894 18.776514,10.049471 16.91303,8.6400023 h 1.505938 1.505937 L 21.119999,10.08 l 1.195093,1.44 z m -3.237547,21.150532 h 1.28 l -0.64,-0.64 -0.64,-0.64 -0.64,0.64 -0.64,0.64 z M 9.566223,7.6800002 h 0.926223 l 1.027553,-1.92 1.027554,-1.9200001 H 10.593776 8.6399995 v 1.9200001 1.92 z"
         id="path4292" />
      <path
         style="fill:#9e9e9e;fill-opacity:1;stroke-width:0.96"
         d="m 18.239999,34.037302 -3.36,0.540312 L 7.6799995,30.138122 0.47999997,25.698631 0.1553653,25.40468 -0.16926938,25.110731 2.3153652,20.871023 4.7999997,16.631314 V 8.315657 0 l 9.3599993,0.18141182 9.36,0.18141182 -8.64,0.5385882 L 6.2399996,1.44 5.9500641,7.5989899 5.6601286,13.75798 7.0301119,12.620995 8.4000953,11.484009 7.9285033,7.3000566 7.4569112,3.1161039 11.168455,2.6435334 l 3.711544,-0.4725706 0.912,0.8345187 0.912,0.8345186 4.368,0.1135822 4.367999,0.1135822 -2.879999,0.7328356 -2.88,0.7328356 2.696656,0.1135823 2.696656,0.1135822 -0.526087,0.8512255 -0.526085,0.8512254 1.429429,1.1863215 1.42943,1.1863211 V 5.477547 1.1200001 l -1.2,-0.48421061 L 24.479999,0.15157895 26.159998,0.07578948 27.839998,0 V 5.2800002 10.56 l 0.72,0.02135 0.72,0.02135 2.253065,1.732982 2.253065,1.732982 -2.973065,4.831846 -2.973065,4.83184 v 1.050188 1.050189 l -2.16,2.260069 -2.159999,2.260068 -0.96,1.572063 -0.96,1.572062 z m -3.12,-1.473591 1.2,0.07629 V 31.834095 31.02819 l -2.524057,-1.150038 -2.524057,-1.150037 0.574098,-0.574097 0.574096,-0.574098 2.379898,1.55937 2.379899,1.559369 0.478628,-0.774436 0.478628,-0.774436 -6.274616,-3.608843 -6.2746169,-3.608843 0.4917751,-0.491775 0.4917749,-0.491775 6.8166749,3.981153 6.816675,3.981153 -0.496886,0.803979 -0.496887,0.803978 1.217036,0.46702 1.217038,0.467021 5.156707,-8.547169 5.156707,-8.547169 -0.379257,-0.36169 -0.379259,-0.361689 -8.088359,-4.8501734 -8.08836,-4.8501728 -0.740367,0.4575724 -0.740368,0.4575725 -5.8667635,9.7115403 -5.8667633,9.711541 0.9190934,0.919093 0.9190933,0.919094 5.1363977,3.188107 5.1363974,3.188108 z m -4.8,-4.739883 -0.24,-0.01617 -3.1602446,-2.023582 -3.1602451,-2.023582 0.4537812,-0.453781 0.4537811,-0.453782 2.9464639,1.74052 2.9464635,1.740519 v 0.753017 0.753017 z m 11.04,-0.02129 -0.72,-0.03746 -4.08,-2.46002 -4.08,-2.460019 v -0.853646 -0.853647 l 4.8,2.95347 4.8,2.95347 v 0.397656 0.397661 l -0.72,-0.03746 z m 1.67698,-2.51952 -0.48,0.48 -1.848408,-1.351591 -1.84841,-1.35159 0.48,-0.48 0.48,-0.48 1.84841,1.35159 1.848408,1.351591 z m 1.20302,-2.264193 -0.72,-0.02118 -5.04,-2.938063 -5.04,-2.938063 v -0.839773 -0.839772 l 5.76,3.431215 5.76,3.431214 v 0.3678 0.367799 z m -6.72,-0.98125 -0.72,-0.04243 L 13.262205,20.126548 9.7244116,18.257959 9.125549,17.28898 8.5266869,16.32 h 0.4157414 0.4157414 l 4.4409143,2.482076 4.440915,2.482074 v 0.397926 0.397925 z M 10.38103,21.120001 H 8.8750933 l -1.1950938,-1.44 -1.1950937,-1.44 0.8375469,0.03053 0.8375468,0.03053 1.8634845,1.409468 1.863484,1.40947 z m 15.468888,-0.596532 -0.40992,0.383308 -6.928749,-3.973388 -6.928751,-3.973389 -0.03125,-0.784985 -0.03125,-0.784984 5.587583,3.071789 5.587582,3.071789 1.782337,1.303277 1.782336,1.303276 z m 1.430081,-2.325897 -0.880001,-0.04243 -3.599999,-1.900506 -3.6,-1.900505 v -0.949109 -0.949109 l 4.08,2.54121 4.079999,2.541211 0.400001,0.350833 0.399999,0.350832 z m 1.386352,-2.84116 -1.573647,0.0036 -2.266353,-1.888061 -2.266352,-1.888061 0.696796,-0.03194 0.696798,-0.03194 3.143202,1.916412 3.143203,1.916411 -1.573647,0.0036 z m -11.442867,-2.906943 -1.383485,-0.03053 -1.863485,-1.409469 -1.863483,-1.4094687 1.383483,0.030528 1.383485,0.030528 1.863485,1.4094677 1.863484,1.409476 z m 4.254062,-0.96 -0.837547,-0.03053 L 18.776514,10.04947 16.91303,8.6400013 h 1.505938 1.505937 L 21.119999,10.08 l 1.195093,1.44 z m -3.237547,21.150532 h 1.28 l -0.64,-0.64 -0.64,-0.64 -0.64,0.64 -0.64,0.64 z M 9.566223,7.6800002 h 0.926223 l 1.027553,-1.92 1.027554,-1.9200001 H 10.593776 8.6399995 v 1.9200001 1.92 z"
         id="path4290" />
      <path
         style="fill:#8c8c8c;fill-opacity:1;stroke-width:0.96"
         d="m 18.239999,33.993559 -3.36,0.496567 L 7.6799995,30.117003 0.47999997,25.743879 0.1553653,25.427306 -0.16926938,25.110731 2.3153652,20.871023 4.7999997,16.631314 V 8.315657 0 l 9.3599993,0.18141182 9.36,0.18141182 -8.64,0.5385882 L 6.2399996,1.44 5.9541909,7.4400002 5.6683823,13.44 H 6.6741909 7.6799995 L 7.808924,12.24 7.9378483,11.04 7.7321046,7.0739982 7.5263608,3.1079962 10.976007,2.7052693 l 3.449646,-0.4027268 1.187173,0.7540286 1.187173,0.7540285 4.32,0.1282824 4.319999,0.1282825 -2.879999,0.7328356 -2.88,0.7328356 2.696656,0.1135823 2.696656,0.1135822 -0.526087,0.8512255 -0.526085,0.8512254 1.429429,1.1863215 1.42943,1.1863211 V 5.477547 1.1200001 l -1.2,-0.48421061 L 24.479999,0.15157895 26.159998,0.07578948 27.839998,0 V 5.2800002 10.56 l 0.72,0.02135 0.72,0.02135 2.246881,1.728317 2.246881,1.728318 -2.966881,4.678285 -2.966881,4.678278 v 1.208415 1.208414 l -2.16,2.260069 -2.159999,2.260068 -0.96,1.572063 -0.96,1.572062 z m -3.12,-1.451481 1.2,0.09792 V 31.834095 31.02819 l -2.524057,-1.150038 -2.524057,-1.150037 0.574098,-0.574097 0.574096,-0.574098 2.379898,1.55937 2.379899,1.559369 0.481132,-0.778486 0.48113,-0.778487 -6.23474,-3.647171 -6.2347418,-3.647171 0.4501948,-0.450195 0.4501949,-0.450195 6.7630351,4.017846 6.763036,4.017847 -0.209559,0.988677 -0.209559,0.988677 0.984889,0.368296 0.984889,0.368297 5.01511,-8.471279 5.015111,-8.471277 V 14.216343 13.678648 L 22.981104,8.6582187 14.28221,3.6377895 14.019168,3.9788948 13.756127,4.3200001 7.8380635,14.204652 l -5.9180636,9.884651 0.02565,0.675349 0.02565,0.675349 5.9743493,3.502077 5.9743488,3.502077 z m -4.8,-4.71825 -0.24,-0.01617 -3.1602446,-2.023582 -3.1602451,-2.023582 0.3902198,-0.39022 0.3902196,-0.390219 3.0039556,1.709975 3.0039557,1.709974 0.0061,0.72 0.0061,0.72 z m 11.04,-0.07985 -0.72,-0.09602 -4.136761,-2.407214 -4.136762,-2.407213 0.493397,-0.493396 0.493396,-0.493396 4.363365,2.557102 4.363365,2.557103 v 0.439533 0.439532 z m 1.60841,-2.392385 -0.41143,0.41143 -1.848408,-1.351591 -1.84841,-1.35159 0.411428,-0.411428 0.411429,-0.411429 1.848409,1.351591 1.84841,1.351589 z m 1.27159,-2.365593 -0.72,-0.05401 -5.083029,-2.942966 -5.083029,-2.942967 0.466071,-0.466072 0.466073,-0.466071 5.336956,3.053497 5.336958,3.053502 v 0.409546 0.409545 z m -6.48,-0.933319 -0.96,0.0091 -4.146144,-2.484774 -4.1461435,-2.484774 0.4486123,-0.448612 0.4486124,-0.448612 4.6575318,2.924227 4.657531,2.924228 -0.96,0.0091 z m -7.402453,-0.93268 H 8.8750933 l -1.3175468,-1.597172 -1.3175469,-1.597171 2.3999999,1.247208 2.3999995,1.247207 0.400001,0.349964 0.399999,0.349964 z m 15.482453,-0.560035 -0.400001,0.399966 -6.102378,-3.670345 -6.102379,-3.670345 -1.097621,-1.190457 -1.097621,-1.190457 0.96,0.467059 0.96,0.46706 6.24,3.674097 6.239999,3.674097 0.400001,0.31968 0.399999,0.31968 z m 1.44,-2.342018 -0.880001,-0.02205 -3.599999,-2.086642 -3.6,-2.086643 v -0.783349 -0.783348 l 4.08,2.54121 4.079999,2.541211 0.400001,0.350833 0.399999,0.350832 z m 1.519999,-2.882883 -1.44,-0.01776 -2.399999,-1.877307 -2.4,-1.877307 0.696796,-0.02135 0.696798,-0.02135 3.143202,1.916412 3.143203,1.916411 z m -11.576514,-2.885596 -1.383485,-0.03053 -1.863485,-1.409469 -1.863483,-1.4094687 1.383483,0.030528 1.383485,0.030528 1.863485,1.4094677 1.863484,1.409476 z m 4.254062,-0.96 -0.837547,-0.03053 L 18.776514,10.04947 16.91303,8.6400013 h 1.505938 1.505937 L 21.119999,10.08 l 1.195093,1.44 z m -3.237547,21.150532 h 1.28 l -0.64,-0.64 -0.64,-0.64 -0.64,0.64 -0.64,0.64 z M 9.566223,7.6800002 h 0.926223 l 1.027553,-1.92 1.027554,-1.9200001 H 10.593776 8.6399995 v 1.9200001 1.92 z"
         id="path4288" />
      <path
         style="fill:#7a7a7a;fill-opacity:1;stroke-width:0.96"
         d="m 15.359999,34.46295 -0.48,-0.08634 L 8.6399995,30.583361 2.3999999,26.790116 1.0969483,26.019225 -0.20610333,25.248336 2.2969482,21.283245 4.7999997,17.318155 V 8.6590773 0 l 9.3599993,0.19924054 9.36,0.19924053 -8.88,0.31678426 L 5.7599997,1.0320496 5.7905309,7.956025 5.8210621,14.88 7.1938854,13.066631 8.5667087,11.253262 8.0090915,7.1850006 7.4514741,3.1167387 10.938564,2.7096406 l 3.487089,-0.4070981 1.187173,0.7540286 1.187173,0.7540285 4.32,0.1410759 4.319999,0.1410758 -3.359999,0.7072488 -3.36,0.7072489 3.36,0.1410758 3.359999,0.1410758 -1.329695,0.8421125 -1.329695,0.8421124 2.049695,1.0969638 2.049695,1.0969643 V 5.3937766 1.1200001 l -1.2,-0.48421061 L 24.479999,0.15157895 26.159998,0.07578948 27.839998,0 v 5.2553473 5.2553477 l 2.923484,1.511792 2.923485,1.511793 -2.923485,5.109717 -2.923484,5.109719 v 1.460433 1.460433 l -1.448305,0.555767 -1.448305,0.555767 -1.104447,2.423995 -1.104446,2.423996 -3.447248,0.957593 -3.447248,0.957593 z m -0.24,-1.863704 1.2,0.04075 v -0.797779 -0.79778 l -2.398553,-1.283667 -2.398554,-1.283667 0.448593,-0.448594 0.448594,-0.448594 2.379898,1.55937 2.379899,1.559369 0.481132,-0.778486 0.48113,-0.778487 -6.23474,-3.647171 -6.2347418,-3.647171 0.4501948,-0.450195 0.4501949,-0.450195 6.7630351,4.017846 6.763036,4.017847 -0.209559,1.108677 -0.209559,1.108677 -1.44,0.652526 -1.44,0.652526 1.44,0.05277 1.44,0.05277 1.059418,-0.705299 1.059419,-0.705295 4.986006,-8.069279 4.986007,-8.06928 L 31.337136,14.010721 30.903423,12.96 22.619428,8.2722833 14.335433,3.5845662 l -0.276119,0.367717 -0.276118,0.3677169 -5.9315981,9.6999379 -5.931598,9.699939 0.019887,0.860062 0.019887,0.860062 5.9801129,3.559245 5.9801132,3.559245 1.2,0.04075 z m -4.8,-4.775418 -0.24,-0.01617 -3.1602446,-2.023582 -3.1602451,-2.023582 0.3902198,-0.39022 0.3902196,-0.390219 3.0039556,1.709975 3.0039557,1.709974 0.0061,0.72 0.0061,0.72 z m 11.04,-0.04545 -0.72,-0.06162 -4.32,-2.800249 -4.32,-2.800249 0.789053,-0.01813 0.789053,-0.01813 4.250947,2.491221 4.250947,2.491221 V 27.451221 27.84 Z M 22.503483,24.9453 21.599999,24.9306 20.1878,24.037498 l -1.412197,-0.893101 0.453708,-0.453708 0.453707,-0.453707 1.861975,1.361509 1.861974,1.36151 z m 1.736516,-1.926982 -0.72,-0.02168 -5.28,-3.316635 -5.28,-3.316635 0.734543,-0.02168 0.734542,-0.02168 5.265458,2.97164 5.265457,2.971641 v 0.388359 0.388361 z m -6.48,-0.96564 -0.96,0.0091 -4.146144,-2.484774 -4.1461435,-2.484774 0.4486123,-0.448612 0.4486124,-0.448612 4.6575318,2.924227 4.657531,2.924228 -0.96,0.0091 z m -6.72,-0.962078 h -0.96 L 8.6399995,20.160001 7.1999996,19.229402 h 0.9599999 0.96 l 1.4399995,0.930599 1.44,0.930599 z m 14.8,-0.595477 -0.400001,0.335123 -6.022198,-3.525322 -6.0222,-3.525323 -1.1778,-1.270636 -1.177801,-1.270637 0.96,0.467059 0.96,0.46706 6.24,3.674097 6.239999,3.674097 0.400001,0.31968 0.399999,0.31968 z m 1.519999,-2.290002 -0.96,0.02505 -3.839999,-2.36512 -3.84,-2.365121 0.96,-0.02505 0.96,-0.02505 3.84,2.36512 3.839999,2.36512 z m 0.72,-2.866467 -0.72,-0.02135 -2.399999,-1.956437 -2.4,-1.956439 3.119999,1.522438 3.12,1.522437 V 14.904653 15.36 Z m -10.799999,-2.923203 -0.48,-0.0035 -2.4,-1.371964 -2.4,-1.3719636 1.016515,-0.034019 1.016517,-0.034018 1.863483,1.4094686 1.863485,1.409469 z M 21.783484,11.52 h -0.296517 l -1.863483,-1.492959 -1.863485,-1.4929599 2.16,1.046736 2.16,1.0467369 V 11.073777 11.52 Z M 9.566223,7.6800002 h 0.926223 l 1.027553,-1.92 1.027554,-1.9200001 H 10.593776 8.6399995 v 1.9200001 1.92 z"
         id="path4286" />
      <path
         style="fill:#686868;fill-opacity:1;stroke-width:0.96"
         d="m 17.759999,33.927754 -2.88,0.517245 L 8.1599995,30.210605 1.4399999,25.976211 0.58488357,25.663067 -0.27023278,25.349923 2.2648834,21.334038 4.7999997,17.318155 V 8.6590773 0 l 9.3599993,0.19924054 9.36,0.19924053 -8.88,0.31678426 L 5.7599997,1.0320496 5.7905309,7.956025 5.8210621,14.88 7.1938854,13.066631 8.5667087,11.253262 7.9719012,6.9136678 7.3770935,2.574073 l 6.6314525,0.6261389 6.631453,0.6261388 2.4,0.1332003 2.399999,0.1332003 -3.359999,0.7072488 -3.36,0.7072489 3.36,0.1410758 3.359999,0.1410758 -1.329695,0.8421125 -1.329695,0.8421124 2.049695,1.0969638 2.049695,1.0969643 V 5.3937766 1.1200001 l -1.2,-0.48421061 L 24.479999,0.15157895 26.159998,0.07578948 27.839998,0 v 5.2553473 5.2553477 l 2.923484,1.511792 2.923485,1.511793 -2.923485,5.109717 -2.923484,5.109719 v 0.961817 0.961817 l -3.599999,3.866579 -3.6,3.866579 z m -0.861548,-1.479753 h 2.978898 l 1.002406,-0.624 1.002406,-0.624 4.898919,-7.903155 4.898918,-7.903156 V 14.537424 13.681158 L 23.446794,8.7605791 15.213589,3.8400001 h -0.65432 -0.65432 l -5.9924745,9.9935969 -5.9924746,9.993595 0.019887,0.806405 0.019887,0.806404 5.9798898,3.504 5.9798903,3.504 z m 1.633894,-0.768 H 17.07458 l 0.54306,-1.41519 0.543059,-1.41519 -6.249975,-3.495185 -6.2499742,-3.495185 0.3893738,-0.389375 0.389374,-0.389374 6.5601074,3.833507 6.560108,3.833507 0.215198,1.466242 0.215199,1.466243 z m -3.201658,-1.570689 -0.453707,0.453708 -1.861975,-1.36151 -1.861974,-1.361509 0.903483,0.0147 0.903485,0.0147 1.412199,0.893101 1.412197,0.893102 z m -5.010688,-2.348843 -0.24,-0.07953 -3.1652198,-1.955248 -3.1652204,-1.955247 0.395195,-0.395195 0.3951949,-0.395195 3.0039556,1.709975 3.0039557,1.709974 0.0061,0.72 0.0061,0.72 z m 11.04,0.01791 -0.72,-0.06162 -4.32,-2.800249 -4.32,-2.800249 0.789053,-0.01813 0.789053,-0.01813 4.250947,2.491221 4.250947,2.491221 v 0.388779 0.388779 z m 1.2,-2.847778 h -0.96 l -1.44,-0.930599 -1.44,-0.930599 h 0.96 0.96 l 1.44,0.930599 1.44,0.930599 z m 1.92,-1.933964 h -0.96 l -5.28,-3.316635 -5.28,-3.316635 h 0.96 0.96 l 5.28,3.316635 5.279999,3.316635 z m -7.2,-0.977128 -0.48,5.7e-4 -3.608892,-2.218931 -3.6088924,-2.218932 -0.7111075,-0.753197 -0.7111076,-0.753196 2.8799995,1.488926 2.88,1.488926 1.92,1.482632 1.92,1.482632 z M 10.376656,21.1053 10.079999,21.0906 8.6399995,20.160001 7.1999996,19.229402 l 1.1433436,-0.0147 1.1433436,-0.0147 0.5933122,0.96 0.593313,0.96 -0.296656,-0.0147 z m 15.303342,-0.05427 -0.24,-0.06897 -6.410217,-4.01103 -6.410217,-4.01103 -0.789782,-0.845992 -0.789783,-0.845991 5.28,3.064011 5.28,3.064011 2.16,1.056075 2.159999,1.056075 v 0.805906 0.805906 z m 1.68,-2.820867 h -0.96 l -3.839999,-2.36512 -3.84,-2.36512 h 0.96 0.96 l 3.84,2.36512 3.839999,2.36512 z m 0.96,-2.931225 h -0.96 L 25.496514,13.88947 23.63303,12.48 h 0.96 0.96 l 1.863484,1.40947 1.863484,1.409468 z m -11.039999,-2.883487 -0.48,-0.0035 -2.4,-1.371964 -2.4,-1.3719636 1.016515,-0.034019 1.016517,-0.034018 1.863483,1.4094686 1.863485,1.409469 z M 21.783484,11.52 h -0.296517 l -1.863483,-1.492959 -1.863485,-1.4929599 2.16,1.046736 2.16,1.0467369 V 11.073777 11.52 Z M 9.4079994,7.6800002 h 0.7679996 l 1.152,-1.152 1.152,-1.152 v -0.7680001 -0.768 h -1.92 -1.9199995 v 1.9200001 1.92 z"
         id="path4284" />
      <path
         style="fill:#575757;fill-opacity:1;stroke-width:0.96"
         d="M 18.175797,33.925232 15.711595,34.508336 8.0957976,30.083941 0.47999997,25.659547 0.17070048,25.400475 -0.138599,25.141401 2.3307003,21.229779 4.7999997,17.318155 V 8.6590773 0 l 9.3599993,0.19924054 9.36,0.19924053 -8.88,0.31678426 L 5.7599997,1.0320496 5.781346,7.956025 5.8026925,14.88 7.6495139,12.48 9.4963353,10.08 8.5881674,9.1680003 7.6799995,8.2560002 v -2.688 -2.6880001 l 2.1599999,0.00683 2.1599996,0.00683 6.72,0.681087 6.719999,0.6810871 -3.359999,0.6257126 -3.36,0.6257128 3.36,0.1410758 3.359999,0.1410759 -1.329695,0.8421106 -1.329695,0.8421124 2.049695,1.0969638 2.049695,1.0969643 V 5.3937766 1.1200001 l -1.2,-0.48421061 L 24.479999,0.15157895 26.159998,0.07578948 27.839998,0 v 5.2553473 5.2553477 l 2.896121,1.497642 2.896121,1.497642 -1.112232,2.127011 -1.112232,2.127011 -1.783889,2.548195 -1.783889,2.548196 v 2.011804 2.011805 h -1.375307 -1.375308 l -0.569201,1.793391 -0.5692,1.793392 -1.655491,1.437672 -1.655492,1.437672 z m -1.855798,-1.466455 2.4,-0.06921 1.578909,-0.387393 1.578908,-0.387393 4.901092,-8.200598 4.90109,-8.200596 V 14.382614 13.551638 L 23.42976,8.6958188 15.179521,3.8400001 14.54976,3.8471804 13.919999,3.8543608 7.5215548,14.408652 1.1231106,24.962943 7.5215548,28.745462 13.919999,32.52798 Z M 18.857289,31.6653 17.07458,31.68 17.604234,30.299745 18.133887,28.91949 11.971843,25.314845 5.8097991,21.7102 l 0.3349871,-0.334987 0.3349871,-0.334987 6.8454357,4.118113 6.845435,4.118113 -1.073949,0.357983 -1.073949,0.357983 1.308626,0.82909 1.308627,0.829091 z m -3.97729,-1.9347 h -0.96 l -1.44,-0.930599 -1.44,-0.930599 h 0.96 0.96 l 1.44,0.930599 1.44,0.930599 z m 6.96,-1.913952 -0.24,-0.02336 -4.559076,-2.537572 -4.559075,-2.537571 0.40371,-0.403711 0.403711,-0.403709 4.395364,2.575855 4.395366,2.57586 v 0.388779 0.388779 z M 9.5999994,26.815451 9.1199995,26.811965 6.7199996,25.440001 4.3199997,24.068037 l 1.0165156,-0.03402 1.0165154,-0.03402 1.8634844,1.409469 1.8634839,1.409468 z M 22.559999,24.9306 h -0.96 l -1.44,-0.930599 -1.44,-0.930599 h 0.96 0.96 l 1.44,0.930599 1.44,0.930599 z m 1.92,-1.988572 -0.96,-0.05461 -5.28,-3.279739 -5.28,-3.27974 0.96,0.01771 0.96,0.01771 5.28,3.316633 5.279999,3.316635 z m -7.2,-0.92252 -0.48,5.7e-4 -3.608892,-2.218931 -3.6088924,-2.218932 -0.7111075,-0.753197 -0.7111076,-0.753196 2.8799995,1.488926 2.88,1.488926 1.92,1.482632 1.92,1.482632 z M 10.376656,21.1053 10.079999,21.0906 8.6399995,20.160001 7.1999996,19.229402 l 1.1433436,-0.0147 1.1433436,-0.0147 0.5933122,0.96 0.593313,0.96 -0.296656,-0.0147 z m 15.063342,-0.962112 -0.959999,0.0063 -6.48,-3.887946 -6.48,-3.887948 v -0.505101 -0.505102 l 3.12,1.922834 3.12,1.922833 4.32,2.463901 4.319999,2.463899 -0.96,0.0063 z m 1.92,-1.938067 -0.96,-0.02505 -3.839999,-2.36512 -3.84,-2.36512 0.96,0.02505 0.96,0.02505 3.84,2.365121 3.839999,2.36512 z m 1.44,-2.90967 -0.48,-0.0035 -2.4,-1.371964 -2.399999,-1.371963 1.016515,-0.03402 1.016516,-0.03402 1.863484,1.40947 1.863484,1.409468 z M 16.983484,12.48 h -0.296516 l -1.863484,-1.492959 -1.863485,-1.4929598 2.16,1.0467368 2.16,1.046736 V 12.033777 12.48 Z m 4.8,-0.96 h -0.296517 l -1.863483,-1.492959 -1.863485,-1.4929599 2.16,1.046736 2.16,1.0467369 V 11.073777 11.52 Z M 9.2541666,8.6400003 h 0.6141672 l 1.2753012,-1.6800001 1.275302,-1.68 0.03053,-0.7200001 0.03053,-0.72 h -1.92 -1.9199995 v 2.4000001 2.4000001 z"
         id="path4282" />
      <path
         style="fill:#454545;fill-opacity:1;stroke-width:0.96"
         d="m 16.215927,34.560001 h -0.855928 v -0.513776 -0.513776 l 1.486728,-2.269034 1.486728,-2.269034 -5.326728,-3.047645 -5.3267275,-3.047645 v -0.500766 -0.500767 l 4.5599995,2.640365 4.56,2.640364 1.893606,1.290857 1.893605,1.290857 h -1.155315 -1.155316 l -0.602362,2.4 -0.602361,2.4 z m -2.112443,-0.96 h -0.296516 l -1.863484,-1.492959 -1.863485,-1.49296 2.16,1.046736 2.16,1.046736 v 0.446224 0.446223 z m 5.563667,-0.267602 -1.907152,0.233745 1.205982,-0.545065 1.20598,-0.545065 -0.535841,-0.867011 -0.535842,-0.867009 1.351074,0.518455 1.351074,0.518456 4.021658,-6.769452 4.021657,-6.769452 h 0.547538 0.547538 l -1.550409,2.366224 -1.55041,2.366223 v 1.953777 1.953776 l -1.2,0.03698 -1.2,0.03698 -1.932847,3.072348 -1.932847,3.072347 z M 9.3034839,30.720001 H 9.0069684 l -1.8634844,-1.49296 -1.8634843,-1.492959 2.1599999,1.046736 2.1599998,1.046736 v 0.446224 0.446223 z m 4.9131711,-0.974701 -0.296656,-0.0147 -1.44,-0.930599 -1.44,-0.930599 1.143344,-0.0147 1.143344,-0.0147 0.593312,0.96 0.593313,0.96 -0.296657,-0.0147 z M 4.5034841,27.840001 H 4.2069687 l -1.8634844,-1.49296 -1.86348433,-1.492959 2.15999983,1.046736 2.1599999,1.046736 v 0.446223 0.446224 z m 17.0965149,0 h -0.48 v -0.48 -0.48 h 0.48 0.48 v 0.48 0.48 z m -11.9999996,-1.02455 -0.4799999,-0.0035 -2.3999999,-1.371964 -2.3999999,-1.371964 1.0165156,-0.03402 1.0165154,-0.03402 1.8634844,1.409469 1.8634839,1.409468 z m 10.2634846,0.06455 h -0.296517 l -1.863483,-1.49296 -1.863485,-1.492959 2.16,1.046736 2.16,1.046736 v 0.446223 0.446224 z m 2.273171,-1.92 h -0.903344 l -0.586516,-0.949004 -0.586517,-0.949004 1.48986,0.571713 1.489861,0.571714 v 0.37729 0.377291 z m -20.7642079,-0.96 H 0.89244713 l 1.02755277,-1.92 1.0275527,-1.92 h 0.48 0.48 l -1.0275528,1.92 -1.0275527,1.92 z m 13.8042079,-0.0147 -0.296656,-0.0147 -1.44,-0.930599 -1.44,-0.930599 1.143344,-0.0147 1.143344,-0.0147 0.593312,0.96 0.593313,0.96 -0.296657,-0.0147 z m 9.303344,-1.030175 -0.96,-0.05547 -2.647275,-1.697101 -2.647276,-1.6971 -0.712724,-0.754814 -0.712725,-0.754814 2.88,1.526962 2.88,1.526962 1.44,0.980427 1.439999,0.980427 z M 6.2399996,22.080001 H 5.7599997 v -0.48 -0.48 h 0.4799999 0.48 v 0.48 0.48 z m 11.0399994,-0.06049 -0.48,5.7e-4 -3.608892,-2.218931 -3.6088924,-2.218932 -0.7111075,-0.753197 -0.7111076,-0.753196 2.8799995,1.488926 2.88,1.488926 1.92,1.482632 1.92,1.482632 z M 10.376656,21.1053 10.079999,21.0906 8.6399995,20.160001 7.1999996,19.229402 l 1.1433436,-0.0147 1.1433436,-0.0147 0.5933122,0.96 0.593313,0.96 -0.296656,-0.0147 z m 14.286827,-0.945299 h -0.296516 l -1.863484,-1.49296 -1.863484,-1.492959 2.16,1.046736 2.16,1.046736 v 0.446223 0.446224 z m -20.2225056,-0.957827 -0.1209777,0.0022 0.48,-9.3621733 0.48,-9.36217369 8.8824183,-0.0571985 8.882419,-0.0571985 L 14.402418,0.69882634 5.7599997,1.0320496 V 7.716025 14.4 H 6.1576562 6.5553127 L 9.517656,9.5855785 12.479999,4.7711566 V 4.3055783 3.8400001 H 10.623764 8.7675304 L 8.3676037,6.4800002 7.9676772,9.1200003 7.8238384,6.0000002 7.6799995,2.8800001 l 2.1599999,0.00683 2.1599996,0.00683 6.72,0.681087 6.719999,0.6810871 -3.359999,0.6257126 -3.36,0.6257128 3.36,0.1410758 3.359999,0.1410759 -1.329695,0.8421106 -1.329695,0.8421124 2.049695,1.0969638 2.049695,1.0969643 V 5.3937766 1.1200001 l -1.2,-0.48421061 L 24.479999,0.15157895 26.159998,0.07578948 27.839998,0 v 5.2553473 5.2553477 l 2.896121,1.497642 2.896121,1.497642 L 32.622343,15.39299 31.612445,17.28 H 31.118519 30.624593 L 31.543658,15.637723 32.462724,13.995444 24.151361,8.9534379 15.839999,3.9114314 14.877837,3.8757158 13.915675,3.8400001 9.2388154,11.52 4.5619551,19.200001 Z M 16.136655,18.2253 l -0.296656,-0.0147 -1.44,-0.9306 -1.44,-0.930599 1.143344,-0.0147 1.143343,-0.0147 0.593313,0.96 0.593313,0.960001 -0.296657,-0.0147 z m 11.223343,-0.02018 -0.96,-0.02505 -3.839999,-2.36512 -3.84,-2.36512 0.96,0.02505 0.96,0.02505 3.84,2.365121 3.839999,2.36512 z m -7.247999,-0.934202 -0.432,-0.0091 -4.08,-2.44533 -4.08,-2.44533 v -0.503885 -0.503885 l 3.6,2.151931 3.6,2.151932 0.912,0.806365 0.912,0.806366 z m 8.687999,-1.975468 -0.48,-0.0035 -2.4,-1.371964 -2.399999,-1.371963 1.016515,-0.03402 1.016516,-0.03402 1.863484,1.40947 1.863484,1.409468 z M 16.983484,12.48 h -0.296516 l -1.863484,-1.492959 -1.863485,-1.4929598 2.16,1.0467368 2.16,1.046736 V 12.033777 12.48 Z m 4.8,-0.96 h -0.296517 l -1.863483,-1.492959 -1.863485,-1.4929599 2.16,1.046736 2.16,1.0467369 V 11.073777 11.52 Z"
         id="path4280" />
      <path
         style="fill:#333333;fill-opacity:1;stroke-width:0.96"
         d="m 16.319999,34.080001 -0.96,0.593313 v -0.96 -0.96 l 0.96,-0.593313 0.96,-0.593313 v 0.96 0.96 z m -2.216515,-0.48 h -0.296516 l -1.863484,-1.492959 -1.863485,-1.49296 2.16,1.046736 2.16,1.046736 v 0.446224 0.446223 z m 4.67303,-0.07579 -1.016515,-0.07579 1.205982,-0.486205 1.20598,-0.486203 -0.415499,-0.672292 -0.415499,-0.672293 h 1.914019 1.91402 l -1.687986,1.234291 -1.687986,1.234286 -1.016516,-0.07579 z M 9.3034839,30.720001 H 9.0069684 l -1.8634844,-1.49296 -1.8634843,-1.492959 2.1599999,1.046736 2.1599998,1.046736 v 0.446224 0.446223 z m 8.4565151,0 h -0.48 v -0.48 -0.48 h 0.48 0.48 v 0.48 0.48 z m -3.783344,-0.96 h -0.423343 l -0.684985,-1.108328 -0.684984,-1.108329 1.108329,0.684984 1.108327,0.684985 v 0.423344 0.423344 z m 5.703344,0 h -0.48 v -0.48 -0.48 h 0.48 0.48 v 0.48 0.48 z m 3.726687,0 h -0.48 l 0.593313,-0.96 0.593312,-0.96 h 0.48 0.48 l -0.593312,0.96 -0.593313,0.96 z m -5.646687,-0.96 h -0.48 v -0.48 -0.48 h 0.48 0.48 v 0.48 0.48 z m -13.2565149,-0.96 H 4.2069687 l -1.8634844,-1.49296 -1.86348433,-1.492959 2.15999983,1.046736 2.1599999,1.046736 v 0.446223 0.446224 z m 11.3931709,0 h -0.423343 l -0.684985,-1.108328 -0.684984,-1.108329 1.108328,0.684984 1.108328,0.684985 v 0.423344 0.423344 z m 5.703344,0 h -0.48 v -0.48 -0.48 h 0.48 0.48 v 0.48 0.48 z m -12.2965151,-0.96 H 9.0069684 l -1.8634844,-1.49296 -1.8634843,-1.492959 2.1599999,1.046736 2.1599998,1.046736 v 0.446223 0.446224 z m 10.5600001,0 h -0.296517 l -1.863483,-1.49296 -1.863485,-1.492959 2.16,1.046736 2.16,1.046736 v 0.446223 0.446224 z m 6.296514,-0.07579 -1.679999,-0.07579 1.205981,-0.486205 1.205981,-0.486203 -0.50164,-0.811673 -0.501642,-0.811671 0.97566,-0.602992 0.975659,-0.60299 V 24.903343 26.88 Z m -13.199999,-0.88421 h -0.48 v -0.48 -0.48 h 0.48 0.48 v 0.48 0.48 z m -1.736515,-0.96 h -0.296516 l -1.8634841,-1.49296 -1.8634843,-1.492959 2.1599998,1.046736 2.1599996,1.046736 v 0.446223 0.446224 z m 10.913171,0 h -0.903344 l -0.586516,-0.949004 -0.586517,-0.949004 1.48986,0.571713 1.489861,0.571714 v 0.37729 0.377291 z m -20.7642079,-0.96 H 0.89244713 l 1.02755277,-1.92 1.0275527,-1.92 h 0.48 0.48 l -1.0275528,1.92 -1.0275527,1.92 z m 13.8042079,-0.0147 -0.296656,-0.0147 -1.44,-0.930599 -1.44,-0.930599 1.143344,-0.0147 1.143344,-0.0147 0.593312,0.96 0.593313,0.96 -0.296657,-0.0147 z m 9.303344,-0.945299 h -0.48 v -0.48 -0.48 h 0.48 0.48 v 0.48 0.48 z m -18.2399994,-0.96 H 5.7599997 v -0.48 -0.48 h 0.4799999 0.48 v 0.48 0.48 z m 10.6166554,0 h -0.423343 l -0.684985,-1.108328 -0.684984,-1.108329 1.108328,0.684984 1.108328,0.684985 v 0.423344 0.423344 z m 5.703344,0 h -0.48 v -0.48 -0.48 h 0.48 0.48 v 0.48 0.48 z m 5.692446,0 h -0.48 l 1.027553,-1.92 1.027554,-1.92 h 0.479999 0.48 l -1.027553,1.92 -1.027553,1.92 z M 10.376656,21.1053 10.079999,21.0906 8.6399995,20.160001 7.1999996,19.229402 l 1.1433436,-0.0147 1.1433436,-0.0147 0.5933122,0.96 0.593313,0.96 -0.296656,-0.0147 z M 20.823484,21.12 h -0.296517 l -1.863483,-1.49296 -1.863485,-1.492959 2.16,1.046736 2.16,1.046736 V 20.673776 21.12 Z m -6.903485,-0.96 h -0.48 V 19.68 19.2 h 0.48 0.48 v 0.48 0.48 z m 10.743484,0 h -0.296516 l -1.863484,-1.49296 -1.863484,-1.492959 2.16,1.046736 2.16,1.046736 V 19.713776 20.16 Z m -19.7771173,-1.723552 -0.566366,0.67645 0.48,-9.3164501 0.48,-9.31644889 8.8824183,-0.0571985 8.882419,-0.0571985 L 14.402418,0.69882634 5.7599997,1.0320496 5.781346,7.956025 5.8026925,14.88 l 1.9934653,-2.4 1.9934656,-2.4 -2.168446,3.84 -2.1684457,3.840001 z M 12.056656,19.2 h -0.423344 l -0.684985,-1.108328 -0.684984,-1.108329 1.108329,0.684984 1.108327,0.684985 V 18.776656 19.2 Z m 4.079999,-0.974701 -0.296656,-0.0147 -1.44,-0.9306 -1.44,-0.930599 1.143344,-0.0147 1.143343,-0.0147 0.593313,0.96 0.593313,0.960001 -0.296657,-0.0147 z m 10.32,0.0147 h -0.423344 l -0.684985,-1.108328 -0.684984,-1.108329 1.108329,0.684984 1.108327,0.684985 v 0.423344 0.423344 z M 9.1199995,17.28 h -0.48 V 16.8 16.32 h 0.48 0.4799999 v 0.48 0.48 z m 10.7434845,0 h -0.296517 l -1.863483,-1.492959 -1.863485,-1.492959 2.16,1.046736 2.16,1.046736 V 16.833777 17.28 Z m 11.268961,0 h -0.48 l 1.027553,-1.92 1.027553,-1.92 h 0.48 0.48 l -1.027553,1.92 -1.027553,1.92 z m -7.612446,-0.96 h -0.48 v -0.48 -0.48 h 0.48 0.48 v 0.48 0.48 z m -1.623344,-0.9747 -0.296656,-0.0147 -1.44,-0.930599 -1.44,-0.930599 1.143343,-0.0147 1.143344,-0.0147 0.593313,0.96 0.593312,0.96 -0.296656,-0.0147 z m 6.423343,0.0147 h -0.48 V 14.88 14.4 h 0.48 0.48 v 0.48 0.48 z M 14.879999,14.4 h -0.48 v -0.48 -0.48 h 0.48 0.48 v 0.48 0.48 z m 11.816656,-0.0147 -0.296657,-0.0147 -1.439999,-0.930599 -1.44,-0.930599 1.143343,-0.0147 1.143344,-0.0147 0.593312,0.96 0.593313,0.96 -0.296656,-0.0147 z M 13.016656,13.44 h -0.423344 l -0.684985,-1.108327 -0.684984,-1.108329 1.108329,0.684984 1.108327,0.684985 V 13.016657 13.44 Z m 18.663342,-0.07782 -0.48,0.02289 L 23.595337,8.7234306 15.990677,4.0617922 12.37322,4.0118675 8.7557635,3.9619428 8.3617203,6.5409715 7.9676772,9.1200003 7.8238384,5.8611796 7.6799995,2.6023589 l 6.4799995,0.6119959 6.48,0.6119959 2.4,0.1332003 2.399999,0.1332003 -3.108628,0.5936244 -3.108628,0.5936245 3.828628,2.1886651 3.828628,2.1886652 V 5.3886652 1.1200001 l -1.2,-0.48421061 L 24.479999,0.15157895 26.159998,0.07578948 27.839998,0 v 5.1629069 5.1629071 l 2.16,1.506739 2.16,1.50674 -0.48,0.02289 z M 16.983484,12.48 h -0.296516 l -1.863484,-1.492959 -1.863485,-1.4929598 2.16,1.0467368 2.16,1.046736 V 12.033777 12.48 Z m 4.8,-0.96 h -0.296517 l -1.863483,-1.492959 -1.863485,-1.4929599 2.16,1.046736 2.16,1.0467369 V 11.073777 11.52 Z M 9.9666868,9.6000003 h -0.48 l 0.5933122,-0.96 0.593313,-0.9600001 h 0.48 0.48 l -0.593313,0.9600001 -0.593312,0.96 z M 11.999999,6.7200002 h -0.48 v -0.48 -0.48 h 0.48 0.48 v 0.48 0.48 z"
         id="path4278" />
    </g>
  </g>
</svg>
