<?xml version="1.0" encoding="UTF-8" standalone="no"?>
<svg
   xmlns:dc="http://purl.org/dc/elements/1.1/"
   xmlns:cc="http://creativecommons.org/ns#"
   xmlns:rdf="http://www.w3.org/1999/02/22-rdf-syntax-ns#"
   xmlns:svg="http://www.w3.org/2000/svg"
   xmlns="http://www.w3.org/2000/svg"
   xmlns:sodipodi="http://sodipodi.sourceforge.net/DTD/sodipodi-0.dtd"
   xmlns:inkscape="http://www.inkscape.org/namespaces/inkscape"
   sodipodi:docname="drawing-5.svg"
   inkscape:version="1.0 (4035a4fb49, 2020-05-01)"
   id="svg154"
   version="1.1"
   viewBox="0 0 8.7022963 8.7843685"
   height="8.7843685mm"
   width="8.7022963mm">
  <defs
     id="defs148" />
  <sodipodi:namedview
     inkscape:window-maximized="0"
     inkscape:window-y="32"
     inkscape:window-x="698"
     inkscape:window-height="681"
     inkscape:window-width="630"
     fit-margin-bottom="0"
     fit-margin-right="0"
     fit-margin-left="0"
     fit-margin-top="0"
     showgrid="false"
     inkscape:document-rotation="0"
     inkscape:current-layer="layer1"
     inkscape:document-units="mm"
     inkscape:cy="30.886093"
     inkscape:cx="-0.69757337"
     inkscape:zoom="0.35"
     inkscape:pageshadow="2"
     inkscape:pageopacity="0.0"
     borderopacity="1.0"
     bordercolor="#666666"
     pagecolor="#ffffff"
     id="base" />
  <metadata
     id="metadata151">
    <rdf:RDF>
      <cc:Work
         rdf:about="">
        <dc:format>image/svg+xml</dc:format>
        <dc:type
           rdf:resource="http://purl.org/dc/dcmitype/StillImage" />
        <dc:title></dc:title>
      </cc:Work>
    </rdf:RDF>
  </metadata>
  <g
     transform="translate(-106.0179,-139.99472)"
     id="layer1"
     inkscape:groupmode="layer"
     inkscape:label="Layer 1">
    <g
       id="g104"
       transform="matrix(0.26458333,0,0,0.26458333,106.05175,140.01609)">
      <path
         style="fill:#e6e6e6;fill-opacity:1;stroke-width:0.96"
         d="M 15.193846,32.639999 H 7.6799998 V 30.783764 28.92753 l -2.64,-0.303766 -2.6399999,-0.303765 v -4.8 -4.8 l 2.4,-0.321289 2.3999999,-0.321288 0.912,-0.878711 L 9.0239997,16.32 H 7.7692905 6.5145813 L 7.0402273,14.950188 7.5658731,13.580377 6.4229365,12.642173 5.2799998,11.70397 2.8799999,11.371985 0.47999999,11.04 0.19209229,5.5199998 -0.0958154,0 H 7.632092 15.36 l -0.03053,9.3599997 -0.03053,9.3599993 -1.275302,-1.68 L 12.748334,15.36 H 11.105595 9.4628569 L 10.731428,16.613715 12,17.867431 l 1.732999,0.656492 1.733,0.656493 -0.293,4.569791 -0.292999,4.569792 -3.138225,0.302183 -3.138225,0.302184 0.5548812,0.897816 0.5548811,0.897817 H 12.560656 15.408 l 0.565516,-2.827582 0.565516,-2.827583 2.050484,-0.401682 2.050483,-0.401683 -2.16,-0.130735 L 16.32,23.999999 v -3.951965 -3.951967 l 1.813729,0.474301 1.81373,0.474301 1.30627,-0.827634 1.30627,-0.827635 -2.64,-0.0147 -2.64,-0.0147 V 11.599999 7.8399998 l 1.2,-0.4842106 1.2,-0.4842105 -1.68,-0.075789 L 16.32,6.7199998 V 5.8179505 4.9159011 l 3.599999,-0.3765716 3.6,-0.3765717 -3.6,-0.1613789 L 16.32,3.8399999 v -0.96 -0.96 h 3.860581 3.860581 l 1.093513,2.4 1.093513,2.3999999 h 1.68739 1.687389 l 1.518517,0.5827092 1.518515,0.5827093 V 11.622709 15.36 h -3.250265 -3.250265 l -2.749735,1.434085 -2.749735,1.434086 1.44,-0.0088 1.44,-0.0088 1.407804,-0.890384 1.407802,-0.890386 1.232198,1.022632 1.232196,1.022724 v 7.082453 7.082453 h -0.96 -0.96 l -0.143839,-6.96 -0.143838,-6.96 -0.399927,2.64 -0.399927,2.64 h -0.728892 -0.728894 l -2.251127,-2.396214 -2.251126,-2.396215 -0.47033,0.470329 -0.470329,0.470329 1.658848,1.833006 1.658846,1.833004 0.249113,4.41288 0.249114,4.412881 z m 3.526153,-1.92 h 1.44 v -0.96 -0.96 h -1.44 -1.44 v 0.96 0.96 z m -13.6799992,-3.84 h 1.2 v -3.36 -3.36 h -1.2 -1.1999999 v 3.36 3.36 z m 5.4136472,0 H 13.44 V 23.631913 20.383827 L 10.8,19.876686 8.1599998,19.369545 7.7078017,19.81697 7.2556036,20.264396 8.6678016,21.156592 10.08,22.048788 11.04,22.48271 12,22.916631 9.7336471,24.898315 7.4672946,26.879999 Z m 7.306352,0 h 0.48 v -0.48 -0.48 h -0.48 -0.48 v 0.48 0.48 z m -9.5999992,-2.88 h 0.4799999 v -0.48 -0.48 h -0.4799999 -0.48 v 0.48 0.48 z M 9.2799997,14.08 9.9199994,13.44 9.2799997,12.799999 8.6399997,12.16 v 1.28 1.279999 z M 23.905493,14.4 h 0.941194 l 0.632786,-1.02387 0.632786,-1.02387 -0.336129,-0.319305 -0.336131,-0.319306 -1.23785,1.343175 L 22.9643,14.4 Z m -1.345494,-2.88 h 0.48 v -0.48 -0.48 h -0.48 -0.48 v 0.48 0.48 z M 10.3123,9.7502282 13.424599,9.3917381 12.893466,8.5323453 12.362331,7.6729527 10.114061,8.2372325 7.8657917,8.8015123 6.891605,7.0607372 5.9174182,5.319962 3.8127692,7.2199808 1.7081203,9.1199997 4.45406,9.6143594 7.1999998,10.108718 Z M 9.8379203,6.7199998 H 10.926968 L 9.15682,5.4256356 7.3866715,4.1312714 8.0699919,3.0256357 8.7533124,1.9199999 H 5.3366562 1.9199999 V 3.988788 6.0575759 L 3.8677867,4.2948531 5.8155735,2.5321304 7.2822224,4.626065 8.7488713,6.7199998 Z M 13.193429,4.4848614 13.609723,2.729723 13.044861,2.1648615 12.48,1.6 l -0.598598,0.598597 -0.598596,0.5985971 0.747165,1.7214028 0.747165,1.7214029 z"
         id="path126" />
      <path
         style="fill:#d4d4d4;fill-opacity:1;stroke-width:0.96"
         d="M 15.806781,32.639999 H 8.4602501 L 7.972367,30.774331 7.484484,28.908663 4.9422419,28.614331 2.3999999,28.319999 v -4.786853 -4.786852 l 1.92,-0.302633 L 6.2399998,18.141027 8.4624346,17.034879 10.68487,15.92873 11.342434,16.914388 12,17.900047 l 1.732999,0.640185 1.733,0.640184 -0.293,4.569791 -0.292999,4.569792 -3.138225,0.302183 -3.138225,0.302184 0.5548812,0.897816 0.5548811,0.897817 H 12.560656 15.408 l 0.565516,-2.827582 0.565516,-2.827583 2.050484,-0.401682 2.050483,-0.401683 -2.16,-0.130735 L 16.32,23.999999 v -3.900343 -3.900344 l 2.159999,0.300344 2.16,0.300343 1.68,1.82689 1.68,1.826889 0.09827,-1.826889 0.09827,-1.82689 0.78824,3.353494 0.788241,3.353493 -0.416521,0.41652 -0.416521,0.41652 -2.869986,-2.749621 -2.869987,-2.74962 v 1.50206 1.502061 l 1.407366,1.16801 1.407366,1.16801 -0.117244,3.1187 -0.117244,3.118701 0.686535,1.110836 0.686534,1.110836 z m 2.913218,-1.92 h 1.44 v -0.96 -0.96 h -1.44 -1.44 v 0.96 0.96 z m -10.0799993,-3.84 H 13.44 v -3.248086 -3.248086 l -2.64,-0.507141 -2.6400002,-0.507141 -0.48,0.526656 -0.48,0.526656 0.96,0.364177 0.9599999,0.364177 L 10.56,22.113848 12,23.076485 10.136515,24.498242 8.2730308,25.919999 H 6.9075559 5.5420811 l 0.4226942,-2.88 0.4226942,-2.88 H 5.1137347 3.8399999 v 3.36 3.36 z m 9.1199993,0 h 0.48 v -0.48 -0.48 h -0.48 -0.48 v 0.48 0.48 z m -9.5999992,-2.88 h 0.4799999 v -0.48 -0.48 h -0.4799999 -0.48 v 0.48 0.48 z m 20.4424642,1.999581 -0.288126,7.120419 -0.577391,-6.24 -0.577391,-6.24 -0.745605,-2.4 -0.745605,-2.399999 1.611122,1.519581 1.611122,1.51958 z M 14.321484,17.279999 H 13.44 V 16.32 15.36 H 11.52 9.5999997 L 9.4864175,13.2 9.3728353,11.04 8.6399997,13.92 7.9071642,16.799999 7.793582,14.658289 7.6799998,12.516579 5.0399998,11.938107 2.3999999,11.359635 1.2,10.989947 0,10.620259 V 5.3101292 0 h 7.6688693 7.6688697 l -0.06738,8.6399997 -0.06738,8.6399993 H 14.32149 Z M 7.5185158,9.9452051 8.7970316,9.5999997 h 2.3781394 2.378141 L 12.935865,8.6009495 12.318418,7.6018994 10.393876,8.2127254 8.4693334,8.8235514 7.0175657,6.7508627 5.5657981,4.6781739 3.742899,6.3278749 1.9199999,7.9775759 v 0.744443 0.744443 l 2.16,0.4119743 2.1599999,0.4119748 z M 9.932272,6.7199998 h 0.994696 L 9.15682,5.4256356 7.3866715,4.1312714 8.0699919,3.0256357 8.7533124,1.9199999 H 5.3366562 1.9199999 V 3.988788 6.0575759 L 3.6841785,4.4610163 5.4483571,2.8644566 7.1929665,4.7922282 8.9375758,6.7199998 Z M 13.193429,4.4848614 13.609723,2.729723 13.044861,2.1648615 12.48,1.6 11.881402,2.198597 11.282806,2.7971941 12.029971,4.5185969 12.777136,6.2399998 Z M 22.983343,17.279999 H 22.079999 V 16.32 15.36 h -2.4 -2.4 V 11.580823 7.8016481 l 3.12,-0.3871886 3.12,-0.3871886 -3.6,-0.1536355 L 16.32,6.7199998 V 5.8179505 4.9159011 l 3.599999,-0.3765716 3.6,-0.3765717 -3.6,-0.1613789 L 16.32,3.8399999 V 2.824802 1.8096041 l 4.041746,0.2951979 4.041747,0.2951979 0.556166,2.4 0.556168,2.3999999 3.562085,0.2979507 3.562087,0.2979505 V 11.57795 15.36 h -3.783344 -3.783343 l -0.593313,0.96 -0.593312,0.959999 z M 23.905493,14.4 h 0.941194 l 0.632786,-1.02387 0.632786,-1.02387 -0.336129,-0.319305 -0.336131,-0.319306 -1.23785,1.343175 L 22.9643,14.4 Z m -1.345494,-2.88 h 0.48 v -0.48 -0.48 h -0.48 -0.48 v 0.48 0.48 z m 2.4,-2.2272714 h 6.24 l -3.12,-0.3871886 -3.12,-0.3871886 -3.12,0.3871886 -3.12,0.3871886 z"
         id="path124" />
      <path
         style="fill:#c2c2c2;fill-opacity:1;stroke-width:0.96"
         d="M 15.783901,32.639999 H 8.4602501 L 7.972367,30.774331 7.484484,28.908663 4.9422419,28.614331 2.3999999,28.319999 V 23.529427 18.738855 L 5.2255711,18.249428 8.0511424,17.759999 7.865571,17.039999 7.6799998,16.32 V 14.437002 12.554004 L 3.8399999,11.52 0,10.485995 V 5.2026159 -0.08076337 L 7.4399998,0.19961831 14.88,0.47999999 15.178608,5.1871217 15.477216,9.8942435 14.218608,10.692421 12.96,11.490599 l 1.053907,0.0147 1.053907,0.0147 0.08189,2.88 0.08189,2.879999 H 14.335798 13.44 V 16.32 15.36 H 11.463343 9.4866871 L 9.9599997,14.594163 10.433312,13.828327 9.5513563,12.434163 8.6694002,11.04 l -0.0147,2.64 -0.0147,2.64 H 10.08 11.52 v 0.848034 0.848033 l 1.975675,0.516651 1.975676,0.516651 -0.295676,4.635314 -0.295675,4.635316 -3.12,0.300824 -3.1200003,0.300824 v 0.796467 0.796466 l 1.5185153,0.58271 1.518517,0.582709 h 4.241483 4.241484 v -1.44 -1.44 h -1.36 H 17.44 l -0.428572,1.2 -0.428571,1.2 -0.579685,-0.528256 -0.579685,-0.528257 0.845742,-2.831743 0.845742,-2.831744 0.08251,1.2 0.08251,1.2 h 1.016657 1.016656 l -0.542638,-0.878006 -0.542637,-0.878007 1.205981,-0.486203 1.205981,-0.486205 -2.16,-0.07579 -2.159999,-0.07579 0.0075,-2.64 0.0075,-2.64 2.282949,-1.057973 2.282948,-1.057973 1.291923,1.792447 1.291921,1.792446 0.67017,-1.694474 0.670165,-1.694473 0.06748,2.081485 0.06747,2.081483 0.6281,1.758517 0.628101,1.758515 -2.840631,-2.64 -2.84063,-2.64 h -0.66747 -0.66747 v 1.322453 1.322454 l 1.501715,1.246311 1.501714,1.246312 -0.564948,2.250935 -0.564948,2.250933 1.01701,1.9003 1.017011,1.900302 z m -7.1439013,-5.76 H 13.44 v -3.36 -3.36 H 11.52 9.5999997 v -1.152 -1.152 L 8.4863216,18.969677 7.3726435,20.083356 9.6287709,21.910257 11.884899,23.737158 9.7626093,24.872973 7.6403196,26.008789 6.6097569,25.371865 5.579194,24.734943 6.0164719,22.447471 6.4537499,20.159999 H 5.1468748 3.8399999 v 3.36 3.36 z m -0.4799999,-2.88 h 0.4799999 v -0.48 -0.48 h -0.4799999 -0.48 v 0.48 0.48 z M 7.5185158,9.9452051 8.7970316,9.5999997 H 11.118515 13.44 V 8.5359281 7.4718563 L 11.174737,8.0404013 8.9094728,8.6089462 7.178915,6.6967014 5.4483571,4.7844565 3.6841785,6.3810162 1.9199999,7.9775759 v 0.744443 0.744443 l 2.16,0.4119743 2.1599999,0.4119748 z M 3.0095653,5.0570536 5.1925591,2.9141073 7.3681371,4.9579566 9.5437149,7.0018059 10.860186,5.9092318 12.176658,4.8166577 12.808328,5.4483287 13.44,6.0799998 V 3.4741912 0.86838256 L 7.4399998,1.1541913 1.44,1.44 1.1332857,4.3199999 0.82657159,7.1999998 Z M 9.5999997,5.7599998 H 8.7533124 L 8.1083031,4.7163528 7.4632938,3.6727059 8.5316467,2.6043529 9.5999997,1.536 l 1.0683533,1.0683529 1.068352,1.068353 -0.645008,1.0436469 -0.64501,1.043647 z M 28.401913,32.639999 h -0.398086 l -0.422135,-6 -0.422136,-6 -0.69103,-2.4 -0.691029,-2.399999 1.511251,1.863484 1.511251,1.863484 v 6.536516 6.536515 z M 17.68,17.20421 l -1.84,-0.07579 1.259999,-0.50421 1.26,-0.50421 0.580001,0.579999 0.579999,0.58 z M 22.983343,17.28 h -0.903344 v -0.96 -0.96 h -2.4 -2.4 V 11.57795 7.795901 l 3.6,-0.3765716 3.6,-0.3765717 -4.08,-0.1613789 L 16.32,6.7199998 V 5.8179505 4.9159011 l 3.599999,-0.3765716 3.6,-0.3765717 -3.6,-0.1613789 L 16.32,3.8399999 V 2.824802 1.8096041 l 4.079999,0.2951979 4.08,0.2951979 0.303765,2.6399999 0.303766,2.64 h 3.776234 3.776235 V 11.52 15.36 h -3.783344 -3.783343 l -0.593313,0.96 -0.593312,0.959999 z m 0.92215,-2.88 h 0.941194 l 0.632786,-1.02387 0.632786,-1.02387 -0.336129,-0.319305 -0.336131,-0.319306 -1.23785,1.343175 L 22.9643,14.4 Z m 3.614506,-1.28 0.64,-0.64 -0.64,-0.640001 -0.64,-0.639999 v 1.28 1.279999 z m 3.846346,-0.43167 0.494767,-1.231669 -0.540428,-1.408331 -0.540426,-1.4083303 -6.030129,0.075789 -6.03013,0.075789 1.44,0.548157 1.44,0.5481566 0.7053,1.0560537 L 23.010598,12 l 0.0147,-1.2 0.0147,-1.2000003 h 3.84 3.84 l 0.07579,2.1600003 0.07579,2.16 z M 19.679999,11.52 h 0.48 v -0.48 -0.48 h -0.48 -0.48 v 0.48 0.48 z"
         id="path122" />
      <path
         style="fill:#b0b0b0;fill-opacity:1;stroke-width:0.96"
         d="M 15.148239,32.639999 H 8.4602501 L 7.9850922,30.822993 7.5099343,29.005986 4.6618215,28.436364 1.8137087,27.866741 2.1068543,23.298323 2.3999999,18.729904 5.2255711,18.244952 8.0511424,17.759999 7.865571,17.039999 7.6799998,16.32 V 14.437002 12.554004 L 3.7915663,11.506958 -0.09686728,10.459911 0.19156635,5.4699557 0.47999999,0.47999999 H 7.6799998 14.88 l 0.298608,4.70712171 0.298608,4.7071218 -1.258608,0.7981775 -1.258608,0.798178 1.053907,0.0147 1.053907,0.0147 0.08189,2.88 0.08189,2.88 h -0.895792 l -0.895798,5e-6 V 16.32 15.36 H 11.463343 9.4866871 L 9.9599997,14.594163 10.433312,13.828327 9.5513563,12.434163 8.6694002,11.04 l -0.0147,2.64 -0.0147,2.64 H 10.08 11.52 v 0.848034 0.848033 l 1.92,0.502091 1.92,0.502092 v 4.307166 4.307164 l -1.518516,0.58271 -1.518516,0.582709 H 10.401484 8.4799997 l 0.3958441,1.2 0.3958441,1.2 5.4441551,0.287908 5.444156,0.287908 v -1.487908 -1.487908 h -1.92 H 16.32 v -0.96 -0.96 l 2.159999,-0.0147 2.16,-0.0147 -1.308626,-0.829091 -1.308626,-0.82909 1.308626,-0.52042 1.308626,-0.520425 -2.4,-0.09049 -2.399999,-0.09049 1.439999,-0.930599 1.44,-0.930599 -1.2,-0.0147 -1.199999,-0.0147 v -1.92 -1.92 h 1.919999 1.92 V 17.13311 16.026221 l 1.92,2.213778 1.92,2.213779 V 18.706889 16.96 l 0.342106,0.399999 0.342104,0.4 0.632642,3.313737 0.632642,3.313736 -2.707276,-2.593736 -2.707278,-2.593737 h -0.66747 -0.66747 v 1.248 1.248 l 1.2,1.199844 1.2,1.199843 0.118114,4.272157 0.118114,4.272156 z m -6.5082393,-5.76 H 13.44 l -0.0075,-3.12 -0.0075,-3.12 -2.391864,-1.109373 -2.3918643,-1.109374 -0.5847182,0.946095 -0.5847182,0.946093 2.1626841,1.514803 2.1626836,1.514803 -1.762096,1.288477 -1.7621002,1.288476 H 7.4965154 6.7199998 v -2.88 -2.88 h -1.44 -1.4399999 v 3.36 3.36 z m -0.4799999,-2.88 h 0.4799999 v -0.48 -0.48 h -0.4799999 -0.48 v 0.48 0.48 z M 9.5999997,9.7622426 12.96,9.3282403 13.29613,9.0479899 13.63226,8.7677395 12.970663,7.6972537 12.309067,6.6267679 10.92639,7.7742868 9.5437149,8.9218058 7.334127,6.8460058 5.1245392,4.7702058 3.5222696,6.5406938 1.9199999,8.3111818 v 0.57764 0.5776401 l 2.16,0.364892 2.1599999,0.3648921 z M 3.0095653,5.0570536 5.1925591,2.9141073 7.1821034,4.783187 9.1716475,6.6522667 11.305824,6.0941672 13.44,5.5360676 V 3.2022251 0.86838256 L 7.4399998,1.1541913 1.44,1.44 1.1332857,4.3199999 0.82657159,7.1999998 Z M 9.5999997,5.7599998 H 8.7533124 L 8.1083031,4.7163528 7.4632938,3.6727059 8.5316467,2.6043529 9.5999997,1.536 l 1.0683533,1.0683529 1.068352,1.068353 -0.645008,1.0436469 -0.64501,1.043647 z M 28.555395,27.4 28.203041,33.119999 28.02152,27.056888 27.839999,20.993776 26.846223,19.136888 25.852446,17.279999 h 0.975487 0.975486 l 0.552165,2.200002 0.552166,2.200001 z M 16.32,30.719999 h -1.28 l 0.639999,-0.64 0.640001,-0.64 0.64,0.64 0.639999,0.64 z m 0.479999,-4.8 H 16.32 v -0.48 -0.48 h 0.479999 0.48 v 0.48 0.48 z M 17.68,17.20421 l -1.84,-0.07579 1.259999,-0.50421 1.26,-0.50421 0.580001,0.579999 0.579999,0.58 z M 22.983343,17.28 h -0.903344 v -0.893231 -0.893231 l -2.16,-0.306769 -2.16,-0.306768 -0.294302,-3.538813 -0.294303,-3.5388112 3.654303,-0.3798091 3.654302,-0.379809 -4.08,-0.1613789 L 16.32,6.7199998 V 5.8151977 4.9103957 l 4.079999,-0.3674789 4.08,-0.3674791 -4.08,-0.1677189 L 16.32,3.8399999 V 2.824802 1.8096041 l 4.079999,0.2951979 4.08,0.2951979 0.303765,2.6399999 0.303766,2.64 h 3.776234 3.776235 V 11.52 15.36 h -3.783344 -3.783343 l -0.593313,0.96 -0.593312,0.959999 z m 0.92215,-2.88 h 0.941194 l 0.632786,-1.02387 0.632786,-1.02387 -0.336129,-0.319305 -0.336131,-0.319306 -1.23785,1.343175 L 22.9643,14.4 Z m 3.614506,-1.28 0.64,-0.64 -0.64,-0.640001 -0.64,-0.639999 v 1.28 1.279999 z m 3.846346,-0.43167 0.494767,-1.231669 -0.540428,-1.408331 -0.540426,-1.4083303 -6.030129,0.1113614 -6.03013,0.1113612 1.691754,0.4412934 1.691753,0.4412934 -0.54841,0.8873449 L 21.006687,11.52 h 1.016656 1.016656 V 10.56 9.5999997 h 3.84 3.84 L 30.606315,10.32 l -0.113684,0.72 0.189473,1.44 0.189474,1.44 z M 19.679999,11.52 h 0.48 v -0.48 -0.48 h -0.48 -0.48 v 0.48 0.48 z"
         id="path120" />
      <path
         style="fill:#9e9e9e;fill-opacity:1;stroke-width:0.96"
         d="M 15.148239,32.639999 H 8.4602501 l -0.5020913,-1.92 -0.5020912,-1.92 H 5.8400337 4.2239999 l -1.152,-1.152 -1.152,-1.152 V 22.81787 19.13974 l 1.2,-0.304322 1.2,-0.304323 L 7.4399998,17.508937 10.56,16.486778 v 0.809842 0.809842 l 2.16,0.306768 2.16,0.306769 0.302276,4.224856 0.302275,4.224854 -1.262275,0.800445 -1.262276,0.800444 -2.24,0.0147 -2.2400003,0.0147 0.3958441,1.2 0.3958441,1.2 5.4441551,0.287908 5.444156,0.287908 v -1.487908 -1.487908 h -1.92 H 16.32 v -0.96 -0.96 l 2.159999,-0.0147 2.16,-0.0147 -1.308626,-0.829091 -1.308626,-0.82909 1.308626,-0.52042 1.308626,-0.520425 -2.4,-0.09049 -2.399999,-0.09049 1.439999,-0.930599 1.44,-0.930599 -1.2,-0.0147 -1.199999,-0.0147 v -1.92 -1.92 h 3.359999 3.36 l 0.0147,1.2 0.0147,1.2 0.930605,-1.44 0.930599,-1.44 0.0147,1.601485 0.0147,1.601483 0.6281,1.758517 0.628101,1.758515 -2.950091,-2.744869 -2.950089,-2.744869 -1.100547,0.680176 -1.100547,0.680175 1.742536,1.925223 1.742537,1.925223 0.118114,4.21947 0.118114,4.219471 z M 8.8799997,26.690169 13.92,26.399999 l 0.300823,-3.12 0.300825,-3.12 H 12.59748 10.673312 L 10.132506,19.284956 9.5916987,18.409912 6.7158493,19.495424 3.8399999,20.580935 v 3.199701 3.199701 z M 7.2631116,25.919999 H 6.7199998 v -2.913776 -2.913777 l 1.8665342,0.99894 1.866534,0.998938 0.560354,0.906671 0.560353,0.906671 -1.8837753,1.008167 -1.8837764,1.008166 z m 1.3768881,-1.92 h 1.2799997 l -0.6399997,-0.64 -0.64,-0.639999 -0.64,0.639999 -0.6399999,0.64 z M 28.555395,27.4 28.203041,33.119999 28.02152,27.056888 27.839999,20.993776 26.846223,19.136888 25.852446,17.279999 h 0.975487 0.975486 l 0.552165,2.200002 0.552166,2.200001 z M 16.32,30.719999 h -1.28 l 0.639999,-0.64 0.640001,-0.64 0.64,0.64 0.639999,0.64 z m 0.479999,-4.8 H 16.32 v -0.48 -0.48 h 0.479999 0.48 v 0.48 0.48 z M 14.88,17.279999 H 14.4 V 16.383765 15.487531 L 11.76,15.087603 9.1199997,14.687677 12.24,14.543838 15.36,14.4 v 1.44 1.439999 z m 2.8,-0.07579 -1.84,-0.07579 1.259999,-0.50421 1.26,-0.50421 0.580001,0.579999 0.579999,0.58 z m 2.959999,0.07579 h -0.48 v -0.48 V 16.32 h 0.48 0.48 v 0.479999 0.48 z m 2.208,0 h -0.768 v -0.893231 -0.893231 l -2.16,-0.306769 -2.16,-0.306768 -0.29795,-3.6 -0.297951,-3.6000002 3.657951,-0.144186 3.65795,-0.1441859 -4.32,-0.6716281 L 15.84,6.0483717 l 3.543343,-0.1441859 3.543344,-0.144186 0.593312,-0.9599999 0.593313,-0.96 H 20.216656 16.32 V 2.824802 1.8096041 l 4.079999,0.2951979 4.08,0.2951979 0.303765,2.6399999 0.303766,2.64 h 3.834186 3.834185 L 32.457949,11.28 l -0.29795,3.6 -3.36,0.308445 -3.36,0.308444 -0.912,0.891556 -0.912,0.891554 z M 25.187572,14.20613 31.199999,13.92 31.503764,11.28 31.80753,8.6399997 H 25.473636 19.13974 L 18.58716,10.08 l -0.552579,1.44 0.570282,1.48613 0.570282,1.486132 z M 22.023343,13.44 h -2.936656 l 0.593312,-0.96 0.593313,-0.96 h 2.343344 2.343343 v 0.96 0.96 z M 26.56,13.12 25.919999,13.759999 V 12.48 11.2 L 26.56,11.839999 27.199999,12.48 Z m 3.199999,0.32 h -0.96 v -0.96 -0.96 h 0.96 0.96 v 0.96 0.96 z M 20.56,10.484211 l -1.840001,-0.07579 1.26,-0.5042097 1.26,-0.5042106 L 21.82,9.9799994 22.399999,10.56 Z m 6.319999,-0.185681 h -4.32 l 2.16,-0.416034 2.16,-0.4160341 2.16,0.4160341 2.16,0.416034 z M 8.3199998,16 l -0.64,0.639999 V 15.36 14.08 l 0.64,0.639999 L 8.9599997,15.36 Z M 9.0848111,11.971299 8.0896225,13.246776 5.7248112,11.937406 3.3599999,10.628036 1.6298307,10.594017 -0.10033839,10.56 0.1898308,5.5199998 0.47999999,0.47999999 H 7.6799998 14.88 V 5.2799998 10.08 l -2.4,0.307911 -2.4,0.307911 z M 9.5999997,9.7491674 12.96,9.3282403 13.29613,9.0479899 13.63226,8.7677395 12.970663,7.6972537 12.309067,6.6267679 10.92639,7.7742868 9.5437149,8.9218058 7.3442551,6.8555207 5.1447954,4.7892355 2.9538907,7.1213467 0.762986,9.4534578 3.5014929,9.8117757 6.2399998,10.170094 Z M 3.0838023,5.0533629 5.3752975,2.9067261 7.0419343,4.573363 8.7085712,6.2399998 h 2.8863208 2.886321 L 14.200606,3.8399999 13.92,1.44 H 7.6799998 1.44 L 1.1161536,4.3199999 0.79230714,7.1999998 Z M 9.5999997,5.7599998 H 8.7533124 L 8.1083031,4.7163528 7.4632938,3.6727059 8.5316467,2.6043529 9.5999997,1.536 l 1.0683533,1.0683529 1.068352,1.068353 -0.645008,1.0436469 -0.64501,1.043647 z M 12.48,13.44 H 9.5999997 V 12.48 11.52 H 12.48 15.36 v 0.96 0.96 z"
         id="path118" />
      <path
         style="fill:#8c8c8c;fill-opacity:1;stroke-width:0.96"
         d="M 15.398113,32.639999 H 8.9599997 l -0.6399999,-0.64 -0.64,-0.64 v -0.992 -0.992 l 1.1519999,1.152 1.152,1.152 H 15.072 20.159999 v -1.44 -1.44 h -1.92 H 16.32 v -0.96 -0.96 l 2.159999,-0.0147 2.16,-0.0147 -1.308626,-0.829091 -1.308626,-0.82909 1.308626,-0.52042 1.308626,-0.520425 -2.4,-0.09049 -2.399999,-0.09049 1.439999,-0.930599 1.44,-0.930599 -1.140336,-0.0147 -1.140337,-0.0147 0.144628,-1.92 0.14463,-1.92 h 3.155707 3.155708 l 0.0147,1.2 0.0147,1.2 0.930605,-1.44 0.930599,-1.44 0.0147,1.601485 0.0147,1.601483 0.6281,1.758517 0.628101,1.758515 -2.950091,-2.744869 -2.950089,-2.744869 -1.100547,0.680176 -1.100547,0.680175 1.742536,1.925223 1.742537,1.925223 0.118114,4.21947 0.118114,4.219471 z M 28.555395,27.4 28.203041,33.119999 28.02152,27.056888 27.839999,20.993776 26.846223,19.136888 25.852446,17.279999 h 0.975487 0.975486 l 0.552165,2.200002 0.552166,2.200001 z M 16.32,30.719999 h -1.28 l 0.639999,-0.64 0.640001,-0.64 0.64,0.64 0.639999,0.64 z m -7.7280003,-1.9347 -4.3679998,0.0147 -1.152,-1.152 -1.152,-1.152 V 22.81787 19.13974 l 1.2,-0.304322 1.2,-0.304323 L 7.4399998,17.508937 10.56,16.486778 v 0.809842 0.809842 l 2.16,0.306768 2.16,0.306769 0.302276,4.224856 0.302275,4.224854 -1.262275,0.800445 L 12.96,28.770598 Z m 0.688,-1.9053 H 14.4 v -3.34171 -3.34171 l -2.64,-0.69307 -2.6400003,-0.69307 -1.9199999,0.288451 -1.92,0.288452 -1.1999999,0.983876 -1.2,0.983875 V 23.477546 25.6 l 0.64,0.639999 0.6399999,0.64 z m -1.7834843,-0.96 H 6.7199998 v -2.4 -2.4 h 0.5431118 0.5431117 l 2.0298999,1.08637 2.0299008,1.086369 -1.796497,1.313631 -1.7964962,1.31363 z m 1.1434843,-1.92 h 0.96 v -0.423343 -0.423344 l -0.96,-0.593313 -0.9599999,-0.593312 v 1.016656 1.016656 z m 8.1599993,1.92 H 16.32 v -0.48 -0.48 h 0.479999 0.48 v 0.48 0.48 z M 14.88,17.279999 H 14.4 V 16.383765 15.487531 L 11.76,15.087603 9.1199997,14.687677 12.24,14.543838 15.36,14.4 v 1.44 1.439999 z m 2.8,-0.07579 -1.84,-0.07579 1.259999,-0.50421 1.26,-0.50421 0.580001,0.579999 0.579999,0.58 z m 2.959999,0.07579 h -0.48 v -0.48 V 16.32 h 0.48 0.48 v 0.479999 0.48 z m 2.208,0 h -0.768 v -0.893231 -0.893231 l -2.16,-0.306769 -2.16,-0.306768 V 11.52 8.1599998 l 3.36,-0.5936245 3.36,-0.5936243 -4.32,-0.2800112 L 15.84,6.4127287 l 3.359999,-0.3948092 3.36,-0.3948092 0.858859,-0.8384139 0.858859,-0.838414 -2.298858,-0.4957639 -2.29886,-0.495764 -1.92,-0.4399127 L 15.84,2.0749292 l 4.319999,0.1625354 4.32,0.1625353 0.303765,2.6399999 0.303766,2.64 h 3.834186 3.834185 L 32.457949,11.28 l -0.29795,3.6 -3.36,0.308445 -3.36,0.308444 -0.912,0.891556 -0.912,0.891554 z M 25.187572,14.20613 31.199999,13.92 31.503764,11.28 31.80753,8.6399997 H 25.473636 19.13974 L 18.58716,10.08 l -0.552579,1.44 0.570282,1.48613 0.570282,1.486132 z M 22.559999,13.44 h -2.4 v -0.96 -0.96 h 2.4 2.4 v 0.96 0.96 z M 26.56,13.12 25.919999,13.759999 V 12.48 11.2 L 26.56,11.839999 27.199999,12.48 Z m 3.199999,0.32 h -0.96 v -1.016657 -1.016656 l 0.96,0.593313 0.96,0.593312 V 13.016656 13.44 Z M 20.56,10.484211 l -1.840001,-0.07579 1.26,-0.5042097 1.26,-0.5042106 L 21.82,9.9799994 22.399999,10.56 Z m 6.319999,-0.185681 h -4.32 l 2.16,-0.416034 2.16,-0.4160341 2.16,0.4160341 2.16,0.416034 z M 8.3199998,16 l -0.64,0.639999 V 15.36 14.08 l 0.64,0.639999 L 8.9599997,15.36 Z M 9.0879108,11.96706 8.0958219,13.238298 6.2644264,11.899149 4.4330309,10.56 H 2.1663463 -0.10033839 L 0.1898308,5.5199998 0.47999999,0.47999999 H 7.6799998 14.88 V 5.2799998 10.08 l -2.4,0.307911 -2.4,0.307911 z M 9.5999997,9.7491674 12.96,9.3282403 13.29613,9.0479899 13.63226,8.7677395 12.970663,7.6972537 12.309067,6.6267679 10.92639,7.7742868 9.5437149,8.9218058 7.3442551,6.8555207 5.1447954,4.7892355 2.9538907,7.1213467 0.762986,9.4534578 3.5014929,9.8117757 6.2399998,10.170094 Z M 3.0838023,5.0533629 5.3752975,2.9067261 7.0419343,4.573363 8.7085712,6.2399998 h 2.8863208 2.886321 L 14.200606,3.8399999 13.92,1.44 H 7.6799998 1.44 L 1.1161536,4.3199999 0.79230714,7.1999998 Z m 6.7561974,0.4666369 -1.2,0.4000001 v -2.08 -2.08 l 1.2,0.4 L 11.04,2.56 V 3.8399999 5.1199998 Z M 12.48,13.44 H 9.5999997 V 12.48 11.52 H 12.48 15.36 v 0.96 0.96 z"
         id="path116" />
      <path
         style="fill:#7a7a7a;fill-opacity:1;stroke-width:0.96"
         d="M 15.398113,32.639999 H 8.9599997 l -0.6399999,-0.64 -0.64,-0.64 v -0.992 -0.992 l 1.1519999,1.152 1.152,1.152 h 5.6017763 5.601777 l -1.027554,-1.92 -1.027553,-1.92 -1.646223,-0.09569 -1.646223,-0.09569 2.399999,-0.768615 2.4,-0.768614 -1.44,-0.110393 -1.44,-0.110394 1.44,-0.930599 1.44,-0.930599 -2.4,-0.0294 -2.399999,-0.0294 1.439999,-0.930599 1.44,-0.930599 -0.994285,-0.0147 -0.994286,-0.0147 v -1.92 -1.92 h 3.154286 3.154285 l 0.0147,1.2 0.0147,1.2 0.930605,-1.44 0.930599,-1.44 0.0147,1.601485 0.0147,1.601483 0.6281,1.758517 0.628101,1.758515 -2.950091,-2.744869 -2.950089,-2.744869 -1.100547,0.680176 -1.100547,0.680175 1.742536,1.925223 1.742537,1.925223 0.118114,4.21947 0.118114,4.219471 z m 13.157382,-6.158244 -0.339444,6.638244 -0.188026,-6.063111 -0.188026,-6.063112 -1.072142,-2.096888 -1.072143,-2.096889 1.599613,1.521756 1.599611,1.521754 z M 9.0806015,27.640601 3.2812035,27.921203 2.6006017,27.240601 1.9199999,26.56 v -3.143345 -3.143343 l 1.2,-0.768884 1.2,-0.768883 L 7.4399998,17.640896 10.56,16.546248 v 0.780107 0.780107 l 2.16,0.306768 2.16,0.306769 v 4.32 4.32 z m 0.06722,-0.760602 H 14.515902 L 14.21795,23.317913 13.92,19.755827 11.52,19.181351 9.1199997,18.606876 6.2399998,19.178985 3.3599999,19.751094 3.044082,21.945363 l -0.3159181,2.19427 0.5257886,1.370183 0.5257886,1.370183 z m -1.6513056,-0.96 H 6.7199998 v -2.4 -2.4 h 0.5431118 0.5431117 l 2.0298999,1.08637 2.0299008,1.086369 -1.796497,1.313631 -1.7964962,1.31363 z m 1.1434843,-1.92 h 0.96 v -0.423343 -0.423344 l -0.96,-0.593313 -0.9599999,-0.593312 v 1.016656 1.016656 z m 8.1599998,1.92 h -0.48 v -0.48 -0.48 h 0.479999 0.48 v 0.48 0.48 z m -1.92,-8.64 H 14.4 V 16.383765 15.487531 L 11.76,15.087603 9.1199997,14.687677 12.24,14.543838 15.36,14.4 v 1.44 1.439999 z m 2.8,-0.07579 -1.84,-0.07579 1.259999,-0.50421 1.26,-0.50421 0.580001,0.579999 0.579999,0.58 z m 2.959999,0.07579 h -0.48 v -0.48 V 16.32 h 0.48 0.48 v 0.479999 0.48 z m 2.208,0 h -0.768 v -0.893231 -0.893231 l -2.16,-0.306769 -2.16,-0.306768 V 11.52 8.1599998 l 3.36,-0.4239928 3.36,-0.4239928 -4.32,-0.6318212 L 15.84,6.0483717 19.999999,5.9041858 24.16,5.7599998 23.764958,4.5599999 l -0.395042,-1.2 L 19.604958,2.776229 15.84,2.1924581 18.881484,2.056229 l 3.041483,-0.1362291 1.518517,0.5827093 1.518515,0.5827092 v 2.2972907 2.2972907 h 3.897951 3.897951 L 32.457949,11.28 l -0.29795,3.6 -3.36,0.308445 -3.36,0.308444 -0.912,0.891556 -0.912,0.891554 z m 4.576298,-2.734862 4.255702,-0.338469 V 11.423333 8.6399997 h -6.783765 -6.783766 l 0.303766,2.6020353 0.303765,2.602036 2.224298,0.519768 2.224297,0.519768 z M 22.559999,13.44 h -2.4 v -0.96 -0.96 h 2.4 2.4 v 0.96 0.96 z m 6.88,-0.32 -0.64,0.639999 V 12.48 11.2 l 0.64,0.639999 0.64,0.640001 z m -8.32,-2.56 H 19.84 l 0.639999,-0.6400006 0.64,-0.6399997 L 21.76,9.9199994 22.399999,10.56 Z m 5.76,-0.26147 h -4.32 l 2.16,-0.416034 2.16,-0.4160341 2.16,0.4160341 2.16,0.416034 z M 8.3199998,16 l -0.64,0.639999 V 15.36 14.08 l 0.64,0.639999 L 8.9599997,15.36 Z m 0.1395325,-4.129965 -0.2995325,1.197267 -2.4,-1.200991 L 3.3599999,10.66532 1.6270005,10.142452 -0.10599888,9.6195827 0.18700055,5.0497915 0.47999999,0.47999999 H 7.6799998 14.88 V 5.2799998 10.08 l -3.060468,0.296383 -3.060467,0.296385 z M 7.4557611,10.752716 7.8399998,9.5999997 H 10.639999 13.44 V 8.7999998 7.9999997 L 12.808328,7.3683287 12.176658,6.7366576 10.860186,7.8292318 9.5437149,8.9218058 7.3442551,6.8555207 5.1447954,4.7892355 2.8850562,7.1946176 0.62531705,9.5999997 H 3.1360021 5.6466872 l 0.7124176,1.1527163 0.7124177,1.152716 z M 3.0838023,5.0533629 5.3752975,2.9067261 7.0419343,4.573363 8.7085712,6.2399998 h 2.8863208 2.886321 L 14.200606,3.8399999 13.92,1.44 H 7.6799998 1.44 L 1.1161536,4.3199999 0.79230714,7.1999998 Z M 10.783471,4.9605286 9.6629421,6.0810573 9.032874,4.4391257 8.4028056,2.7971941 9.0174027,2.182597 9.6319994,1.5679999 l 1.1360006,1.136 1.136,1.136 z M 12.423343,13.44 H 10.56 v -0.96 -0.96 h 2.456656 2.456656 L 14.88,12.48 14.286687,13.44 Z"
         id="path114" />
      <path
         style="fill:#686868;fill-opacity:1;stroke-width:0.96"
         d="M 15.305259,32.639999 H 8.9599997 l -0.6399999,-0.64 -0.64,-0.64 v -0.992 -0.992 l 1.1519999,1.152 1.152,1.152 h 5.4781243 5.478126 l -0.502092,-1.92 -0.502091,-1.92 -2.048033,-0.09569 -2.048034,-0.09569 2.399999,-0.768615 2.4,-0.768614 -1.44,-0.110393 -1.44,-0.110394 1.44,-0.930599 1.44,-0.930599 -2.4,-0.0294 -2.399999,-0.0294 1.439999,-0.930599 1.44,-0.930599 -0.994285,-0.0147 -0.994286,-0.0147 v -1.92 -1.92 h 3.154286 3.154285 l 0.0147,1.2 0.0147,1.2 0.816511,-1.288272 0.816512,-1.288273 0.475664,2.488273 0.475662,2.488272 h -0.525002 -0.525002 l -2.150806,-2.020578 -2.150807,-2.020577 -1.093603,0.675884 -1.093603,0.675884 1.687348,1.864499 1.687348,1.864498 0.08045,4.280196 0.08046,4.280194 z m 13.250236,-6.158244 -0.339444,6.638244 -0.188026,-6.063111 -0.188026,-6.063112 -1.072142,-2.096888 -1.072143,-2.096889 1.599613,1.521756 1.599611,1.521754 z M 9.0806015,27.640601 3.2812035,27.921203 2.6006017,27.240601 1.9199999,26.56 v -3.143345 -3.143343 l 1.2,-0.768884 1.2,-0.768883 L 7.4399998,17.640896 10.56,16.546248 v 0.742804 0.742804 l 2.453646,0.615826 2.453646,0.615826 -0.293646,4.048245 L 14.88,27.359999 Z M 8.6399997,26.879999 H 14.515901 L 14.21795,23.317913 13.92,19.755827 11.52,19.181351 9.1199997,18.606876 6.2399998,19.177509 3.3599999,19.748144 3.0620492,23.314072 2.7640986,26.879999 Z m -1.1999999,-0.990531 -0.72,0.03053 v -2.4 -2.4 h 0.5431118 0.5431117 l 1.9361607,1.036202 1.936161,1.036202 -1.7592733,1.333266 -1.7592719,1.333267 z m 1.1999999,-1.889469 h 0.96 v -0.423343 -0.423344 l -0.96,-0.593313 -0.9599999,-0.593312 v 1.016656 1.016656 z m 8.1599993,1.92 H 16.32 v -0.48 -0.48 h 0.479999 0.48 v 0.48 0.48 z M 14.88,17.279999 H 14.4 V 16.383765 15.487531 L 11.76,15.087603 9.1199997,14.687677 12.24,14.543838 15.36,14.4 v 1.44 1.439999 z m 2.8,-0.07579 -1.84,-0.07579 1.259999,-0.50421 1.26,-0.50421 0.580001,0.579999 0.579999,0.58 z m 2.959999,0.07579 h -0.48 v -0.48 V 16.32 h 0.48 0.48 v 0.479999 0.48 z m 2.208,0 h -0.768 v -0.893231 -0.893231 l -2.16,-0.306769 -2.16,-0.306768 V 11.52 8.1599998 l 3.36,-0.4239928 3.36,-0.4239928 -4.32,-0.6318212 L 15.84,6.0483717 19.999999,5.9041858 24.16,5.7599998 23.764958,4.5599999 l -0.395042,-1.2 L 19.604958,2.776229 15.84,2.1924581 19.247999,2.056229 l 3.408,-0.1362291 1.152,1.152 1.152,1.152 v 1.6700492 1.6700494 l 3.6,0.2979506 3.6,0.2979507 V 11.52 14.88 l -3.36,0.308445 -3.36,0.308444 -0.912,0.891556 -0.912,0.891554 z m 4.752,-2.736666 4.08,-0.336665 V 11.423333 8.6399997 h -6.72 -6.72 v 2.8162353 2.816233 l 2.64,0.303766 2.64,0.303766 z m -5.04,-1.290484 -2.88,-0.03557 1.698271,-0.442549 1.698271,-0.442548 1.181729,0.47812 1.181729,0.47812 -2.88,-0.03557 z m 6.72,0.187151 h -0.48 v -0.48 -0.48 h 0.48 0.48 v 0.48 0.48 z m -8.64,-2.88 h -0.48 V 10.08 9.5999997 h 0.48 0.48 V 10.08 10.56 Z m 6.24,-0.26147 h -4.32 l 2.16,-0.416034 2.16,-0.4160341 2.16,0.4160341 2.16,0.416034 z M 8.3199998,16 l -0.64,0.639999 V 15.36 14.08 l 0.64,0.639999 L 8.9599997,15.36 Z M 12.183343,13.372526 10.08,13.305051 12,12.48 13.92,11.654948 14.696656,11.587469 15.473312,11.52 14.88,12.48 14.286687,13.44 Z m -4.2633432,-1.007064 -0.72,-0.114538 L 3.8399999,11.039481 0.47999999,9.8280371 V 5.1540187 0.47999999 H 7.6799998 14.88 V 5.2799998 10.08 l -3.12,0.300823 -3.1200003,0.300825 V 11.580823 12.48 Z M 7.4557611,10.752716 7.8399998,9.5999997 h 3.3975472 3.397546 L 13.450246,8.1723457 12.265398,6.7446918 10.692699,7.6286812 9.1199997,8.5126708 7.1323975,6.6509531 5.1447954,4.7892355 2.8850562,7.1946176 0.62531705,9.5999997 H 3.1360021 5.6466872 l 0.7124176,1.1527163 0.7124177,1.152716 z M 2.6299931,5.5062529 4.4711819,3.8399999 h 0.932409 0.9324089 l 1.2,1.1999999 1.1999999,1.2 h 2.8726063 2.872607 L 14.200606,3.8399999 13.92,1.44 H 7.6799998 1.44 L 1.114402,4.306253 0.7888042,7.172506 Z M 10.776705,4.9672939 9.8167053,5.9272938 9.1199997,4.7999999 8.4232938,3.6727059 l 0.9599999,-0.96 0.9600003,-0.96 0.696706,1.127294 0.696705,1.127294 z"
         id="path112" />
      <path
         style="fill:#575757;fill-opacity:1;stroke-width:0.96"
         d="M 15.305259,32.639999 H 8.9599997 l -0.6399999,-0.64 -0.64,-0.64 v -0.992 -0.992 l 1.1519999,1.152 1.152,1.152 h 5.4781243 5.478126 l -0.502092,-1.92 -0.502091,-1.92 -2.048033,-0.09569 -2.048034,-0.09569 2.399999,-0.768615 2.4,-0.768614 -1.44,-0.110393 -1.44,-0.110394 1.44,-0.930599 1.44,-0.930599 -2.4,-0.0294 -2.399999,-0.0294 1.439999,-0.930599 1.44,-0.930599 -0.994285,-0.0147 -0.994286,-0.0147 v -1.92 -1.92 h 2.61763 2.617629 l 0.656656,1.062493 0.656656,1.062491 0.8253,-1.302491 0.825299,-1.302493 0.0147,2.807342 0.0147,2.807341 -2.221873,-2.087341 -2.221873,-2.087342 h -1.138127 -1.138127 v 0.644409 0.64441 l 1.624812,1.795395 1.62481,1.795396 0.08045,4.280196 0.08045,4.280194 z m 13.250236,-6.158244 -0.339444,6.638244 -0.188026,-6.063111 -0.188026,-6.063112 -1.072142,-2.096888 -1.072143,-2.096889 1.599613,1.521756 1.599611,1.521754 z M 9.0806015,27.640601 3.2812035,27.921203 2.6006017,27.240601 1.9199999,26.56 v -3.008001 -3.008 l 1.152,-1.152 1.152,-1.152 H 6.3753435 8.5266871 L 9.1833434,17.177507 9.8399997,16.115016 10.44,16.937507 l 0.6,0.822492 1.92,1.064627 1.92,1.064627 v 3.735373 3.735373 z M 8.6399997,26.879999 H 14.515901 L 14.21795,23.317913 13.92,19.755827 11.52,19.181351 9.1199997,18.606876 6.2399998,19.177509 3.3599999,19.748144 3.0620492,23.314072 2.7640986,26.879999 Z m -1.1999999,-0.990531 -0.72,0.03053 v -2.4 -2.4 h 0.5431118 0.5431117 l 1.9361607,1.036202 1.936161,1.036202 -1.7592733,1.333266 -1.7592719,1.333267 z m 1.1999999,-1.889469 h 0.96 v -0.423343 -0.423344 l -0.96,-0.593313 -0.9599999,-0.593312 v 1.016656 1.016656 z m 8.1599993,1.92 H 16.32 v -0.48 -0.48 h 0.479999 0.48 v 0.48 0.48 z M 14.88,17.279999 H 14.4 V 16.383765 15.487531 L 11.76,15.087603 9.1199997,14.687677 12.24,14.543838 15.36,14.4 v 1.44 1.439999 z m 2.8,-0.07579 -1.84,-0.07579 1.259999,-0.50421 1.26,-0.50421 0.580001,0.579999 0.579999,0.58 z m 2.959999,0.07579 h -0.48 v -0.48 V 16.32 h 0.48 0.48 v 0.479999 0.48 z m 2.208,0 h -0.768 v -0.893231 -0.893231 l -2.16,-0.306769 -2.16,-0.306768 V 11.52 8.1599998 l 3.36,-0.4239928 3.36,-0.4239928 -4.32,-0.6318212 L 15.84,6.0483717 19.999999,5.9041858 24.16,5.7599998 23.764958,4.5599999 l -0.395042,-1.2 L 19.604958,2.776229 15.84,2.1924581 19.247999,2.056229 l 3.408,-0.1362291 1.152,1.152 1.152,1.152 v 1.6700492 1.6700494 l 3.6,0.2979506 3.6,0.2979507 V 11.52 14.88 l -3.36,0.308445 -3.36,0.308444 -0.912,0.891556 -0.912,0.891554 z m 4.752,-2.736666 4.08,-0.336665 V 11.423333 8.6399997 h -6.72 -6.72 v 2.8162353 2.816233 l 2.64,0.303766 2.64,0.303766 z m -6.96,-3.983333 h -0.48 V 10.08 9.5999997 h 0.48 0.48 V 10.08 10.56 Z m 5.76,-0.242096 -3.84,-0.01937 2.171193,-0.4175009 2.171192,-0.4175007 1.668808,0.4368745 1.668807,0.4368741 z M 8.3199998,16 l -0.64,0.639999 V 15.36 14.08 l 0.64,0.639999 L 8.9599997,15.36 Z m -0.4,-3.634538 -0.72,-0.114538 L 3.8399999,11.039481 0.47999999,9.8280371 V 5.1540187 0.47999999 H 7.6799998 14.88 V 5.2799998 10.08 l -3.12,0.300823 -3.1200003,0.300825 V 11.580823 12.48 Z M 7.4557611,10.752716 7.8399998,9.5999997 h 3.3975472 3.397546 L 13.450246,8.1723457 12.265398,6.7446918 10.692699,7.6286812 9.1199997,8.5126708 7.1323975,6.6509531 5.1447954,4.7892355 2.8850562,7.1946176 0.62531705,9.5999997 H 3.1360021 5.6466872 l 0.7124176,1.1527163 0.7124177,1.152716 z M 10.158766,6.6546297 11.276643,5.726874 12.914831,6.3555056 14.553019,6.9841372 14.236509,4.2120686 13.92,1.44 7.4399998,1.1561377 0.95999997,0.87227535 V 3.9449257 7.0175759 L 2.715591,5.4287879 4.4711819,3.8399999 H 5.587456 6.7037299 L 7.8723092,5.7111927 9.0408884,7.5823855 Z M 10.08,4.7999999 H 8.4799997 l 0.3440001,-1.032 0.3439999,-1.032 H 10.08 10.992 l 0.343999,1.032 0.344001,1.032 z M 14.4,12.48 H 13.12 L 13.759999,11.839999 14.4,11.2 15.04,11.839999 15.679999,12.48 Z"
         id="path110" />
      <path
         style="fill:#454545;fill-opacity:1;stroke-width:0.96"
         d="M 15.865259,32.56421 10.08,32.48842 8.8799997,32.004209 7.6799998,31.519999 v -1.072 -1.072 l 1.1519999,1.152 1.152,1.152 h 5.4669013 5.466901 l -0.746963,-3.311938 -0.746963,-3.311938 0.528062,-0.528062 0.528061,-0.528062 -2.319999,-0.07579 -2.32,-0.07579 1.151916,-0.468182 1.151917,-0.468184 -0.888156,-2.336027 -0.888156,-2.336028 h 2.799583 2.799583 l 0.656656,1.062493 0.656656,1.062491 0.8253,-1.302491 0.825299,-1.302493 0.0147,2.807342 0.0147,2.807341 -2.221873,-2.087341 -2.221873,-2.087342 h -1.138127 -1.138127 v 0.644409 0.64441 l 1.624812,1.795395 1.62481,1.795396 0.08045,4.280196 0.08045,4.280194 z m 12.667603,-2.542799 -0.385592,3.098588 0.0078,-6.72 0.0078,-6.72 0.377848,3.621412 0.377849,3.621413 -0.385592,3.098587 z M 3.8399999,27.839999 H 2.56 l 0.6399999,-0.64 0.64,-0.639999 0.64,0.639999 0.6399999,0.64 z M 14.709928,26.956698 13.92,27.749256 v -3.983408 -3.983409 l -2.4,-0.587782 -2.4000003,-0.587781 -2.8799999,0.573186 -2.8799999,0.573187 -0.5936244,3.323375 -0.5936244,3.323375 -0.1263756,-2.928 -0.1263756,-2.928 1.152,-1.152 1.152,-1.152 H 6.3753435 8.5266871 L 9.1833434,17.177507 9.8399997,16.115016 10.44,16.937507 l 0.6,0.822492 1.92,1.056815 1.92,1.056815 0.309928,3.145257 0.309929,3.145256 z m -7.3105588,-2.730937 -0.4178999,2.174238 -0.1307347,-2.64 -0.1307348,-2.64 h 0.7765156 0.7765154 l 1.7581712,1.285606 1.758172,1.285607 -1.624548,0.623397 -1.6245468,0.623398 0.5455197,-0.882669 0.5455198,-0.88267 -0.9070248,-0.560572 -0.9070248,-0.560572 z m 9.4006298,1.694238 H 16.32 v -0.48 -0.48 h 0.479999 0.48 v 0.48 0.48 z m 10.616656,-6.72 h -0.423343 l -0.684985,-1.108327 -0.684984,-1.108329 1.108329,0.684984 1.108327,0.684985 v 0.423344 0.423343 z M 14.88,17.279999 H 14.4 V 16.386768 15.493537 L 12.24,15.077503 10.08,14.661469 12.72,14.530734 15.36,14.4 v 1.44 1.439999 z m 2.8,-0.07579 -1.84,-0.07579 1.259999,-0.50421 1.26,-0.50421 0.580001,0.579999 0.579999,0.58 z m 2.959999,0.07579 h -0.48 v -0.48 V 16.32 h 0.48 0.48 v 0.479999 0.48 z m 2.652173,-0.77092 -1.212173,1.006014 v -1.010777 -1.010779 l -2.16,-0.306769 -2.16,-0.306768 V 11.52 8.1599998 l 3.36,-0.4239928 3.36,-0.4239928 -4.32,-0.6318212 L 15.84,6.0483717 19.999999,5.9041858 24.16,5.7599998 23.764958,4.5599999 l -0.395042,-1.2 L 19.604958,2.776229 15.84,2.1924581 19.247999,2.056229 l 3.408,-0.1362291 1.152,1.152 1.152,1.152 v 1.6700492 1.6700494 l 3.6,0.2979506 3.6,0.2979507 V 11.52 14.88 l -3.827827,0.311532 -3.827827,0.311533 z m 4.307827,-1.965746 4.08,-0.336665 V 11.423333 8.6399997 h -6.72 -6.72 v 2.8162353 2.816233 l 2.64,0.303766 2.64,0.303766 z m -6.96,-3.983333 h -0.48 V 10.08 9.5999997 h 0.48 0.48 V 10.08 10.56 Z m 5.76,-0.242096 -3.84,-0.01937 2.171193,-0.4175009 2.171192,-0.4175007 1.668808,0.4368745 1.668807,0.4368741 z M 8.3199998,16 l -0.64,0.639999 V 15.36 14.08 l 0.64,0.639999 L 8.9599997,15.36 Z m -0.4,-3.634538 -0.72,-0.114538 L 3.8399999,11.039481 0.47999999,9.8280371 V 5.1540187 0.47999999 H 7.6799998 14.88 V 5.2799998 10.08 l -3.12,0.300823 -3.1200003,0.300825 V 11.580823 12.48 Z M 7.5199997,10.34295 7.8399998,9.5999997 h 3.3975472 3.397546 L 13.456742,8.1801725 12.27839,6.7603453 10.580027,7.6692816 8.881664,8.5782178 7.1585622,6.6742118 5.4354605,4.7702058 3.1785798,6.8904351 0.92169907,9.0106645 4.0608494,10.048282 7.1999998,11.0859 Z M 10.084133,6.7165688 11.276643,5.726874 12.838322,6.3261462 14.4,6.9254183 V 3.9427091 0.95999997 H 7.6799998 0.95999997 V 3.8399999 6.7199998 h 0.64440893 0.644409 l 1.8697945,-1.68 1.8697946,-1.6799999 1.4516088,2.1731318 1.4516088,2.1731318 z m -0.8041333,-2.2365689 -0.64,0.6399999 V 3.8399999 2.56 l 0.64,0.6399999 0.6399997,0.64 z m 1.9200003,0 -0.64,0.6399999 V 3.8399999 2.56 l 0.64,0.6399999 0.639999,0.64 z M 14.88,12.48 H 14.4 V 12 11.52 h 0.48 0.48 V 12 12.48 Z"
         id="path108" />
      <path
         style="fill:#333333;fill-opacity:1;stroke-width:0.96"
         d="M 15.6,32.509264 9.1199997,32.37853 11.04,32.069887 l 1.92,-0.308642 4.559999,-0.287541 4.56,-0.28754 v 0.726917 0.726918 z m 12.932862,-2.487853 -0.385592,3.098588 0.0078,-6.72 0.0078,-6.72 0.377848,3.621412 0.377849,3.621413 -0.385592,3.098587 z M 8.1599998,30.719999 h -0.48 v -0.48 -0.48 h 0.48 0.4799999 v 0.48 0.48 z m 13.0967082,-3.327446 -0.768202,2.847446 -0.504726,-2.606509 -0.504726,-2.606509 1.060473,-0.437701 1.060472,-0.437702 -2.88,-0.09049 -2.879999,-0.09049 0.959999,-0.705299 0.96,-0.7053 v -1.906852 -1.906853 l 1.563478,-0.301098 1.563478,-0.301099 1.486424,1.486426 1.486426,1.486424 0.438736,-1.678473 0.438735,-1.678476 0.111362,2.807342 0.111361,2.807341 -2.221873,-2.087341 -2.221873,-2.087342 h -1.138127 -1.138127 v 0.658127 0.658127 l 1.892456,2.014427 1.892456,2.014426 z M 3.3599999,27.839999 h -0.48 v -0.48 -0.48 h 0.48 0.48 v 0.48 0.48 z M 14.64,27.211671 13.92,27.656655 v -4.136656 -4.136656 l 0.72,0.444984 0.72,0.444985 v 3.246687 3.246688 z m -7.2406308,-2.98591 -0.4178999,2.174238 -0.1307347,-2.64 -0.1307348,-2.64 h 0.7765156 0.7765154 l 1.7581712,1.285606 1.758172,1.285607 -1.624548,0.623397 -1.6245468,0.623398 0.5455197,-0.882669 0.5455198,-0.88267 -0.9070248,-0.560572 -0.9070248,-0.560572 z m 9.4006298,1.694238 H 16.32 v -0.48 -0.48 h 0.479999 0.48 v 0.48 0.48 z m -13.4399991,-5.76 h -0.48 v -0.48 -0.48 h 0.48 0.48 v 0.48 0.48 z m 5.6438221,-1.2 H 6.6399998 l 0.28,-0.151649 0.28,-0.151648 1.5678883,-1.192854 1.5678879,-1.192854 0.515934,1.344503 0.515934,1.344502 z m 18.412833,0.24 h -0.423343 l -0.684985,-1.108327 -0.684984,-1.108329 1.108329,0.684984 1.108327,0.684985 v 0.423344 0.423343 z M 14.88,17.279999 H 14.4 V 16.386768 15.493537 L 12.24,15.077503 10.08,14.661469 12.72,14.530734 15.36,14.4 v 1.44 1.439999 z m 2.8,-0.07579 -1.84,-0.07579 1.259999,-0.50421 1.26,-0.50421 0.580001,0.579999 0.579999,0.58 z m 2.959999,0.07579 h -0.48 v -0.48 V 16.32 h 0.48 0.48 v 0.479999 0.48 z M 8.3199998,16 l -0.64,0.639999 V 15.36 14.08 l 0.64,0.639999 L 8.9599997,15.36 Z m 18.0799992,-0.398506 -3.84,0.399578 -2.4,-0.603818 -2.4,-0.603818 V 11.476718 8.1599998 l 3.36,-0.4239928 3.36,-0.4239928 -4.32,-0.6318212 L 15.84,6.0483717 20.022709,5.9041858 24.205418,5.7599998 23.633705,4.2701396 23.061992,2.7802793 l 0.949003,0.5865166 0.949004,0.5865166 v 1.805393 1.805393 l 3.6,0.2979506 3.6,0.2979507 0.301316,3.1266002 0.301316,3.1266 -1.261316,0.394359 -1.261316,0.394358 z m 1.2,-1.058161 4.08,-0.336665 V 11.423333 8.6399997 h -6.72 -6.72 v 2.8162353 2.816233 l 2.64,0.303766 2.64,0.303766 z m -6.96,-3.983333 h -0.48 V 10.08 9.5999997 h 0.48 0.48 V 10.08 10.56 Z m 5.76,-0.242096 -3.84,-0.01937 2.171193,-0.4175009 2.171192,-0.4175007 1.668808,0.4368745 1.668807,0.4368741 z M 7.7366561,12.48 H 6.8333124 L 6.148328,11.371672 5.4633435,10.263343 6.5053373,10.907331 7.547331,11.551319 8.1503217,10.575659 8.7533124,9.5999997 h 2.9721316 2.972132 L 12.922611,7.6386868 11.147648,5.677374 12.702778,6.2741334 14.257908,6.8708927 14.69852,4.1554464 15.139132,1.44 15.009566,5.7599998 14.88,10.08 11.76,10.380823 8.6399997,10.681648 V 11.580823 12.48 Z M 14.88,12.48 H 14.4 V 12 11.52 h 0.48 0.48 V 12 12.48 Z M 3.0898705,10.464307 0.89974117,10.56 0.38590136,9.2209547 -0.12793844,7.8819096 0.17603077,4.1809548 0.47999999,0.47999999 7.1999998,0.41702562 13.92,0.35405125 7.4399998,0.69908282 0.95999997,1.0441143 V 3.8820571 6.7199998 H 1.802453 2.6449061 l 1.1950938,-1.44 1.1950938,-1.4399999 H 5.951203 6.8673124 L 3.7577073,6.4565601 0.64810226,9.0731201 2.9640511,9.7208675 5.2799998,10.368614 Z M 9.1808903,8.6399997 H 8.8750936 l -1.3175469,-1.6799999 -1.3175469,-1.68 1.5283289,1.1916711 1.5283288,1.191671 0.7855835,-0.711671 0.785584,-0.7116711 -0.69057,1.2 -0.6905679,1.1999999 z m 0.099109,-4.1599998 -0.64,0.6399999 V 3.8399999 2.56 l 0.64,0.6399999 0.6399997,0.64 z m 1.9200007,0 -0.64,0.6399999 V 3.8399999 2.56 l 0.64,0.6399999 0.639999,0.64 z"
         id="path106" />
    </g>
  </g>
</svg>
